<svg width="25" height="25" viewBox="0 0 25 25" fill="none" xmlns="http://www.w3.org/2000/svg">
<mask id="mask0_901_7493" style="mask-type:alpha" maskUnits="userSpaceOnUse" x="0" y="0" width="25" height="25">
<rect width="25" height="25" fill="#D9D9D9"/>
</mask>
<g mask="url(#mask0_901_7493)">
<path d="M6.09375 17.8127C6.97917 17.1356 7.96875 16.6017 9.0625 16.2111C10.1563 15.8205 11.3021 15.6252 12.5 15.6252C13.6979 15.6252 14.8438 15.8205 15.9375 16.2111C17.0313 16.6017 18.0208 17.1356 18.9063 17.8127C19.5139 17.1009 19.987 16.2936 20.3255 15.3908C20.6641 14.488 20.8333 13.5245 20.8333 12.5002C20.8333 10.1911 20.0217 8.22499 18.3984 6.60173C16.7752 4.97846 14.809 4.16683 12.5 4.16683C10.191 4.16683 8.22483 4.97846 6.60157 6.60173C4.9783 8.22499 4.16667 10.1911 4.16667 12.5002C4.16667 13.5245 4.33594 14.488 4.67448 15.3908C5.01302 16.2936 5.48611 17.1009 6.09375 17.8127ZM12.5 13.5418C11.4757 13.5418 10.612 13.1903 9.90886 12.4871C9.20573 11.784 8.85417 10.9203 8.85417 9.896C8.85417 8.87169 9.20573 8.00798 9.90886 7.30485C10.612 6.60173 11.4757 6.25016 12.5 6.25016C13.5243 6.25016 14.388 6.60173 15.0911 7.30485C15.7943 8.00798 16.1458 8.87169 16.1458 9.896C16.1458 10.9203 15.7943 11.784 15.0911 12.4871C14.388 13.1903 13.5243 13.5418 12.5 13.5418ZM12.5 22.9168C11.059 22.9168 9.70486 22.6434 8.4375 22.0965C7.17014 21.5496 6.06771 20.8075 5.13021 19.87C4.19271 18.9325 3.45052 17.83 2.90365 16.5627C2.35677 15.2953 2.08334 13.9411 2.08334 12.5002C2.08334 11.0592 2.35677 9.70502 2.90365 8.43766C3.45052 7.1703 4.19271 6.06787 5.13021 5.13037C6.06771 4.19287 7.17014 3.45068 8.4375 2.90381C9.70486 2.35693 11.059 2.0835 12.5 2.0835C13.941 2.0835 15.2951 2.35693 16.5625 2.90381C17.8299 3.45068 18.9323 4.19287 19.8698 5.13037C20.8073 6.06787 21.5495 7.1703 22.0964 8.43766C22.6432 9.70502 22.9167 11.0592 22.9167 12.5002C22.9167 13.9411 22.6432 15.2953 22.0964 16.5627C21.5495 17.83 20.8073 18.9325 19.8698 19.87C18.9323 20.8075 17.8299 21.5496 16.5625 22.0965C15.2951 22.6434 13.941 22.9168 12.5 22.9168Z" fill="#112442"/>
</g>
</svg>
