<svg width="30" height="30" viewBox="0 0 30 30" fill="none" xmlns="http://www.w3.org/2000/svg">
<g id="arrow_drop_down">
<mask id="mask0_960_2191" style="mask-type:alpha" maskUnits="userSpaceOnUse" x="0" y="0" width="30" height="30">
<rect id="Bounding box" width="30" height="30" fill="#D9D9D9"/>
</mask>
<g mask="url(#mask0_960_2191)">
<path id="arrow_drop_down_2" d="M14.3438 18.0938L9.8125 13.5625C9.75 13.5 9.70312 13.4323 9.67188 13.3594C9.64063 13.2865 9.625 13.2083 9.625 13.125C9.625 12.9583 9.68229 12.8125 9.79688 12.6875C9.91146 12.5625 10.0625 12.5 10.25 12.5H19.75C19.9375 12.5 20.0885 12.5625 20.2031 12.6875C20.3177 12.8125 20.375 12.9583 20.375 13.125C20.375 13.1667 20.3125 13.3125 20.1875 13.5625L15.6563 18.0938C15.5521 18.1979 15.4479 18.2708 15.3438 18.3125C15.2396 18.3542 15.125 18.375 15 18.375C14.875 18.375 14.7604 18.3542 14.6562 18.3125C14.5521 18.2708 14.4479 18.1979 14.3438 18.0938Z" fill="#F5F5F2"/>
</g>
</g>
</svg>
