<svg width="30" height="30" viewBox="0 0 30 30" fill="none" xmlns="http://www.w3.org/2000/svg">
<mask id="mask0_1747_1083" style="mask-type:alpha" maskUnits="userSpaceOnUse" x="0" y="0" width="30" height="30">
<rect width="30" height="30" fill="#D9D9D9"/>
</mask>
<g mask="url(#mask0_1747_1083)">
<path d="M11.9375 17.875L21.9688 7.84375C22.3646 7.44792 22.8333 7.25 23.375 7.25C23.9167 7.25 24.3854 7.44792 24.7813 7.84375C25.1771 8.23958 25.375 8.70833 25.375 9.25C25.375 9.79167 25.1771 10.2604 24.7813 10.6563L13.3438 22.0938C12.9479 22.4896 12.4792 22.6875 11.9375 22.6875C11.3958 22.6875 10.9271 22.4896 10.5313 22.0938L5.21875 16.7812C4.82292 16.3854 4.625 15.9167 4.625 15.375C4.625 14.8333 4.82292 14.3646 5.21875 13.9688C5.61458 13.5729 6.08333 13.375 6.625 13.375C7.16667 13.375 7.63542 13.5729 8.03125 13.9688L11.9375 17.875Z" fill="#112442"/>
</g>
</svg>
