<svg width="50" height="50" viewBox="0 0 50 50" fill="none" xmlns="http://www.w3.org/2000/svg">
<mask id="mask0_1424_1051" style="mask-type:alpha" maskUnits="userSpaceOnUse" x="0" y="0" width="50" height="50">
<rect width="50" height="50" fill="#D9D9D9"/>
</mask>
<g mask="url(#mask0_1424_1051)">
<path d="M24.9997 27.9163L14.7913 38.1247C14.4094 38.5066 13.9233 38.6976 13.333 38.6976C12.7427 38.6976 12.2566 38.5066 11.8747 38.1247C11.4927 37.7427 11.3018 37.2566 11.3018 36.6663C11.3018 36.0761 11.4927 35.59 11.8747 35.208L22.083 24.9997L11.8747 14.7913C11.4927 14.4094 11.3018 13.9233 11.3018 13.333C11.3018 12.7427 11.4927 12.2566 11.8747 11.8747C12.2566 11.4927 12.7427 11.3018 13.333 11.3018C13.9233 11.3018 14.4094 11.4927 14.7913 11.8747L24.9997 22.083L35.208 11.8747C35.59 11.4927 36.0761 11.3018 36.6663 11.3018C37.2566 11.3018 37.7427 11.4927 38.1247 11.8747C38.5066 12.2566 38.6976 12.7427 38.6976 13.333C38.6976 13.9233 38.5066 14.4094 38.1247 14.7913L27.9163 24.9997L38.1247 35.208C38.5066 35.59 38.6976 36.0761 38.6976 36.6663C38.6976 37.2566 38.5066 37.7427 38.1247 38.1247C37.7427 38.5066 37.2566 38.6976 36.6663 38.6976C36.0761 38.6976 35.59 38.5066 35.208 38.1247L24.9997 27.9163Z" fill="#112442"/>
</g>
</svg>
