<svg width="35" height="35" viewBox="0 0 35 35" fill="none" xmlns="http://www.w3.org/2000/svg">
<g id="confirmation_number">
<mask id="mask0_8_58" style="mask-type:alpha" maskUnits="userSpaceOnUse" x="0" y="0" width="35" height="35">
<rect id="Bounding box" width="35" height="35" fill="#D9D9D9"/>
</mask>
<g mask="url(#mask0_8_58)">
<path id="confirmation_number_2" d="M5.83366 29.1663C5.03158 29.1663 4.34494 28.8808 3.77376 28.3096C3.20258 27.7384 2.91699 27.0518 2.91699 26.2497V21.3278C2.91699 21.0604 3.00206 20.8295 3.1722 20.6351C3.34234 20.4406 3.56109 20.3191 3.82845 20.2705C4.41178 20.0761 4.89182 19.7236 5.26855 19.2132C5.64529 18.7028 5.83366 18.1316 5.83366 17.4997C5.83366 16.8677 5.64529 16.2965 5.26855 15.7861C4.89182 15.2757 4.41178 14.9233 3.82845 14.7288C3.56109 14.6802 3.34234 14.5587 3.1722 14.3643C3.00206 14.1698 2.91699 13.9389 2.91699 13.6715V8.74967C2.91699 7.94759 3.20258 7.26096 3.77376 6.68978C4.34494 6.1186 5.03158 5.83301 5.83366 5.83301H29.167C29.9691 5.83301 30.6557 6.1186 31.2269 6.68978C31.7981 7.26096 32.0837 7.94759 32.0837 8.74967V13.6715C32.0837 13.9389 31.9986 14.1698 31.8284 14.3643C31.6583 14.5587 31.4396 14.6802 31.1722 14.7288C30.5889 14.9233 30.1088 15.2757 29.7321 15.7861C29.3554 16.2965 29.167 16.8677 29.167 17.4997C29.167 18.1316 29.3554 18.7028 29.7321 19.2132C30.1088 19.7236 30.5889 20.0761 31.1722 20.2705C31.4396 20.3191 31.6583 20.4406 31.8284 20.6351C31.9986 20.8295 32.0837 21.0604 32.0837 21.3278V26.2497C32.0837 27.0518 31.7981 27.7384 31.2269 28.3096C30.6557 28.8808 29.9691 29.1663 29.167 29.1663H5.83366ZM17.5003 24.7913C17.9135 24.7913 18.2599 24.6516 18.5394 24.3721C18.8189 24.0926 18.9587 23.7462 18.9587 23.333C18.9587 22.9198 18.8189 22.5735 18.5394 22.2939C18.2599 22.0144 17.9135 21.8747 17.5003 21.8747C17.0871 21.8747 16.7408 22.0144 16.4613 22.2939C16.1817 22.5735 16.042 22.9198 16.042 23.333C16.042 23.7462 16.1817 24.0926 16.4613 24.3721C16.7408 24.6516 17.0871 24.7913 17.5003 24.7913ZM17.5003 18.958C17.9135 18.958 18.2599 18.8183 18.5394 18.5387C18.8189 18.2592 18.9587 17.9129 18.9587 17.4997C18.9587 17.0865 18.8189 16.7401 18.5394 16.4606C18.2599 16.1811 17.9135 16.0413 17.5003 16.0413C17.0871 16.0413 16.7408 16.1811 16.4613 16.4606C16.1817 16.7401 16.042 17.0865 16.042 17.4997C16.042 17.9129 16.1817 18.2592 16.4613 18.5387C16.7408 18.8183 17.0871 18.958 17.5003 18.958ZM17.5003 13.1247C17.9135 13.1247 18.2599 12.9849 18.5394 12.7054C18.8189 12.4259 18.9587 12.0795 18.9587 11.6663C18.9587 11.2531 18.8189 10.9068 18.5394 10.6273C18.2599 10.3478 17.9135 10.208 17.5003 10.208C17.0871 10.208 16.7408 10.3478 16.4613 10.6273C16.1817 10.9068 16.042 11.2531 16.042 11.6663C16.042 12.0795 16.1817 12.4259 16.4613 12.7054C16.7408 12.9849 17.0871 13.1247 17.5003 13.1247Z" fill="white"/>
</g>
</g>
</svg>
