<svg width="25" height="25" viewBox="0 0 25 25" fill="none" xmlns="http://www.w3.org/2000/svg">
<mask id="mask0_901_8076" style="mask-type:alpha" maskUnits="userSpaceOnUse" x="0" y="0" width="25" height="25">
<rect width="25" height="25" fill="#D9D9D9"/>
</mask>
<g mask="url(#mask0_901_8076)">
<path d="M4.16659 20.8332C3.59367 20.8332 3.10322 20.6292 2.69523 20.2212C2.28725 19.8132 2.08325 19.3228 2.08325 18.7498V6.24984C2.08325 5.67692 2.28725 5.18647 2.69523 4.77848C3.10322 4.3705 3.59367 4.1665 4.16659 4.1665H20.8333C21.4062 4.1665 21.8966 4.3705 22.3046 4.77848C22.7126 5.18647 22.9166 5.67692 22.9166 6.24984V18.7498C22.9166 19.3228 22.7126 19.8132 22.3046 20.2212C21.8966 20.6292 21.4062 20.8332 20.8333 20.8332H4.16659ZM4.16659 12.4998H20.8333V8.33317H4.16659V12.4998Z" fill="#112442"/>
</g>
</svg>
