<svg width="25" height="25" viewBox="0 0 25 25" fill="none" xmlns="http://www.w3.org/2000/svg">
<mask id="mask0_829_1303" style="mask-type:alpha" maskUnits="userSpaceOnUse" x="0" y="0" width="25" height="25">
<rect width="25" height="25" fill="#D9D9D9"/>
</mask>
<g mask="url(#mask0_829_1303)">
<path d="M1.04468 19.792V16.667C1.04468 16.0767 1.24914 15.5819 1.65807 15.1826C2.067 14.7833 2.55858 14.5837 3.13282 14.5837H6.55216C6.90018 14.5837 7.23081 14.6705 7.54403 14.8441C7.85725 15.0177 8.10957 15.2521 8.30098 15.5472C8.80562 16.2243 9.42771 16.7538 10.1673 17.1357C10.9068 17.5177 11.6942 17.7087 12.5295 17.7087C13.3821 17.7087 14.1782 17.5177 14.9178 17.1357C15.6573 16.7538 16.2707 16.2243 16.758 15.5472C16.9842 15.2521 17.2495 15.0177 17.5541 14.8441C17.8586 14.6705 18.1762 14.5837 18.5068 14.5837H21.9261C22.5178 14.5837 23.0137 14.7833 23.4139 15.1826C23.8142 15.5819 24.0143 16.0767 24.0143 16.667V19.792C24.0143 20.0871 23.9142 20.3345 23.7141 20.5342C23.514 20.7338 23.266 20.8337 22.9702 20.8337H17.7498C17.454 20.8337 17.206 20.7338 17.0059 20.5342C16.8058 20.3345 16.7058 20.0871 16.7058 19.792V18.4639C16.0967 18.8979 15.4398 19.2278 14.7351 19.4535C14.0303 19.6791 13.2951 19.792 12.5295 19.792C11.7812 19.792 11.0504 19.6748 10.3369 19.4404C9.62347 19.2061 8.96223 18.8719 8.35318 18.4378V19.792C8.35318 20.0871 8.25313 20.3345 8.05301 20.5342C7.8529 20.7338 7.60493 20.8337 7.30911 20.8337H2.08875C1.79293 20.8337 1.54496 20.7338 1.34485 20.5342C1.14473 20.3345 1.04468 20.0871 1.04468 19.792ZM12.5295 16.667C11.8682 16.667 11.2418 16.5151 10.6501 16.2113C10.0585 15.9074 9.56257 15.4864 9.16234 14.9482C8.86652 14.5142 8.49674 14.1713 8.05301 13.9196C7.60928 13.6679 7.1264 13.542 6.60436 13.542C6.98719 12.8996 7.79635 12.3918 9.03183 12.0186C10.2673 11.6453 11.4332 11.4587 12.5295 11.4587C13.6257 11.4587 14.7916 11.6453 16.0271 12.0186C17.2626 12.3918 18.0718 12.8996 18.4546 13.542C17.9499 13.542 17.4714 13.6679 17.019 13.9196C16.5666 14.1713 16.1924 14.5142 15.8966 14.9482C15.5138 15.5038 15.0265 15.9291 14.4349 16.2243C13.8433 16.5194 13.2081 16.667 12.5295 16.667ZM4.17689 13.542C3.30683 13.542 2.56728 13.2382 1.95824 12.6305C1.3492 12.0229 1.04468 11.285 1.04468 10.417C1.04468 9.53158 1.3492 8.78939 1.95824 8.19043C2.56728 7.59147 3.30683 7.29199 4.17689 7.29199C5.06436 7.29199 5.80826 7.59147 6.4086 8.19043C7.00894 8.78939 7.30911 9.53158 7.30911 10.417C7.30911 11.285 7.00894 12.0229 6.4086 12.6305C5.80826 13.2382 5.06436 13.542 4.17689 13.542ZM20.8821 13.542C20.012 13.542 19.2724 13.2382 18.6634 12.6305C18.0544 12.0229 17.7498 11.285 17.7498 10.417C17.7498 9.53158 18.0544 8.78939 18.6634 8.19043C19.2724 7.59147 20.012 7.29199 20.8821 7.29199C21.7695 7.29199 22.5134 7.59147 23.1138 8.19043C23.7141 8.78939 24.0143 9.53158 24.0143 10.417C24.0143 11.285 23.7141 12.0229 23.1138 12.6305C22.5134 13.2382 21.7695 13.542 20.8821 13.542ZM12.5295 10.417C11.6594 10.417 10.9199 10.1132 10.3108 9.50553C9.70178 8.89789 9.39726 8.16005 9.39726 7.29199C9.39726 6.40658 9.70178 5.66439 10.3108 5.06543C10.9199 4.46647 11.6594 4.16699 12.5295 4.16699C13.4169 4.16699 14.1608 4.46647 14.7612 5.06543C15.3615 5.66439 15.6617 6.40658 15.6617 7.29199C15.6617 8.16005 15.3615 8.89789 14.7612 9.50553C14.1608 10.1132 13.4169 10.417 12.5295 10.417Z" fill="#112442"/>
</g>
</svg>
