<svg width="15" height="15" viewBox="0 0 15 15" fill="none" xmlns="http://www.w3.org/2000/svg">
<mask id="mask0_901_7504" style="mask-type:alpha" maskUnits="userSpaceOnUse" x="0" y="0" width="15" height="15">
<rect width="15" height="15" fill="#D9D9D9"/>
</mask>
<g mask="url(#mask0_901_7504)">
<path d="M2.5 13.125C2.32292 13.125 2.17448 13.0651 2.05469 12.9453C1.9349 12.8255 1.875 12.6771 1.875 12.5V10.9844C1.875 10.8177 1.90625 10.6589 1.96875 10.5078C2.03125 10.3568 2.11979 10.224 2.23438 10.1094L10.125 2.23438C10.25 2.11979 10.388 2.03125 10.5391 1.96875C10.6901 1.90625 10.849 1.875 11.0156 1.875C11.1823 1.875 11.3438 1.90625 11.5 1.96875C11.6562 2.03125 11.7917 2.125 11.9063 2.25L12.7656 3.125C12.8906 3.23958 12.9818 3.375 13.0391 3.53125C13.0964 3.6875 13.125 3.84375 13.125 4C13.125 4.16667 13.0964 4.32552 13.0391 4.47656C12.9818 4.6276 12.8906 4.76563 12.7656 4.89063L4.89063 12.7656C4.77604 12.8802 4.64323 12.9688 4.49219 13.0312C4.34115 13.0938 4.18229 13.125 4.01562 13.125H2.5ZM11 4.875L11.875 4L11 3.125L10.125 4L11 4.875Z" fill="#112442"/>
</g>
</svg>
