<svg width="25" height="25" viewBox="0 0 25 25" fill="none" xmlns="http://www.w3.org/2000/svg">
<g id="expand_more">
<mask id="mask0_882_653" style="mask-type:alpha" maskUnits="userSpaceOnUse" x="0" y="0" width="25" height="25">
<rect id="Bounding box" width="25" height="25" fill="#D9D9D9"/>
</mask>
<g mask="url(#mask0_882_653)">
<path id="expand_more_2" d="M12.4997 15.5729C12.3608 15.5729 12.2306 15.5512 12.109 15.5078C11.9875 15.4644 11.8747 15.3906 11.7705 15.2865L6.97884 10.4948C6.78787 10.3038 6.69238 10.0608 6.69238 9.76562C6.69238 9.47049 6.78787 9.22743 6.97884 9.03646C7.16981 8.84549 7.41287 8.75 7.70801 8.75C8.00315 8.75 8.2462 8.84549 8.43717 9.03646L12.4997 13.099L16.5622 9.03646C16.7531 8.84549 16.9962 8.75 17.2913 8.75C17.5865 8.75 17.8295 8.84549 18.0205 9.03646C18.2115 9.22743 18.307 9.47049 18.307 9.76562C18.307 10.0608 18.2115 10.3038 18.0205 10.4948L13.2288 15.2865C13.1247 15.3906 13.0118 15.4644 12.8903 15.5078C12.7688 15.5512 12.6386 15.5729 12.4997 15.5729Z" fill="#112442"/>
</g>
</g>
</svg>
