<svg width="40" height="40" viewBox="0 0 40 40" fill="none" xmlns="http://www.w3.org/2000/svg">
<rect width="40" height="40" rx="10" fill="#F5F5F2" fill-opacity="0.75"/>
<mask id="mask0_2181_326" style="mask-type:alpha" maskUnits="userSpaceOnUse" x="7" y="8" width="25" height="25">
<rect x="7" y="8" width="25" height="25" fill="#D9D9D9"/>
</mask>
<g mask="url(#mask0_2181_326)">
<path d="M25.75 30.9168C24.8819 30.9168 24.1441 30.613 23.5365 30.0054C22.9288 29.3977 22.625 28.6599 22.625 27.7918C22.625 27.6703 22.6337 27.5444 22.651 27.4142C22.6684 27.284 22.6944 27.1668 22.7292 27.0627L15.3854 22.7918C15.0903 23.0522 14.7604 23.2562 14.3958 23.4038C14.0312 23.5514 13.6493 23.6252 13.25 23.6252C12.3819 23.6252 11.6441 23.3213 11.0365 22.7137C10.4288 22.1061 10.125 21.3682 10.125 20.5002C10.125 19.6321 10.4288 18.8943 11.0365 18.2866C11.6441 17.679 12.3819 17.3752 13.25 17.3752C13.6493 17.3752 14.0312 17.4489 14.3958 17.5965C14.7604 17.7441 15.0903 17.9481 15.3854 18.2085L22.7292 13.9377C22.6944 13.8335 22.6684 13.7163 22.651 13.5861C22.6337 13.4559 22.625 13.33 22.625 13.2085C22.625 12.3404 22.9288 11.6026 23.5365 10.995C24.1441 10.3873 24.8819 10.0835 25.75 10.0835C26.6181 10.0835 27.3559 10.3873 27.9635 10.995C28.5712 11.6026 28.875 12.3404 28.875 13.2085C28.875 14.0766 28.5712 14.8144 27.9635 15.422C27.3559 16.0297 26.6181 16.3335 25.75 16.3335C25.3507 16.3335 24.9688 16.2597 24.6042 16.1121C24.2396 15.9646 23.9097 15.7606 23.6146 15.5002L16.2708 19.771C16.3056 19.8752 16.3316 19.9924 16.349 20.1226C16.3663 20.2528 16.375 20.3786 16.375 20.5002C16.375 20.6217 16.3663 20.7476 16.349 20.8778C16.3316 21.008 16.3056 21.1252 16.2708 21.2293L23.6146 25.5002C23.9097 25.2397 24.2396 25.0358 24.6042 24.8882C24.9688 24.7406 25.3507 24.6668 25.75 24.6668C26.6181 24.6668 27.3559 24.9706 27.9635 25.5783C28.5712 26.1859 28.875 26.9238 28.875 27.7918C28.875 28.6599 28.5712 29.3977 27.9635 30.0054C27.3559 30.613 26.6181 30.9168 25.75 30.9168ZM25.75 14.2502C26.0451 14.2502 26.2925 14.1503 26.4922 13.9507C26.6918 13.751 26.7917 13.5036 26.7917 13.2085C26.7917 12.9134 26.6918 12.666 26.4922 12.4663C26.2925 12.2667 26.0451 12.1668 25.75 12.1668C25.4549 12.1668 25.2075 12.2667 25.0078 12.4663C24.8082 12.666 24.7083 12.9134 24.7083 13.2085C24.7083 13.5036 24.8082 13.751 25.0078 13.9507C25.2075 14.1503 25.4549 14.2502 25.75 14.2502ZM13.25 21.5418C13.5451 21.5418 13.7925 21.442 13.9922 21.2424C14.1918 21.0427 14.2917 20.7953 14.2917 20.5002C14.2917 20.205 14.1918 19.9576 13.9922 19.758C13.7925 19.5583 13.5451 19.4585 13.25 19.4585C12.9549 19.4585 12.7075 19.5583 12.5078 19.758C12.3082 19.9576 12.2083 20.205 12.2083 20.5002C12.2083 20.7953 12.3082 21.0427 12.5078 21.2424C12.7075 21.442 12.9549 21.5418 13.25 21.5418ZM25.75 28.8335C26.0451 28.8335 26.2925 28.7337 26.4922 28.534C26.6918 28.3344 26.7917 28.087 26.7917 27.7918C26.7917 27.4967 26.6918 27.2493 26.4922 27.0496C26.2925 26.85 26.0451 26.7502 25.75 26.7502C25.4549 26.7502 25.2075 26.85 25.0078 27.0496C24.8082 27.2493 24.7083 27.4967 24.7083 27.7918C24.7083 28.087 24.8082 28.3344 25.0078 28.534C25.2075 28.7337 25.4549 28.8335 25.75 28.8335Z" fill="#112442"/>
</g>
</svg>
