<svg width="20" height="20" viewBox="0 0 20 20" fill="none" xmlns="http://www.w3.org/2000/svg">
<mask id="mask0_2173_353" style="mask-type:alpha" maskUnits="userSpaceOnUse" x="0" y="0" width="20" height="20">
<rect width="20" height="20" fill="#D9D9D9"/>
</mask>
<g mask="url(#mask0_2173_353)">
<path d="M10.8327 11.6668H8.33268C8.09657 11.6668 7.89865 11.7467 7.73893 11.9064C7.57921 12.0661 7.49935 12.2641 7.49935 12.5002C7.49935 12.7363 7.57921 12.9342 7.73893 13.0939C7.89865 13.2536 8.09657 13.3335 8.33268 13.3335H9.16602C9.16602 13.5696 9.24588 13.7675 9.4056 13.9272C9.56532 14.087 9.76324 14.1668 9.99935 14.1668C10.2216 14.1668 10.3778 14.0661 10.4681 13.8647C10.5584 13.6634 10.6799 13.4863 10.8327 13.3335H11.666C11.9021 13.3335 12.1 13.2536 12.2598 13.0939C12.4195 12.9342 12.4993 12.7363 12.4993 12.5002V10.0002C12.4993 9.76405 12.4195 9.56613 12.2598 9.40641C12.1 9.24669 11.9021 9.16683 11.666 9.16683H9.16602V8.3335H11.666C11.9021 8.3335 12.1 8.25363 12.2598 8.09391C12.4195 7.93419 12.4993 7.73627 12.4993 7.50016C12.4993 7.26405 12.4195 7.06613 12.2598 6.90641C12.1 6.74669 11.9021 6.66683 11.666 6.66683H10.8327C10.8327 6.43072 10.7528 6.2328 10.5931 6.07308C10.4334 5.91336 10.2355 5.8335 9.99935 5.8335C9.77713 5.8335 9.62088 5.93419 9.5306 6.13558C9.44032 6.33697 9.31879 6.51405 9.16602 6.66683H8.33268C8.09657 6.66683 7.89865 6.74669 7.73893 6.90641C7.57921 7.06613 7.49935 7.26405 7.49935 7.50016V10.0002C7.49935 10.2363 7.57921 10.4342 7.73893 10.5939C7.89865 10.7536 8.09657 10.8335 8.33268 10.8335H10.8327V11.6668ZM3.33268 16.6668C2.87435 16.6668 2.48199 16.5036 2.1556 16.1772C1.82921 15.8509 1.66602 15.4585 1.66602 15.0002V5.00016C1.66602 4.54183 1.82921 4.14947 2.1556 3.82308C2.48199 3.49669 2.87435 3.3335 3.33268 3.3335H16.666C17.1243 3.3335 17.5167 3.49669 17.8431 3.82308C18.1695 4.14947 18.3327 4.54183 18.3327 5.00016V15.0002C18.3327 15.4585 18.1695 15.8509 17.8431 16.1772C17.5167 16.5036 17.1243 16.6668 16.666 16.6668H3.33268Z" fill="#112442"/>
</g>
</svg>
