<svg width="17" height="21" viewBox="0 0 17 21" fill="none" xmlns="http://www.w3.org/2000/svg">
<path d="M8.49996 20.2137C8.2569 20.2137 8.01385 20.1703 7.77079 20.0835C7.52774 19.9967 7.31072 19.8665 7.11975 19.6929C5.99128 18.6512 4.99301 17.6356 4.12496 16.646C3.2569 15.6564 2.53208 14.6972 1.95048 13.7684C1.36888 12.8396 0.926175 11.9455 0.622355 11.0861C0.318536 10.2267 0.166626 9.40641 0.166626 8.62516C0.166626 6.021 1.0043 3.94634 2.67965 2.4012C4.35499 0.856066 6.2951 0.0834961 8.49996 0.0834961C10.7048 0.0834961 12.6449 0.856066 14.3203 2.4012C15.9956 3.94634 16.8333 6.021 16.8333 8.62516C16.8333 9.40641 16.6814 10.2267 16.3776 11.0861C16.0737 11.9455 15.631 12.8396 15.0494 13.7684C14.4678 14.6972 13.743 15.6564 12.875 16.646C12.0069 17.6356 11.0086 18.6512 9.88017 19.6929C9.68919 19.8665 9.47218 19.9967 9.22913 20.0835C8.98607 20.1703 8.74301 20.2137 8.49996 20.2137ZM8.49996 10.5002C9.07288 10.5002 9.56333 10.2962 9.97131 9.88818C10.3793 9.4802 10.5833 8.98975 10.5833 8.41683C10.5833 7.84391 10.3793 7.35346 9.97131 6.94548C9.56333 6.53749 9.07288 6.3335 8.49996 6.3335C7.92704 6.3335 7.43659 6.53749 7.0286 6.94548C6.62062 7.35346 6.41663 7.84391 6.41663 8.41683C6.41663 8.98975 6.62062 9.4802 7.0286 9.88818C7.43659 10.2962 7.92704 10.5002 8.49996 10.5002Z" fill="#112442"/>
</svg>
