<svg width="30" height="30" viewBox="0 0 30 30" fill="none" xmlns="http://www.w3.org/2000/svg">
<mask id="mask0_2153_1369" style="mask-type:alpha" maskUnits="userSpaceOnUse" x="0" y="0" width="30" height="30">
<rect width="30" height="30" fill="#D9D9D9"/>
</mask>
<g mask="url(#mask0_2153_1369)">
<path d="M6.25 26.25C5.5625 26.25 4.97396 26.0052 4.48438 25.5156C3.99479 25.026 3.75 24.4375 3.75 23.75V6.25C3.75 5.5625 3.99479 4.97396 4.48438 4.48438C4.97396 3.99479 5.5625 3.75 6.25 3.75H13.75C14.1042 3.75 14.401 3.86979 14.6406 4.10937C14.8802 4.34896 15 4.64583 15 5C15 5.35417 14.8802 5.65104 14.6406 5.89062C14.401 6.13021 14.1042 6.25 13.75 6.25H6.25V23.75H13.75C14.1042 23.75 14.401 23.8698 14.6406 24.1094C14.8802 24.349 15 24.6458 15 25C15 25.3542 14.8802 25.651 14.6406 25.8906C14.401 26.1302 14.1042 26.25 13.75 26.25H6.25ZM21.4688 16.25H12.5C12.1458 16.25 11.849 16.1302 11.6094 15.8906C11.3698 15.651 11.25 15.3542 11.25 15C11.25 14.6458 11.3698 14.349 11.6094 14.1094C11.849 13.8698 12.1458 13.75 12.5 13.75H21.4688L19.125 11.4062C18.8958 11.1771 18.7813 10.8958 18.7813 10.5625C18.7813 10.2292 18.8958 9.9375 19.125 9.6875C19.3542 9.4375 19.6458 9.30729 20 9.29688C20.3542 9.28646 20.6563 9.40625 20.9063 9.65625L25.375 14.125C25.625 14.375 25.75 14.6667 25.75 15C25.75 15.3333 25.625 15.625 25.375 15.875L20.9063 20.3438C20.6563 20.5938 20.3594 20.7135 20.0156 20.7031C19.6719 20.6927 19.375 20.5625 19.125 20.3125C18.8958 20.0625 18.7865 19.7656 18.7969 19.4219C18.8073 19.0781 18.9271 18.7917 19.1562 18.5625L21.4688 16.25Z" fill="#F5F5F2"/>
</g>
</svg>
