<svg width="21" height="17" viewBox="0 0 21 17" fill="none" xmlns="http://www.w3.org/2000/svg">
<path d="M2.16683 16.8332C1.59391 16.8332 1.10346 16.6292 0.695475 16.2212C0.287489 15.8132 0.0834961 15.3228 0.0834961 14.7498V2.24984C0.0834961 1.67692 0.287489 1.18647 0.695475 0.778483C1.10346 0.370497 1.59391 0.166504 2.16683 0.166504H18.8335C19.4064 0.166504 19.8969 0.370497 20.3049 0.778483C20.7128 1.18647 20.9168 1.67692 20.9168 2.24984V14.7498C20.9168 15.3228 20.7128 15.8132 20.3049 16.2212C19.8969 16.6292 19.4064 16.8332 18.8335 16.8332H2.16683ZM10.5002 9.35921C10.587 9.35921 10.6781 9.34619 10.7736 9.32015C10.8691 9.29411 10.9602 9.25505 11.047 9.20296L18.4168 4.59359C18.5557 4.50678 18.6599 4.39827 18.7293 4.26807C18.7988 4.13786 18.8335 3.99463 18.8335 3.83838C18.8335 3.49116 18.6859 3.23074 18.3908 3.05713C18.0957 2.88352 17.7918 2.8922 17.4793 3.08317L10.5002 7.45817L3.521 3.08317C3.2085 2.8922 2.90468 2.88786 2.60954 3.07015C2.3144 3.25244 2.16683 3.50852 2.16683 3.83838C2.16683 4.01199 2.20155 4.1639 2.271 4.29411C2.34044 4.42432 2.44461 4.52414 2.5835 4.59359L9.95329 9.20296C10.0401 9.25505 10.1312 9.29411 10.2267 9.32015C10.3222 9.34619 10.4134 9.35921 10.5002 9.35921Z" fill="#88919E"/>
</svg>
