<svg width="851" height="577" viewBox="0 0 851 577" fill="none" xmlns="http://www.w3.org/2000/svg">
<rect width="851" height="577" rx="10" fill="#FFFEF9"/>
<path d="M356.5 108V73H372.5C375.7 73 378.45 73.5167 380.75 74.55C383.083 75.5833 384.883 77.0833 386.15 79.05C387.417 80.9833 388.05 83.2833 388.05 85.95C388.05 88.5833 387.417 90.8667 386.15 92.8C384.883 94.7 383.083 96.1667 380.75 97.2C378.45 98.2 375.7 98.7 372.5 98.7H362L366.4 94.55V108H356.5ZM378.15 108L369.45 95.25H380L388.75 108H378.15ZM366.4 95.6L362 91.05H371.9C373.967 91.05 375.5 90.6 376.5 89.7C377.533 88.8 378.05 87.55 378.05 85.95C378.05 84.3167 377.533 83.05 376.5 82.15C375.5 81.25 373.967 80.8 371.9 80.8H362L366.4 76.25V95.6ZM406.662 108.45C403.695 108.45 401.062 107.85 398.762 106.65C396.462 105.45 394.645 103.8 393.312 101.7C392.012 99.5667 391.362 97.1333 391.362 94.4C391.362 91.6667 392.012 89.25 393.312 87.15C394.645 85.05 396.462 83.4167 398.762 82.25C401.062 81.05 403.695 80.45 406.662 80.45C409.628 80.45 412.262 81.05 414.562 82.25C416.895 83.4167 418.712 85.05 420.012 87.15C421.312 89.25 421.962 91.6667 421.962 94.4C421.962 97.1333 421.312 99.5667 420.012 101.7C418.712 103.8 416.895 105.45 414.562 106.65C412.262 107.85 409.628 108.45 406.662 108.45ZM406.662 100.9C407.762 100.9 408.728 100.65 409.562 100.15C410.428 99.65 411.112 98.9167 411.612 97.95C412.112 96.95 412.362 95.7667 412.362 94.4C412.362 93.0333 412.112 91.8833 411.612 90.95C411.112 89.9833 410.428 89.25 409.562 88.75C408.728 88.25 407.762 88 406.662 88C405.595 88 404.628 88.25 403.762 88.75C402.928 89.25 402.245 89.9833 401.712 90.95C401.212 91.8833 400.962 93.0333 400.962 94.4C400.962 95.7667 401.212 96.95 401.712 97.95C402.245 98.9167 402.928 99.65 403.762 100.15C404.628 100.65 405.595 100.9 406.662 100.9ZM426.363 108V70.9H435.863V108H426.363ZM456.236 108.45C453.036 108.45 450.236 107.85 447.836 106.65C445.47 105.417 443.62 103.75 442.286 101.65C440.986 99.5167 440.336 97.1 440.336 94.4C440.336 91.7 440.97 89.3 442.236 87.2C443.536 85.0667 445.32 83.4167 447.586 82.25C449.853 81.05 452.403 80.45 455.236 80.45C457.903 80.45 460.336 81 462.536 82.1C464.736 83.1667 466.486 84.75 467.786 86.85C469.086 88.95 469.736 91.5 469.736 94.5C469.736 94.8333 469.72 95.2167 469.686 95.65C469.653 96.0833 469.62 96.4833 469.586 96.85H448.136V91.85H464.536L460.936 93.25C460.97 92.0167 460.736 90.95 460.236 90.05C459.77 89.15 459.103 88.45 458.236 87.95C457.403 87.45 456.42 87.2 455.286 87.2C454.153 87.2 453.153 87.45 452.286 87.95C451.453 88.45 450.803 89.1667 450.336 90.1C449.87 91 449.636 92.0667 449.636 93.3V94.75C449.636 96.0833 449.903 97.2333 450.436 98.2C451.003 99.1667 451.803 99.9167 452.836 100.45C453.87 100.95 455.103 101.2 456.536 101.2C457.87 101.2 459.003 101.017 459.936 100.65C460.903 100.25 461.853 99.65 462.786 98.85L467.786 104.05C466.486 105.483 464.886 106.583 462.986 107.35C461.086 108.083 458.836 108.45 456.236 108.45ZM483.966 108.45C481.666 108.45 479.416 108.183 477.216 107.65C475.05 107.117 473.3 106.45 471.966 105.65L474.816 99.15C476.083 99.9167 477.566 100.533 479.266 101C480.966 101.433 482.633 101.65 484.266 101.65C485.866 101.65 486.966 101.483 487.566 101.15C488.2 100.817 488.516 100.367 488.516 99.8C488.516 99.2667 488.216 98.8833 487.616 98.65C487.05 98.3833 486.283 98.1833 485.316 98.05C484.383 97.9167 483.35 97.7667 482.216 97.6C481.083 97.4333 479.933 97.2167 478.766 96.95C477.633 96.65 476.583 96.2167 475.616 95.65C474.683 95.05 473.933 94.25 473.366 93.25C472.8 92.25 472.516 90.9833 472.516 89.45C472.516 87.7167 473.016 86.1833 474.016 84.85C475.05 83.4833 476.55 82.4167 478.516 81.65C480.483 80.85 482.883 80.45 485.716 80.45C487.616 80.45 489.533 80.65 491.466 81.05C493.433 81.4167 495.083 81.9833 496.416 82.75L493.566 89.2C492.233 88.4333 490.9 87.9167 489.566 87.65C488.233 87.35 486.966 87.2 485.766 87.2C484.166 87.2 483.033 87.3833 482.366 87.75C481.733 88.1167 481.416 88.5667 481.416 89.1C481.416 89.6333 481.7 90.05 482.266 90.35C482.833 90.6167 483.583 90.8333 484.516 91C485.483 91.1333 486.533 91.2833 487.666 91.45C488.8 91.5833 489.933 91.8 491.066 92.1C492.233 92.4 493.283 92.85 494.216 93.45C495.183 94.0167 495.95 94.8 496.516 95.8C497.083 96.7667 497.366 98.0167 497.366 99.55C497.366 101.217 496.85 102.717 495.816 104.05C494.816 105.383 493.316 106.45 491.316 107.25C489.35 108.05 486.9 108.45 483.966 108.45Z" fill="#112442"/>
<path d="M515.919 327.636C515.919 331.205 515.243 334.241 513.89 336.745C512.547 339.249 510.715 341.161 508.392 342.482C506.081 343.792 503.481 344.447 500.594 344.447C497.686 344.447 495.076 343.787 492.764 342.466C490.452 341.145 488.625 339.233 487.283 336.729C485.94 334.225 485.269 331.195 485.269 327.636C485.269 324.067 485.94 321.031 487.283 318.528C488.625 316.024 490.452 314.117 492.764 312.807C495.076 311.486 497.686 310.825 500.594 310.825C503.481 310.825 506.081 311.486 508.392 312.807C510.715 314.117 512.547 316.024 513.89 318.528C515.243 321.031 515.919 324.067 515.919 327.636ZM508.904 327.636C508.904 325.325 508.558 323.375 507.865 321.788C507.183 320.2 506.219 318.996 504.973 318.176C503.726 317.356 502.267 316.946 500.594 316.946C498.922 316.946 497.462 317.356 496.216 318.176C494.969 318.996 494 320.2 493.307 321.788C492.625 323.375 492.284 325.325 492.284 327.636C492.284 329.948 492.625 331.898 493.307 333.485C494 335.072 494.969 336.276 496.216 337.097C497.462 337.917 498.922 338.327 500.594 338.327C502.267 338.327 503.726 337.917 504.973 337.097C506.219 336.276 507.183 335.072 507.865 333.485C508.558 331.898 508.904 329.948 508.904 327.636ZM520.917 344V319.455H527.517V323.737H527.772C528.22 322.214 528.971 321.063 530.025 320.286C531.08 319.497 532.295 319.103 533.669 319.103C534.01 319.103 534.377 319.124 534.772 319.167C535.166 319.21 535.512 319.268 535.81 319.343V325.383C535.491 325.287 535.049 325.202 534.484 325.127C533.919 325.053 533.403 325.016 532.934 325.016C531.932 325.016 531.038 325.234 530.249 325.671C529.472 326.097 528.854 326.694 528.396 327.461C527.948 328.228 527.724 329.112 527.724 330.113V344H520.917ZM549.246 353.716C547.04 353.716 545.149 353.412 543.573 352.805C542.007 352.208 540.76 351.393 539.833 350.36C538.906 349.327 538.305 348.165 538.028 346.876L544.324 346.029C544.515 346.52 544.819 346.978 545.235 347.404C545.65 347.83 546.199 348.171 546.881 348.426C547.573 348.693 548.415 348.826 549.405 348.826C550.886 348.826 552.106 348.464 553.065 347.739C554.034 347.026 554.519 345.827 554.519 344.144V339.653H554.231C553.933 340.335 553.486 340.98 552.889 341.587C552.292 342.194 551.525 342.69 550.588 343.073C549.65 343.457 548.532 343.648 547.232 343.648C545.389 343.648 543.711 343.222 542.198 342.37C540.696 341.507 539.498 340.191 538.603 338.423C537.719 336.644 537.276 334.396 537.276 331.679C537.276 328.899 537.729 326.576 538.635 324.712C539.54 322.848 540.744 321.452 542.246 320.525C543.759 319.598 545.416 319.135 547.216 319.135C548.59 319.135 549.741 319.369 550.668 319.838C551.595 320.296 552.34 320.871 552.905 321.564C553.48 322.246 553.922 322.917 554.231 323.577H554.487V319.455H561.247V344.24C561.247 346.328 560.735 348.075 559.713 349.481C558.69 350.887 557.273 351.942 555.462 352.645C553.661 353.359 551.589 353.716 549.246 353.716ZM549.389 338.535C550.487 338.535 551.414 338.263 552.17 337.72C552.937 337.166 553.523 336.377 553.928 335.355C554.343 334.321 554.551 333.086 554.551 331.647C554.551 330.209 554.349 328.963 553.944 327.908C553.539 326.843 552.953 326.017 552.186 325.431C551.419 324.845 550.487 324.552 549.389 324.552C548.271 324.552 547.328 324.856 546.561 325.463C545.794 326.06 545.213 326.891 544.819 327.956C544.425 329.021 544.228 330.252 544.228 331.647C544.228 333.064 544.425 334.289 544.819 335.323C545.224 336.346 545.805 337.139 546.561 337.704C547.328 338.258 548.271 338.535 549.389 338.535ZM573.663 344.463C572.097 344.463 570.702 344.192 569.476 343.648C568.251 343.094 567.282 342.279 566.568 341.203C565.865 340.117 565.513 338.764 565.513 337.145C565.513 335.781 565.764 334.636 566.264 333.709C566.765 332.782 567.447 332.036 568.31 331.472C569.173 330.907 570.153 330.481 571.25 330.193C572.358 329.906 573.519 329.703 574.734 329.586C576.161 329.437 577.312 329.298 578.186 329.17C579.059 329.032 579.693 328.83 580.087 328.563C580.481 328.297 580.678 327.903 580.678 327.381V327.285C580.678 326.273 580.359 325.49 579.72 324.936C579.091 324.382 578.196 324.105 577.035 324.105C575.81 324.105 574.835 324.376 574.111 324.92C573.386 325.452 572.907 326.124 572.672 326.933L566.376 326.422C566.696 324.93 567.324 323.641 568.262 322.555C569.199 321.457 570.409 320.616 571.889 320.03C573.381 319.433 575.107 319.135 577.067 319.135C578.431 319.135 579.736 319.295 580.982 319.614C582.239 319.934 583.352 320.429 584.322 321.1C585.302 321.772 586.074 322.635 586.639 323.689C587.204 324.733 587.486 325.985 587.486 327.445V344H581.03V340.596H580.838C580.444 341.363 579.917 342.04 579.256 342.626C578.596 343.201 577.802 343.654 576.875 343.984C575.948 344.304 574.878 344.463 573.663 344.463ZM575.613 339.765C576.614 339.765 577.498 339.568 578.265 339.174C579.032 338.769 579.634 338.226 580.071 337.544C580.508 336.862 580.726 336.09 580.726 335.227V332.622C580.513 332.761 580.22 332.888 579.847 333.006C579.485 333.112 579.075 333.213 578.617 333.309C578.159 333.395 577.701 333.474 577.243 333.549C576.785 333.613 576.369 333.672 575.996 333.725C575.197 333.842 574.499 334.028 573.903 334.284C573.306 334.54 572.843 334.886 572.513 335.323C572.182 335.749 572.017 336.282 572.017 336.921C572.017 337.848 572.353 338.556 573.024 339.046C573.706 339.526 574.569 339.765 575.613 339.765ZM599.575 329.81V344H592.767V319.455H599.255V323.785H599.543C600.086 322.358 600.997 321.228 602.276 320.397C603.554 319.556 605.104 319.135 606.926 319.135C608.63 319.135 610.116 319.508 611.384 320.254C612.652 320.999 613.637 322.065 614.341 323.45C615.044 324.824 615.395 326.464 615.395 328.371V344H608.588V329.586C608.598 328.084 608.215 326.912 607.437 326.07C606.659 325.218 605.589 324.792 604.225 324.792C603.309 324.792 602.499 324.989 601.796 325.383C601.104 325.777 600.56 326.353 600.166 327.109C599.783 327.855 599.586 328.755 599.575 329.81ZM620.761 344V319.455H627.568V344H620.761ZM624.18 316.29C623.168 316.29 622.3 315.955 621.576 315.284C620.862 314.602 620.505 313.787 620.505 312.839C620.505 311.901 620.862 311.097 621.576 310.426C622.3 309.744 623.168 309.403 624.18 309.403C625.192 309.403 626.055 309.744 626.769 310.426C627.494 311.097 627.856 311.901 627.856 312.839C627.856 313.787 627.494 314.602 626.769 315.284C626.055 315.955 625.192 316.29 624.18 316.29ZM632.893 344V339.941L644.911 325.064V324.888H633.309V319.455H653.108V323.881L641.826 338.391V338.567H653.524V344H632.893ZM665.729 344.463C664.163 344.463 662.767 344.192 661.542 343.648C660.317 343.094 659.347 342.279 658.633 341.203C657.93 340.117 657.579 338.764 657.579 337.145C657.579 335.781 657.829 334.636 658.33 333.709C658.831 332.782 659.512 332.036 660.375 331.472C661.238 330.907 662.218 330.481 663.316 330.193C664.424 329.906 665.585 329.703 666.799 329.586C668.227 329.437 669.377 329.298 670.251 329.17C671.125 329.032 671.758 328.83 672.153 328.563C672.547 328.297 672.744 327.903 672.744 327.381V327.285C672.744 326.273 672.424 325.49 671.785 324.936C671.157 324.382 670.262 324.105 669.1 324.105C667.875 324.105 666.9 324.376 666.176 324.92C665.452 325.452 664.972 326.124 664.738 326.933L658.442 326.422C658.761 324.93 659.39 323.641 660.327 322.555C661.265 321.457 662.474 320.616 663.955 320.03C665.446 319.433 667.172 319.135 669.132 319.135C670.496 319.135 671.801 319.295 673.047 319.614C674.305 319.934 675.418 320.429 676.387 321.1C677.367 321.772 678.14 322.635 678.704 323.689C679.269 324.733 679.551 325.985 679.551 327.445V344H673.095V340.596H672.904C672.509 341.363 671.982 342.04 671.322 342.626C670.661 343.201 669.867 343.654 668.941 343.984C668.014 344.304 666.943 344.463 665.729 344.463ZM667.678 339.765C668.68 339.765 669.564 339.568 670.331 339.174C671.098 338.769 671.7 338.226 672.137 337.544C672.573 336.862 672.792 336.09 672.792 335.227V332.622C672.579 332.761 672.286 332.888 671.913 333.006C671.551 333.112 671.141 333.213 670.682 333.309C670.224 333.395 669.766 333.474 669.308 333.549C668.85 333.613 668.435 333.672 668.062 333.725C667.263 333.842 666.565 334.028 665.968 334.284C665.372 334.54 664.908 334.886 664.578 335.323C664.248 335.749 664.083 336.282 664.083 336.921C664.083 337.848 664.418 338.556 665.089 339.046C665.771 339.526 666.634 339.765 667.678 339.765ZM697.889 319.455V324.568H683.107V319.455H697.889ZM686.463 313.574H693.27V336.457C693.27 337.086 693.366 337.576 693.558 337.928C693.75 338.268 694.016 338.508 694.357 338.647C694.709 338.785 695.113 338.854 695.571 338.854C695.891 338.854 696.211 338.828 696.53 338.775C696.85 338.711 697.095 338.663 697.265 338.631L698.336 343.696C697.995 343.803 697.516 343.925 696.898 344.064C696.28 344.213 695.529 344.304 694.645 344.336C693.004 344.4 691.566 344.181 690.33 343.68C689.105 343.18 688.151 342.402 687.47 341.347C686.788 340.293 686.452 338.961 686.463 337.352V313.574ZM702.323 344V319.455H709.131V344H702.323ZM705.743 316.29C704.731 316.29 703.862 315.955 703.138 315.284C702.424 314.602 702.067 313.787 702.067 312.839C702.067 311.901 702.424 311.097 703.138 310.426C703.862 309.744 704.731 309.403 705.743 309.403C706.755 309.403 707.618 309.744 708.332 310.426C709.056 311.097 709.418 311.901 709.418 312.839C709.418 313.787 709.056 314.602 708.332 315.284C707.618 315.955 706.755 316.29 705.743 316.29ZM725.674 344.479C723.192 344.479 721.045 343.952 719.234 342.897C717.434 341.832 716.043 340.351 715.063 338.455C714.083 336.548 713.593 334.337 713.593 331.823C713.593 329.288 714.083 327.072 715.063 325.175C716.043 323.268 717.434 321.788 719.234 320.733C721.045 319.668 723.192 319.135 725.674 319.135C728.156 319.135 730.298 319.668 732.098 320.733C733.909 321.788 735.305 323.268 736.285 325.175C737.265 327.072 737.755 329.288 737.755 331.823C737.755 334.337 737.265 336.548 736.285 338.455C735.305 340.351 733.909 341.832 732.098 342.897C730.298 343.952 728.156 344.479 725.674 344.479ZM725.706 339.206C726.835 339.206 727.778 338.886 728.534 338.247C729.291 337.597 729.861 336.713 730.244 335.594C730.638 334.476 730.836 333.203 730.836 331.775C730.836 330.348 730.638 329.075 730.244 327.956C729.861 326.837 729.291 325.953 728.534 325.303C727.778 324.653 726.835 324.328 725.706 324.328C724.566 324.328 723.607 324.653 722.83 325.303C722.063 325.953 721.482 326.837 721.088 327.956C720.704 329.075 720.512 330.348 720.512 331.775C720.512 333.203 720.704 334.476 721.088 335.594C721.482 336.713 722.063 337.597 722.83 338.247C723.607 338.886 724.566 339.206 725.706 339.206ZM748.989 329.81V344H742.181V319.455H748.669V323.785H748.957C749.5 322.358 750.411 321.228 751.69 320.397C752.968 319.556 754.518 319.135 756.34 319.135C758.044 319.135 759.531 319.508 760.798 320.254C762.066 320.999 763.051 322.065 763.755 323.45C764.458 324.824 764.809 326.464 764.809 328.371V344H758.002V329.586C758.012 328.084 757.629 326.912 756.851 326.07C756.074 325.218 755.003 324.792 753.639 324.792C752.723 324.792 751.913 324.989 751.21 325.383C750.518 325.777 749.974 326.353 749.58 327.109C749.197 327.855 749 328.755 748.989 329.81Z" fill="#112442"/>
<path d="M126.764 311.273V344H119.844V311.273H126.764ZM139.136 329.81V344H132.329V319.455H138.817V323.785H139.104C139.648 322.358 140.559 321.228 141.837 320.397C143.116 319.556 144.666 319.135 146.487 319.135C148.192 319.135 149.678 319.508 150.946 320.254C152.214 320.999 153.199 322.065 153.902 323.45C154.605 324.824 154.957 326.464 154.957 328.371V344H148.149V329.586C148.16 328.084 147.776 326.912 146.999 326.07C146.221 325.218 145.15 324.792 143.787 324.792C142.87 324.792 142.061 324.989 141.358 325.383C140.665 325.777 140.122 326.353 139.728 327.109C139.344 327.855 139.147 328.755 139.136 329.81ZM169.367 344.4C167.502 344.4 165.814 343.92 164.301 342.961C162.799 341.992 161.606 340.57 160.722 338.695C159.848 336.809 159.411 334.497 159.411 331.759C159.411 328.947 159.864 326.608 160.77 324.744C161.675 322.869 162.879 321.468 164.381 320.541C165.894 319.604 167.55 319.135 169.351 319.135C170.725 319.135 171.87 319.369 172.787 319.838C173.713 320.296 174.459 320.871 175.024 321.564C175.599 322.246 176.036 322.917 176.334 323.577H176.542V311.273H183.333V344H176.622V340.069H176.334C176.015 340.751 175.562 341.427 174.976 342.098C174.401 342.759 173.65 343.308 172.723 343.744C171.806 344.181 170.688 344.4 169.367 344.4ZM171.524 338.982C172.621 338.982 173.548 338.684 174.305 338.087C175.072 337.48 175.658 336.633 176.062 335.547C176.478 334.46 176.686 333.187 176.686 331.727C176.686 330.268 176.483 329 176.078 327.924C175.674 326.848 175.088 326.017 174.321 325.431C173.554 324.845 172.621 324.552 171.524 324.552C170.406 324.552 169.463 324.856 168.696 325.463C167.929 326.07 167.348 326.912 166.954 327.988C166.56 329.064 166.363 330.31 166.363 331.727C166.363 333.155 166.56 334.417 166.954 335.515C167.359 336.601 167.939 337.453 168.696 338.071C169.463 338.679 170.406 338.982 171.524 338.982ZM188.93 344V319.455H195.738V344H188.93ZM192.35 316.29C191.338 316.29 190.47 315.955 189.745 315.284C189.032 314.602 188.675 313.787 188.675 312.839C188.675 311.901 189.032 311.097 189.745 310.426C190.47 309.744 191.338 309.403 192.35 309.403C193.362 309.403 194.225 309.744 194.939 310.426C195.663 311.097 196.026 311.901 196.026 312.839C196.026 313.787 195.663 314.602 194.939 315.284C194.225 315.955 193.362 316.29 192.35 316.29ZM224.075 319.455L215.493 344H207.823L199.242 319.455H206.433L211.53 337.017H211.786L216.868 319.455H224.075ZM227.558 344V319.455H234.366V344H227.558ZM230.978 316.29C229.966 316.29 229.098 315.955 228.373 315.284C227.66 314.602 227.303 313.787 227.303 312.839C227.303 311.901 227.66 311.097 228.373 310.426C229.098 309.744 229.966 309.403 230.978 309.403C231.99 309.403 232.853 309.744 233.567 310.426C234.291 311.097 234.654 311.901 234.654 312.839C234.654 313.787 234.291 314.602 233.567 315.284C232.853 315.955 231.99 316.29 230.978 316.29ZM248.864 344.4C247 344.4 245.311 343.92 243.798 342.961C242.296 341.992 241.103 340.57 240.219 338.695C239.345 336.809 238.908 334.497 238.908 331.759C238.908 328.947 239.361 326.608 240.267 324.744C241.172 322.869 242.376 321.468 243.878 320.541C245.391 319.604 247.047 319.135 248.848 319.135C250.222 319.135 251.367 319.369 252.284 319.838C253.21 320.296 253.956 320.871 254.521 321.564C255.096 322.246 255.533 322.917 255.831 323.577H256.039V311.273H262.831V344H256.119V340.069H255.831C255.512 340.751 255.059 341.427 254.473 342.098C253.898 342.759 253.147 343.308 252.22 343.744C251.304 344.181 250.185 344.4 248.864 344.4ZM251.021 338.982C252.119 338.982 253.045 338.684 253.802 338.087C254.569 337.48 255.155 336.633 255.56 335.547C255.975 334.46 256.183 333.187 256.183 331.727C256.183 330.268 255.98 329 255.576 327.924C255.171 326.848 254.585 326.017 253.818 325.431C253.051 324.845 252.119 324.552 251.021 324.552C249.903 324.552 248.96 324.856 248.193 325.463C247.426 326.07 246.845 326.912 246.451 327.988C246.057 329.064 245.86 330.31 245.86 331.727C245.86 333.155 246.057 334.417 246.451 335.515C246.856 336.601 247.436 337.453 248.193 338.071C248.96 338.679 249.903 338.982 251.021 338.982ZM284.168 333.549V319.455H290.975V344H284.44V339.542H284.184C283.63 340.98 282.708 342.136 281.419 343.009C280.141 343.883 278.58 344.32 276.737 344.32C275.097 344.32 273.653 343.947 272.407 343.201C271.16 342.455 270.185 341.395 269.482 340.021C268.79 338.647 268.438 337.001 268.428 335.083V319.455H275.235V333.869C275.246 335.317 275.635 336.463 276.402 337.304C277.169 338.146 278.197 338.567 279.486 338.567C280.306 338.567 281.073 338.38 281.787 338.007C282.501 337.624 283.076 337.059 283.513 336.314C283.96 335.568 284.179 334.646 284.168 333.549ZM303.42 344.463C301.854 344.463 300.458 344.192 299.233 343.648C298.008 343.094 297.039 342.279 296.325 341.203C295.622 340.117 295.27 338.764 295.27 337.145C295.27 335.781 295.521 334.636 296.021 333.709C296.522 332.782 297.204 332.036 298.067 331.472C298.93 330.907 299.91 330.481 301.007 330.193C302.115 329.906 303.276 329.703 304.491 329.586C305.918 329.437 307.069 329.298 307.942 329.17C308.816 329.032 309.45 328.83 309.844 328.563C310.238 328.297 310.435 327.903 310.435 327.381V327.285C310.435 326.273 310.116 325.49 309.476 324.936C308.848 324.382 307.953 324.105 306.792 324.105C305.567 324.105 304.592 324.376 303.867 324.92C303.143 325.452 302.664 326.124 302.429 326.933L296.133 326.422C296.453 324.93 297.081 323.641 298.019 322.555C298.956 321.457 300.165 320.616 301.646 320.03C303.138 319.433 304.864 319.135 306.824 319.135C308.187 319.135 309.492 319.295 310.739 319.614C311.996 319.934 313.109 320.429 314.079 321.1C315.059 321.772 315.831 322.635 316.396 323.689C316.96 324.733 317.243 325.985 317.243 327.445V344H310.787V340.596H310.595C310.201 341.363 309.674 342.04 309.013 342.626C308.353 343.201 307.559 343.654 306.632 343.984C305.705 344.304 304.634 344.463 303.42 344.463ZM305.37 339.765C306.371 339.765 307.255 339.568 308.022 339.174C308.789 338.769 309.391 338.226 309.828 337.544C310.265 336.862 310.483 336.09 310.483 335.227V332.622C310.27 332.761 309.977 332.888 309.604 333.006C309.242 333.112 308.832 333.213 308.374 333.309C307.916 333.395 307.458 333.474 307 333.549C306.541 333.613 306.126 333.672 305.753 333.725C304.954 333.842 304.256 334.028 303.66 334.284C303.063 334.54 302.6 334.886 302.269 335.323C301.939 335.749 301.774 336.282 301.774 336.921C301.774 337.848 302.11 338.556 302.781 339.046C303.463 339.526 304.326 339.765 305.37 339.765ZM329.332 311.273V344H322.524V311.273H329.332Z" fill="#112442"/>
<path d="M117.08 406.136C116.653 406.136 116.274 406.101 115.94 406.03C115.606 405.966 115.375 405.902 115.247 405.838L115.886 403.622C116.497 403.778 117.037 403.835 117.506 403.793C117.975 403.75 118.39 403.54 118.752 403.164C119.122 402.795 119.459 402.195 119.764 401.364L120.233 400.085L114.182 383.636H116.909L121.426 396.676H121.597L126.114 383.636H128.841L121.895 402.386C121.582 403.232 121.195 403.931 120.734 404.485C120.272 405.046 119.736 405.462 119.125 405.732C118.521 406.001 117.84 406.136 117.08 406.136ZM138.221 400.341C136.744 400.341 135.448 399.989 134.333 399.286C133.225 398.583 132.358 397.599 131.733 396.335C131.116 395.071 130.807 393.594 130.807 391.903C130.807 390.199 131.116 388.711 131.733 387.44C132.358 386.168 133.225 385.181 134.333 384.478C135.448 383.775 136.744 383.423 138.221 383.423C139.699 383.423 140.991 383.775 142.099 384.478C143.214 385.181 144.081 386.168 144.699 387.44C145.324 388.711 145.636 390.199 145.636 391.903C145.636 393.594 145.324 395.071 144.699 396.335C144.081 397.599 143.214 398.583 142.099 399.286C140.991 399.989 139.699 400.341 138.221 400.341ZM138.221 398.082C139.343 398.082 140.267 397.795 140.991 397.219C141.716 396.644 142.252 395.888 142.6 394.95C142.948 394.013 143.122 392.997 143.122 391.903C143.122 390.81 142.948 389.79 142.6 388.846C142.252 387.901 141.716 387.138 140.991 386.555C140.267 385.973 139.343 385.682 138.221 385.682C137.099 385.682 136.176 385.973 135.451 386.555C134.727 387.138 134.191 387.901 133.843 388.846C133.495 389.79 133.321 390.81 133.321 391.903C133.321 392.997 133.495 394.013 133.843 394.95C134.191 395.888 134.727 396.644 135.451 397.219C136.176 397.795 137.099 398.082 138.221 398.082ZM159.786 393.31V383.636H162.301V400H159.786V397.23H159.616C159.233 398.061 158.636 398.768 157.826 399.35C157.017 399.925 155.994 400.213 154.758 400.213C153.735 400.213 152.826 399.989 152.031 399.542C151.235 399.087 150.61 398.406 150.156 397.496C149.701 396.58 149.474 395.426 149.474 394.034V383.636H151.988V393.864C151.988 395.057 152.322 396.009 152.99 396.719C153.664 397.429 154.524 397.784 155.568 397.784C156.193 397.784 156.828 397.624 157.475 397.305C158.128 396.985 158.675 396.495 159.115 395.835C159.563 395.174 159.786 394.332 159.786 393.31ZM181.991 400.341C180.457 400.341 179.136 399.979 178.028 399.254C176.92 398.53 176.068 397.532 175.471 396.261C174.874 394.989 174.576 393.537 174.576 391.903C174.576 390.241 174.881 388.775 175.492 387.504C176.11 386.225 176.97 385.227 178.07 384.51C179.178 383.786 180.471 383.423 181.948 383.423C183.099 383.423 184.136 383.636 185.059 384.062C185.982 384.489 186.739 385.085 187.328 385.852C187.918 386.619 188.283 387.514 188.426 388.537H185.911C185.72 387.791 185.293 387.131 184.633 386.555C183.979 385.973 183.099 385.682 181.991 385.682C181.011 385.682 180.151 385.937 179.413 386.449C178.681 386.953 178.109 387.667 177.698 388.59C177.293 389.506 177.09 390.582 177.09 391.818C177.09 393.082 177.289 394.183 177.687 395.121C178.092 396.058 178.66 396.786 179.391 397.305C180.13 397.823 180.997 398.082 181.991 398.082C182.644 398.082 183.237 397.969 183.77 397.741C184.303 397.514 184.754 397.188 185.123 396.761C185.492 396.335 185.755 395.824 185.911 395.227H188.426C188.283 396.193 187.932 397.063 187.371 397.837C186.817 398.604 186.082 399.215 185.166 399.67C184.256 400.117 183.198 400.341 181.991 400.341ZM196.916 400.384C195.879 400.384 194.938 400.188 194.093 399.798C193.248 399.4 192.577 398.828 192.08 398.082C191.582 397.33 191.334 396.42 191.334 395.355C191.334 394.418 191.519 393.658 191.888 393.075C192.257 392.486 192.751 392.024 193.369 391.69C193.987 391.357 194.668 391.108 195.414 390.945C196.167 390.774 196.923 390.639 197.683 390.54C198.678 390.412 199.484 390.316 200.102 390.252C200.727 390.181 201.181 390.064 201.465 389.901C201.756 389.737 201.902 389.453 201.902 389.048V388.963C201.902 387.912 201.614 387.095 201.039 386.513C200.471 385.93 199.608 385.639 198.45 385.639C197.25 385.639 196.309 385.902 195.627 386.428C194.945 386.953 194.466 387.514 194.189 388.111L191.803 387.259C192.229 386.264 192.797 385.49 193.507 384.936C194.225 384.375 195.006 383.984 195.851 383.764C196.703 383.537 197.541 383.423 198.365 383.423C198.891 383.423 199.494 383.487 200.176 383.615C200.865 383.736 201.529 383.988 202.168 384.371C202.815 384.755 203.351 385.334 203.777 386.108C204.203 386.882 204.416 387.919 204.416 389.219V400H201.902V397.784H201.774C201.604 398.139 201.32 398.519 200.922 398.924C200.524 399.329 199.995 399.673 199.335 399.957C198.674 400.241 197.868 400.384 196.916 400.384ZM197.3 398.125C198.294 398.125 199.132 397.93 199.814 397.539C200.503 397.148 201.021 396.644 201.369 396.026C201.725 395.408 201.902 394.759 201.902 394.077V391.776C201.796 391.903 201.561 392.021 201.199 392.127C200.844 392.227 200.432 392.315 199.963 392.393C199.502 392.464 199.051 392.528 198.61 392.585C198.177 392.635 197.825 392.678 197.555 392.713C196.902 392.798 196.291 392.937 195.723 393.129C195.162 393.313 194.707 393.594 194.359 393.97C194.019 394.339 193.848 394.844 193.848 395.483C193.848 396.357 194.171 397.017 194.818 397.464C195.471 397.905 196.298 398.125 197.3 398.125ZM211.519 390.156V400H209.005V383.636H211.434V386.193H211.647C212.031 385.362 212.613 384.695 213.394 384.19C214.176 383.679 215.184 383.423 216.42 383.423C217.528 383.423 218.497 383.651 219.328 384.105C220.159 384.553 220.806 385.234 221.267 386.151C221.729 387.06 221.96 388.21 221.96 389.602V400H219.446V389.773C219.446 388.487 219.112 387.486 218.444 386.768C217.777 386.044 216.86 385.682 215.696 385.682C214.893 385.682 214.176 385.856 213.544 386.204C212.919 386.552 212.425 387.06 212.063 387.727C211.701 388.395 211.519 389.205 211.519 390.156ZM235.332 400V378.182H237.847V386.236H238.06C238.244 385.952 238.5 385.589 238.827 385.149C239.161 384.702 239.636 384.304 240.254 383.956C240.879 383.601 241.725 383.423 242.79 383.423C244.168 383.423 245.382 383.768 246.433 384.457C247.484 385.146 248.305 386.122 248.894 387.386C249.484 388.651 249.778 390.142 249.778 391.861C249.778 393.594 249.484 395.096 248.894 396.367C248.305 397.631 247.488 398.612 246.444 399.308C245.4 399.996 244.196 400.341 242.832 400.341C241.781 400.341 240.94 400.167 240.308 399.819C239.676 399.464 239.189 399.062 238.848 398.615C238.507 398.161 238.244 397.784 238.06 397.486H237.761V400H235.332ZM237.804 391.818C237.804 393.054 237.985 394.144 238.347 395.089C238.71 396.026 239.239 396.761 239.935 397.294C240.631 397.82 241.483 398.082 242.492 398.082C243.543 398.082 244.42 397.805 245.123 397.251C245.833 396.69 246.366 395.937 246.721 394.993C247.083 394.041 247.264 392.983 247.264 391.818C247.264 390.668 247.087 389.631 246.732 388.707C246.384 387.777 245.854 387.042 245.144 386.502C244.441 385.955 243.557 385.682 242.492 385.682C241.469 385.682 240.609 385.941 239.913 386.46C239.217 386.971 238.692 387.688 238.337 388.612C237.982 389.528 237.804 390.597 237.804 391.818ZM253.624 400V383.636H256.053V386.108H256.224C256.522 385.298 257.062 384.641 257.843 384.137C258.624 383.633 259.505 383.381 260.485 383.381C260.67 383.381 260.901 383.384 261.178 383.391C261.455 383.398 261.664 383.409 261.806 383.423V385.98C261.721 385.959 261.526 385.927 261.22 385.884C260.922 385.835 260.606 385.81 260.272 385.81C259.477 385.81 258.766 385.977 258.141 386.31C257.524 386.637 257.033 387.092 256.671 387.674C256.316 388.249 256.139 388.906 256.139 389.645V400H253.624ZM270.936 400.341C269.459 400.341 268.163 399.989 267.048 399.286C265.94 398.583 265.073 397.599 264.448 396.335C263.83 395.071 263.521 393.594 263.521 391.903C263.521 390.199 263.83 388.711 264.448 387.44C265.073 386.168 265.94 385.181 267.048 384.478C268.163 383.775 269.459 383.423 270.936 383.423C272.413 383.423 273.706 383.775 274.814 384.478C275.929 385.181 276.796 386.168 277.413 387.44C278.038 388.711 278.351 390.199 278.351 391.903C278.351 393.594 278.038 395.071 277.413 396.335C276.796 397.599 275.929 398.583 274.814 399.286C273.706 399.989 272.413 400.341 270.936 400.341ZM270.936 398.082C272.058 398.082 272.982 397.795 273.706 397.219C274.43 396.644 274.967 395.888 275.315 394.95C275.663 394.013 275.837 392.997 275.837 391.903C275.837 390.81 275.663 389.79 275.315 388.846C274.967 387.901 274.43 387.138 273.706 386.555C272.982 385.973 272.058 385.682 270.936 385.682C269.814 385.682 268.891 385.973 268.166 386.555C267.442 387.138 266.906 387.901 266.558 388.846C266.21 389.79 266.036 390.81 266.036 391.903C266.036 392.997 266.21 394.013 266.558 394.95C266.906 395.888 267.442 396.644 268.166 397.219C268.891 397.795 269.814 398.082 270.936 398.082ZM285.34 400L280.354 383.636H282.996L286.533 396.165H286.703L290.198 383.636H292.882L296.334 396.122H296.504L300.041 383.636H302.683L297.698 400H295.226L291.646 387.429H291.391L287.811 400H285.34ZM317.598 387.301L315.34 387.94C315.198 387.564 314.988 387.198 314.711 386.843C314.441 386.481 314.072 386.183 313.603 385.948C313.134 385.714 312.534 385.597 311.803 385.597C310.801 385.597 309.967 385.827 309.299 386.289C308.639 386.744 308.308 387.322 308.308 388.026C308.308 388.651 308.536 389.144 308.99 389.506C309.445 389.869 310.155 390.17 311.121 390.412L313.55 391.009C315.013 391.364 316.103 391.907 316.82 392.638C317.538 393.363 317.896 394.297 317.896 395.44C317.896 396.378 317.627 397.216 317.087 397.955C316.554 398.693 315.808 399.276 314.85 399.702C313.891 400.128 312.776 400.341 311.504 400.341C309.835 400.341 308.454 399.979 307.36 399.254C306.266 398.53 305.574 397.472 305.283 396.08L307.669 395.483C307.896 396.364 308.326 397.024 308.958 397.464C309.597 397.905 310.432 398.125 311.462 398.125C312.634 398.125 313.564 397.876 314.253 397.379C314.949 396.875 315.297 396.271 315.297 395.568C315.297 395 315.098 394.524 314.7 394.141C314.303 393.75 313.692 393.459 312.868 393.267L310.141 392.628C308.642 392.273 307.541 391.722 306.838 390.977C306.142 390.224 305.794 389.283 305.794 388.153C305.794 387.23 306.053 386.413 306.572 385.703C307.097 384.993 307.811 384.435 308.713 384.031C309.622 383.626 310.652 383.423 311.803 383.423C313.422 383.423 314.693 383.778 315.617 384.489C316.547 385.199 317.207 386.136 317.598 387.301ZM328.542 400.341C326.965 400.341 325.605 399.993 324.462 399.297C323.325 398.594 322.448 397.614 321.83 396.357C321.219 395.092 320.914 393.622 320.914 391.946C320.914 390.27 321.219 388.793 321.83 387.514C322.448 386.229 323.307 385.227 324.408 384.51C325.516 383.786 326.809 383.423 328.286 383.423C329.138 383.423 329.98 383.565 330.811 383.849C331.642 384.134 332.398 384.595 333.08 385.234C333.762 385.866 334.305 386.705 334.71 387.749C335.115 388.793 335.317 390.078 335.317 391.605V392.67H322.704V390.497H332.761C332.761 389.574 332.576 388.75 332.207 388.026C331.844 387.301 331.326 386.729 330.651 386.31C329.984 385.891 329.195 385.682 328.286 385.682C327.285 385.682 326.418 385.93 325.687 386.428C324.962 386.918 324.405 387.557 324.014 388.345C323.623 389.134 323.428 389.979 323.428 390.881V392.33C323.428 393.565 323.641 394.613 324.067 395.472C324.501 396.325 325.101 396.974 325.868 397.422C326.635 397.862 327.526 398.082 328.542 398.082C329.202 398.082 329.799 397.99 330.332 397.805C330.871 397.614 331.337 397.33 331.727 396.953C332.118 396.57 332.42 396.094 332.633 395.526L335.062 396.207C334.806 397.031 334.376 397.756 333.773 398.381C333.169 398.999 332.423 399.482 331.535 399.83C330.648 400.17 329.65 400.341 328.542 400.341ZM97.6731 439.384C96.6362 439.384 95.6951 439.188 94.85 438.798C94.0048 438.4 93.3336 437.828 92.8365 437.082C92.3393 436.33 92.0907 435.42 92.0907 434.355C92.0907 433.418 92.2754 432.658 92.6447 432.075C93.014 431.486 93.5076 431.024 94.1255 430.69C94.7434 430.357 95.4252 430.108 96.171 429.945C96.9238 429.774 97.6802 429.639 98.4402 429.54C99.4345 429.412 100.241 429.316 100.858 429.252C101.483 429.181 101.938 429.064 102.222 428.901C102.513 428.737 102.659 428.453 102.659 428.048V427.963C102.659 426.912 102.371 426.095 101.796 425.513C101.228 424.93 100.365 424.639 99.2072 424.639C98.0069 424.639 97.0659 424.902 96.3841 425.428C95.7022 425.953 95.2228 426.514 94.9458 427.111L92.5595 426.259C92.9856 425.264 93.5538 424.49 94.264 423.936C94.9814 423.375 95.7626 422.984 96.6078 422.764C97.46 422.537 98.2981 422.423 99.122 422.423C99.6475 422.423 100.251 422.487 100.933 422.615C101.622 422.736 102.286 422.988 102.925 423.371C103.572 423.755 104.108 424.334 104.534 425.108C104.96 425.882 105.173 426.919 105.173 428.219V439H102.659V436.784H102.531C102.361 437.139 102.077 437.519 101.679 437.924C101.281 438.329 100.752 438.673 100.091 438.957C99.4309 439.241 98.6248 439.384 97.6731 439.384ZM98.0566 437.125C99.051 437.125 99.889 436.93 100.571 436.539C101.26 436.148 101.778 435.644 102.126 435.026C102.481 434.408 102.659 433.759 102.659 433.077V430.776C102.552 430.903 102.318 431.021 101.956 431.127C101.601 431.227 101.189 431.315 100.72 431.393C100.258 431.464 99.8074 431.528 99.367 431.585C98.9338 431.635 98.5822 431.678 98.3123 431.713C97.6589 431.798 97.0481 431.937 96.4799 432.129C95.9189 432.313 95.4643 432.594 95.1163 432.97C94.7754 433.339 94.6049 433.844 94.6049 434.483C94.6049 435.357 94.9281 436.017 95.5744 436.464C96.2278 436.905 97.0552 437.125 98.0566 437.125ZM112.276 429.156V439H109.762V422.636H112.191V425.193H112.404C112.788 424.362 113.37 423.695 114.151 423.19C114.933 422.679 115.941 422.423 117.177 422.423C118.285 422.423 119.254 422.651 120.085 423.105C120.916 423.553 121.563 424.234 122.024 425.151C122.486 426.06 122.717 427.21 122.717 428.602V439H120.202V428.773C120.202 427.487 119.869 426.486 119.201 425.768C118.533 425.044 117.617 424.682 116.452 424.682C115.65 424.682 114.933 424.856 114.3 425.204C113.675 425.552 113.182 426.06 112.82 426.727C112.457 427.395 112.276 428.205 112.276 429.156ZM133.49 439.341C132.126 439.341 130.922 438.996 129.878 438.308C128.834 437.612 128.018 436.631 127.428 435.367C126.839 434.096 126.544 432.594 126.544 430.861C126.544 429.142 126.839 427.651 127.428 426.386C128.018 425.122 128.838 424.146 129.889 423.457C130.94 422.768 132.155 422.423 133.532 422.423C134.598 422.423 135.439 422.601 136.057 422.956C136.682 423.304 137.158 423.702 137.485 424.149C137.819 424.589 138.078 424.952 138.263 425.236H138.476V417.182H140.99V439H138.561V436.486H138.263C138.078 436.784 137.815 437.161 137.474 437.615C137.133 438.062 136.647 438.464 136.015 438.819C135.383 439.167 134.541 439.341 133.49 439.341ZM133.831 437.082C134.839 437.082 135.692 436.82 136.388 436.294C137.084 435.761 137.613 435.026 137.975 434.089C138.337 433.144 138.518 432.054 138.518 430.818C138.518 429.597 138.341 428.528 137.986 427.612C137.631 426.688 137.105 425.971 136.409 425.46C135.713 424.941 134.854 424.682 133.831 424.682C132.765 424.682 131.878 424.955 131.167 425.502C130.464 426.042 129.935 426.777 129.58 427.707C129.232 428.631 129.058 429.668 129.058 430.818C129.058 431.983 129.236 433.041 129.591 433.993C129.953 434.937 130.486 435.69 131.189 436.251C131.899 436.805 132.78 437.082 133.831 437.082ZM154.381 422.636H156.895V440.193C156.895 441.202 156.721 442.075 156.373 442.814C156.032 443.553 155.514 444.124 154.818 444.529C154.129 444.934 153.259 445.136 152.208 445.136C152.123 445.136 152.037 445.136 151.952 445.136C151.867 445.136 151.782 445.136 151.697 445.136V442.793C151.782 442.793 151.86 442.793 151.931 442.793C152.002 442.793 152.08 442.793 152.165 442.793C152.932 442.793 153.493 442.565 153.849 442.111C154.204 441.663 154.381 441.024 154.381 440.193V422.636ZM155.617 419.909C155.127 419.909 154.704 419.742 154.349 419.408C154.001 419.075 153.827 418.673 153.827 418.205C153.827 417.736 154.001 417.335 154.349 417.001C154.704 416.667 155.127 416.5 155.617 416.5C156.107 416.5 156.526 416.667 156.874 417.001C157.229 417.335 157.407 417.736 157.407 418.205C157.407 418.673 157.229 419.075 156.874 419.408C156.526 419.742 156.107 419.909 155.617 419.909ZM168.148 439.341C166.671 439.341 165.375 438.989 164.26 438.286C163.152 437.583 162.285 436.599 161.66 435.335C161.042 434.071 160.733 432.594 160.733 430.903C160.733 429.199 161.042 427.711 161.66 426.44C162.285 425.168 163.152 424.181 164.26 423.478C165.375 422.775 166.671 422.423 168.148 422.423C169.625 422.423 170.918 422.775 172.026 423.478C173.141 424.181 174.007 425.168 174.625 426.44C175.25 427.711 175.563 429.199 175.563 430.903C175.563 432.594 175.25 434.071 174.625 435.335C174.007 436.599 173.141 437.583 172.026 438.286C170.918 438.989 169.625 439.341 168.148 439.341ZM168.148 437.082C169.27 437.082 170.194 436.795 170.918 436.219C171.642 435.644 172.179 434.888 172.527 433.95C172.875 433.013 173.049 431.997 173.049 430.903C173.049 429.81 172.875 428.79 172.527 427.846C172.179 426.901 171.642 426.138 170.918 425.555C170.194 424.973 169.27 424.682 168.148 424.682C167.026 424.682 166.103 424.973 165.378 425.555C164.654 426.138 164.118 426.901 163.77 427.846C163.422 428.79 163.248 429.81 163.248 430.903C163.248 431.997 163.422 433.013 163.77 433.95C164.118 434.888 164.654 435.644 165.378 436.219C166.103 436.795 167.026 437.082 168.148 437.082ZM179.401 439V422.636H181.915V439H179.401ZM180.679 419.909C180.189 419.909 179.767 419.742 179.411 419.408C179.063 419.075 178.889 418.673 178.889 418.205C178.889 417.736 179.063 417.335 179.411 417.001C179.767 416.667 180.189 416.5 180.679 416.5C181.169 416.5 181.588 416.667 181.936 417.001C182.291 417.335 182.469 417.736 182.469 418.205C182.469 418.673 182.291 419.075 181.936 419.408C181.588 419.742 181.169 419.909 180.679 419.909ZM189.034 429.156V439H186.52V422.636H188.949V425.193H189.162C189.545 424.362 190.128 423.695 190.909 423.19C191.69 422.679 192.699 422.423 193.935 422.423C195.043 422.423 196.012 422.651 196.843 423.105C197.674 423.553 198.32 424.234 198.782 425.151C199.244 426.06 199.474 427.21 199.474 428.602V439H196.96V428.773C196.96 427.487 196.626 426.486 195.959 425.768C195.291 425.044 194.375 424.682 193.21 424.682C192.408 424.682 191.69 424.856 191.058 425.204C190.433 425.552 189.94 426.06 189.577 426.727C189.215 427.395 189.034 428.205 189.034 429.156ZM219.623 422.636V424.767H211.143V422.636H219.623ZM213.614 418.716H216.128V434.312C216.128 435.023 216.231 435.555 216.437 435.911C216.65 436.259 216.92 436.493 217.247 436.614C217.581 436.727 217.932 436.784 218.302 436.784C218.579 436.784 218.806 436.77 218.983 436.741C219.161 436.706 219.303 436.678 219.41 436.656L219.921 438.915C219.751 438.979 219.513 439.043 219.207 439.107C218.902 439.178 218.515 439.213 218.046 439.213C217.336 439.213 216.64 439.06 215.958 438.755C215.283 438.45 214.722 437.984 214.275 437.359C213.834 436.734 213.614 435.946 213.614 434.994V418.716ZM226.27 429.156V439H223.756V417.182H226.27V425.193H226.483C226.867 424.348 227.442 423.677 228.209 423.18C228.983 422.675 230.013 422.423 231.299 422.423C232.414 422.423 233.39 422.647 234.229 423.094C235.067 423.535 235.716 424.213 236.178 425.129C236.647 426.038 236.881 427.196 236.881 428.602V439H234.367V428.773C234.367 427.473 234.03 426.468 233.355 425.758C232.687 425.04 231.76 424.682 230.574 424.682C229.751 424.682 229.012 424.856 228.358 425.204C227.712 425.552 227.201 426.06 226.824 426.727C226.455 427.395 226.27 428.205 226.27 429.156ZM248.342 439.341C246.765 439.341 245.405 438.993 244.261 438.297C243.125 437.594 242.248 436.614 241.63 435.357C241.019 434.092 240.714 432.622 240.714 430.946C240.714 429.27 241.019 427.793 241.63 426.514C242.248 425.229 243.107 424.227 244.208 423.51C245.316 422.786 246.609 422.423 248.086 422.423C248.938 422.423 249.78 422.565 250.611 422.849C251.442 423.134 252.198 423.595 252.88 424.234C253.562 424.866 254.105 425.705 254.51 426.749C254.915 427.793 255.117 429.078 255.117 430.605V431.67H242.504V429.497H252.56C252.56 428.574 252.376 427.75 252.006 427.026C251.644 426.301 251.126 425.729 250.451 425.31C249.783 424.891 248.995 424.682 248.086 424.682C247.085 424.682 246.218 424.93 245.487 425.428C244.762 425.918 244.205 426.557 243.814 427.345C243.423 428.134 243.228 428.979 243.228 429.881V431.33C243.228 432.565 243.441 433.613 243.867 434.472C244.3 435.325 244.901 435.974 245.668 436.422C246.435 436.862 247.326 437.082 248.342 437.082C249.002 437.082 249.599 436.99 250.131 436.805C250.671 436.614 251.136 436.33 251.527 435.953C251.918 435.57 252.219 435.094 252.433 434.526L254.862 435.207C254.606 436.031 254.176 436.756 253.572 437.381C252.969 437.999 252.223 438.482 251.335 438.83C250.447 439.17 249.45 439.341 248.342 439.341ZM274.24 439.341C272.663 439.341 271.303 438.993 270.16 438.297C269.023 437.594 268.146 436.614 267.528 435.357C266.918 434.092 266.612 432.622 266.612 430.946C266.612 429.27 266.918 427.793 267.528 426.514C268.146 425.229 269.006 424.227 270.107 423.51C271.214 422.786 272.507 422.423 273.984 422.423C274.837 422.423 275.678 422.565 276.509 422.849C277.34 423.134 278.097 423.595 278.778 424.234C279.46 424.866 280.004 425.705 280.408 426.749C280.813 427.793 281.016 429.078 281.016 430.605V431.67H268.402V429.497H278.459C278.459 428.574 278.274 427.75 277.905 427.026C277.543 426.301 277.024 425.729 276.349 425.31C275.682 424.891 274.893 424.682 273.984 424.682C272.983 424.682 272.116 424.93 271.385 425.428C270.661 425.918 270.103 426.557 269.712 427.345C269.322 428.134 269.126 428.979 269.126 429.881V431.33C269.126 432.565 269.339 433.613 269.766 434.472C270.199 435.325 270.799 435.974 271.566 436.422C272.333 436.862 273.224 437.082 274.24 437.082C274.901 437.082 275.497 436.99 276.03 436.805C276.57 436.614 277.035 436.33 277.425 435.953C277.816 435.57 278.118 435.094 278.331 434.526L280.76 435.207C280.504 436.031 280.075 436.756 279.471 437.381C278.867 437.999 278.121 438.482 277.234 438.83C276.346 439.17 275.348 439.341 274.24 439.341ZM297.723 422.636L291.672 439H289.115L283.064 422.636H285.791L290.308 435.676H290.479L294.996 422.636H297.723ZM307.316 439.341C305.74 439.341 304.379 438.993 303.236 438.297C302.1 437.594 301.222 436.614 300.605 435.357C299.994 434.092 299.688 432.622 299.688 430.946C299.688 429.27 299.994 427.793 300.605 426.514C301.222 425.229 302.082 424.227 303.183 423.51C304.291 422.786 305.583 422.423 307.061 422.423C307.913 422.423 308.754 422.565 309.585 422.849C310.416 423.134 311.173 423.595 311.855 424.234C312.536 424.866 313.08 425.705 313.485 426.749C313.889 427.793 314.092 429.078 314.092 430.605V431.67H301.478V429.497H311.535C311.535 428.574 311.35 427.75 310.981 427.026C310.619 426.301 310.1 425.729 309.426 425.31C308.758 424.891 307.97 424.682 307.061 424.682C306.059 424.682 305.193 424.93 304.461 425.428C303.737 425.918 303.179 426.557 302.789 427.345C302.398 428.134 302.203 428.979 302.203 429.881V431.33C302.203 432.565 302.416 433.613 302.842 434.472C303.275 435.325 303.875 435.974 304.642 436.422C305.409 436.862 306.301 437.082 307.316 437.082C307.977 437.082 308.573 436.99 309.106 436.805C309.646 436.614 310.111 436.33 310.502 435.953C310.892 435.57 311.194 435.094 311.407 434.526L313.836 435.207C313.58 436.031 313.151 436.756 312.547 437.381C311.943 437.999 311.198 438.482 310.31 438.83C309.422 439.17 308.424 439.341 307.316 439.341ZM320.431 429.156V439H317.916V422.636H320.345V425.193H320.558C320.942 424.362 321.524 423.695 322.306 423.19C323.087 422.679 324.095 422.423 325.331 422.423C326.439 422.423 327.409 422.651 328.24 423.105C329.07 423.553 329.717 424.234 330.178 425.151C330.64 426.06 330.871 427.21 330.871 428.602V439H328.357V428.773C328.357 427.487 328.023 426.486 327.355 425.768C326.688 425.044 325.771 424.682 324.607 424.682C323.804 424.682 323.087 424.856 322.455 425.204C321.83 425.552 321.336 426.06 320.974 426.727C320.612 427.395 320.431 428.205 320.431 429.156ZM342.582 422.636V424.767H334.102V422.636H342.582ZM336.573 418.716H339.087V434.312C339.087 435.023 339.19 435.555 339.396 435.911C339.609 436.259 339.879 436.493 340.206 436.614C340.54 436.727 340.891 436.784 341.261 436.784C341.538 436.784 341.765 436.77 341.942 436.741C342.12 436.706 342.262 436.678 342.369 436.656L342.88 438.915C342.71 438.979 342.472 439.043 342.166 439.107C341.861 439.178 341.474 439.213 341.005 439.213C340.295 439.213 339.599 439.06 338.917 438.755C338.242 438.45 337.681 437.984 337.234 437.359C336.793 436.734 336.573 435.946 336.573 434.994V418.716ZM357.662 426.301L355.403 426.94C355.261 426.564 355.051 426.198 354.775 425.843C354.505 425.481 354.135 425.183 353.667 424.948C353.198 424.714 352.598 424.597 351.866 424.597C350.865 424.597 350.03 424.827 349.363 425.289C348.702 425.744 348.372 426.322 348.372 427.026C348.372 427.651 348.599 428.144 349.054 428.506C349.508 428.869 350.218 429.17 351.184 429.412L353.613 430.009C355.076 430.364 356.167 430.907 356.884 431.638C357.601 432.363 357.96 433.297 357.96 434.44C357.96 435.378 357.69 436.216 357.15 436.955C356.618 437.693 355.872 438.276 354.913 438.702C353.954 439.128 352.839 439.341 351.568 439.341C349.899 439.341 348.517 438.979 347.424 438.254C346.33 437.53 345.637 436.472 345.346 435.08L347.733 434.483C347.96 435.364 348.39 436.024 349.022 436.464C349.661 436.905 350.495 437.125 351.525 437.125C352.697 437.125 353.627 436.876 354.316 436.379C355.012 435.875 355.36 435.271 355.36 434.568C355.36 434 355.162 433.524 354.764 433.141C354.366 432.75 353.755 432.459 352.931 432.267L350.204 431.628C348.706 431.273 347.605 430.722 346.902 429.977C346.206 429.224 345.858 428.283 345.858 427.153C345.858 426.23 346.117 425.413 346.635 424.703C347.161 423.993 347.875 423.435 348.777 423.031C349.686 422.626 350.716 422.423 351.866 422.423C353.485 422.423 354.757 422.778 355.68 423.489C356.61 424.199 357.271 425.136 357.662 426.301ZM118.094 461.636V463.767H109.614V461.636H118.094ZM112.086 457.716H114.6V473.312C114.6 474.023 114.703 474.555 114.909 474.911C115.122 475.259 115.392 475.493 115.719 475.614C116.052 475.727 116.404 475.784 116.773 475.784C117.05 475.784 117.278 475.77 117.455 475.741C117.633 475.706 117.775 475.678 117.881 475.656L118.393 477.915C118.222 477.979 117.984 478.043 117.679 478.107C117.373 478.178 116.986 478.213 116.518 478.213C115.807 478.213 115.111 478.06 114.43 477.755C113.755 477.45 113.194 476.984 112.746 476.359C112.306 475.734 112.086 474.946 112.086 473.994V457.716ZM124.742 468.156V478H122.228V456.182H124.742V464.193H124.955C125.339 463.348 125.914 462.677 126.681 462.18C127.455 461.675 128.485 461.423 129.771 461.423C130.886 461.423 131.862 461.647 132.7 462.094C133.538 462.535 134.188 463.213 134.65 464.129C135.119 465.038 135.353 466.196 135.353 467.602V478H132.839V467.773C132.839 466.473 132.501 465.468 131.827 464.758C131.159 464.04 130.232 463.682 129.046 463.682C128.222 463.682 127.484 463.856 126.83 464.204C126.184 464.552 125.672 465.06 125.296 465.727C124.927 466.395 124.742 467.205 124.742 468.156ZM144.768 478.384C143.731 478.384 142.79 478.188 141.945 477.798C141.1 477.4 140.428 476.828 139.931 476.082C139.434 475.33 139.185 474.42 139.185 473.355C139.185 472.418 139.37 471.658 139.739 471.075C140.109 470.486 140.602 470.024 141.22 469.69C141.838 469.357 142.52 469.108 143.266 468.945C144.019 468.774 144.775 468.639 145.535 468.54C146.529 468.412 147.335 468.316 147.953 468.252C148.578 468.181 149.033 468.064 149.317 467.901C149.608 467.737 149.754 467.453 149.754 467.048V466.963C149.754 465.912 149.466 465.095 148.891 464.513C148.323 463.93 147.46 463.639 146.302 463.639C145.102 463.639 144.161 463.902 143.479 464.428C142.797 464.953 142.318 465.514 142.041 466.111L139.654 465.259C140.08 464.264 140.649 463.49 141.359 462.936C142.076 462.375 142.857 461.984 143.703 461.764C144.555 461.537 145.393 461.423 146.217 461.423C146.742 461.423 147.346 461.487 148.028 461.615C148.717 461.736 149.381 461.988 150.02 462.371C150.666 462.755 151.203 463.334 151.629 464.108C152.055 464.882 152.268 465.919 152.268 467.219V478H149.754V475.784H149.626C149.455 476.139 149.171 476.519 148.774 476.924C148.376 477.329 147.847 477.673 147.186 477.957C146.526 478.241 145.72 478.384 144.768 478.384ZM145.151 476.125C146.146 476.125 146.984 475.93 147.666 475.539C148.354 475.148 148.873 474.644 149.221 474.026C149.576 473.408 149.754 472.759 149.754 472.077V469.776C149.647 469.903 149.413 470.021 149.051 470.127C148.695 470.227 148.283 470.315 147.815 470.393C147.353 470.464 146.902 470.528 146.462 470.585C146.028 470.635 145.677 470.678 145.407 470.713C144.754 470.798 144.143 470.937 143.575 471.129C143.014 471.313 142.559 471.594 142.211 471.97C141.87 472.339 141.7 472.844 141.7 473.483C141.7 474.357 142.023 475.017 142.669 475.464C143.323 475.905 144.15 476.125 145.151 476.125ZM163.973 461.636V463.767H155.493V461.636H163.973ZM157.965 457.716H160.479V473.312C160.479 474.023 160.582 474.555 160.788 474.911C161.001 475.259 161.271 475.493 161.598 475.614C161.931 475.727 162.283 475.784 162.652 475.784C162.929 475.784 163.157 475.77 163.334 475.741C163.512 475.706 163.654 475.678 163.76 475.656L164.272 477.915C164.101 477.979 163.863 478.043 163.558 478.107C163.252 478.178 162.865 478.213 162.397 478.213C161.686 478.213 160.99 478.06 160.309 477.755C159.634 477.45 159.073 476.984 158.625 476.359C158.185 475.734 157.965 474.946 157.965 473.994V457.716ZM176.193 478V461.636H178.707V478H176.193ZM177.471 458.909C176.981 458.909 176.559 458.742 176.203 458.408C175.855 458.075 175.681 457.673 175.681 457.205C175.681 456.736 175.855 456.335 176.203 456.001C176.559 455.667 176.981 455.5 177.471 455.5C177.961 455.5 178.38 455.667 178.728 456.001C179.083 456.335 179.261 456.736 179.261 457.205C179.261 457.673 179.083 458.075 178.728 458.408C178.38 458.742 177.961 458.909 177.471 458.909ZM185.826 468.156V478H183.312V461.636H185.741V464.193H185.954C186.337 463.362 186.92 462.695 187.701 462.19C188.482 461.679 189.491 461.423 190.727 461.423C191.835 461.423 192.804 461.651 193.635 462.105C194.466 462.553 195.112 463.234 195.574 464.151C196.036 465.06 196.266 466.21 196.266 467.602V478H193.752V467.773C193.752 466.487 193.418 465.486 192.751 464.768C192.083 464.044 191.167 463.682 190.002 463.682C189.2 463.682 188.482 463.856 187.85 464.204C187.225 464.552 186.732 465.06 186.369 465.727C186.007 466.395 185.826 467.205 185.826 468.156ZM207.977 461.636V463.767H199.497V461.636H207.977ZM201.969 457.716H204.483V473.312C204.483 474.023 204.586 474.555 204.792 474.911C205.005 475.259 205.275 475.493 205.601 475.614C205.935 475.727 206.287 475.784 206.656 475.784C206.933 475.784 207.16 475.77 207.338 475.741C207.516 475.706 207.658 475.678 207.764 475.656L208.275 477.915C208.105 477.979 207.867 478.043 207.562 478.107C207.256 478.178 206.869 478.213 206.4 478.213C205.69 478.213 204.994 478.06 204.312 477.755C203.638 477.45 203.077 476.984 202.629 476.359C202.189 475.734 201.969 474.946 201.969 473.994V457.716ZM218.444 478.341C216.867 478.341 215.507 477.993 214.364 477.297C213.228 476.594 212.35 475.614 211.733 474.357C211.122 473.092 210.816 471.622 210.816 469.946C210.816 468.27 211.122 466.793 211.733 465.514C212.35 464.229 213.21 463.227 214.311 462.51C215.419 461.786 216.711 461.423 218.188 461.423C219.041 461.423 219.882 461.565 220.713 461.849C221.544 462.134 222.301 462.595 222.983 463.234C223.664 463.866 224.208 464.705 224.612 465.749C225.017 466.793 225.22 468.078 225.22 469.605V470.67H212.606V468.497H222.663C222.663 467.574 222.478 466.75 222.109 466.026C221.747 465.301 221.228 464.729 220.554 464.31C219.886 463.891 219.098 463.682 218.188 463.682C217.187 463.682 216.321 463.93 215.589 464.428C214.865 464.918 214.307 465.557 213.916 466.345C213.526 467.134 213.331 467.979 213.331 468.881V470.33C213.331 471.565 213.544 472.613 213.97 473.472C214.403 474.325 215.003 474.974 215.77 475.422C216.537 475.862 217.429 476.082 218.444 476.082C219.105 476.082 219.701 475.99 220.234 475.805C220.774 475.614 221.239 475.33 221.63 474.953C222.02 474.57 222.322 474.094 222.535 473.526L224.964 474.207C224.708 475.031 224.279 475.756 223.675 476.381C223.071 476.999 222.326 477.482 221.438 477.83C220.55 478.17 219.552 478.341 218.444 478.341ZM229.044 478V461.636H231.473V464.108H231.644C231.942 463.298 232.482 462.641 233.263 462.137C234.044 461.633 234.925 461.381 235.905 461.381C236.09 461.381 236.321 461.384 236.598 461.391C236.875 461.398 237.084 461.409 237.226 461.423V463.98C237.141 463.959 236.946 463.927 236.64 463.884C236.342 463.835 236.026 463.81 235.692 463.81C234.897 463.81 234.186 463.977 233.561 464.31C232.943 464.637 232.453 465.092 232.091 465.674C231.736 466.249 231.559 466.906 231.559 467.645V478H229.044ZM246.569 478.341C244.992 478.341 243.632 477.993 242.489 477.297C241.353 476.594 240.475 475.614 239.858 474.357C239.247 473.092 238.941 471.622 238.941 469.946C238.941 468.27 239.247 466.793 239.858 465.514C240.475 464.229 241.335 463.227 242.436 462.51C243.544 461.786 244.836 461.423 246.313 461.423C247.166 461.423 248.007 461.565 248.838 461.849C249.669 462.134 250.426 462.595 251.108 463.234C251.789 463.866 252.333 464.705 252.737 465.749C253.142 466.793 253.345 468.078 253.345 469.605V470.67H240.731V468.497H250.788C250.788 467.574 250.603 466.75 250.234 466.026C249.872 465.301 249.353 464.729 248.679 464.31C248.011 463.891 247.223 463.682 246.313 463.682C245.312 463.682 244.446 463.93 243.714 464.428C242.99 464.918 242.432 465.557 242.041 466.345C241.651 467.134 241.456 467.979 241.456 468.881V470.33C241.456 471.565 241.669 472.613 242.095 473.472C242.528 474.325 243.128 474.974 243.895 475.422C244.662 475.862 245.554 476.082 246.569 476.082C247.23 476.082 247.826 475.99 248.359 475.805C248.899 475.614 249.364 475.33 249.755 474.953C250.145 474.57 250.447 474.094 250.66 473.526L253.089 474.207C252.833 475.031 252.404 475.756 251.8 476.381C251.196 476.999 250.451 477.482 249.563 477.83C248.675 478.17 247.677 478.341 246.569 478.341ZM268.76 465.301L266.502 465.94C266.36 465.564 266.15 465.198 265.873 464.843C265.603 464.481 265.234 464.183 264.765 463.948C264.296 463.714 263.696 463.597 262.965 463.597C261.963 463.597 261.129 463.827 260.461 464.289C259.801 464.744 259.47 465.322 259.47 466.026C259.47 466.651 259.698 467.144 260.152 467.506C260.607 467.869 261.317 468.17 262.283 468.412L264.712 469.009C266.175 469.364 267.265 469.907 267.983 470.638C268.7 471.363 269.059 472.297 269.059 473.44C269.059 474.378 268.789 475.216 268.249 475.955C267.716 476.693 266.97 477.276 266.012 477.702C265.053 478.128 263.938 478.341 262.666 478.341C260.997 478.341 259.616 477.979 258.522 477.254C257.429 476.53 256.736 475.472 256.445 474.08L258.831 473.483C259.059 474.364 259.488 475.024 260.12 475.464C260.759 475.905 261.594 476.125 262.624 476.125C263.796 476.125 264.726 475.876 265.415 475.379C266.111 474.875 266.459 474.271 266.459 473.568C266.459 473 266.26 472.524 265.862 472.141C265.465 471.75 264.854 471.459 264.03 471.267L261.303 470.628C259.804 470.273 258.703 469.722 258 468.977C257.304 468.224 256.956 467.283 256.956 466.153C256.956 465.23 257.215 464.413 257.734 463.703C258.259 462.993 258.973 462.435 259.875 462.031C260.784 461.626 261.814 461.423 262.965 461.423C264.584 461.423 265.855 461.778 266.779 462.489C267.709 463.199 268.37 464.136 268.76 465.301ZM279.96 461.636V463.767H271.479V461.636H279.96ZM273.951 457.716H276.465V473.312C276.465 474.023 276.568 474.555 276.774 474.911C276.987 475.259 277.257 475.493 277.584 475.614C277.918 475.727 278.269 475.784 278.639 475.784C278.916 475.784 279.143 475.77 279.32 475.741C279.498 475.706 279.64 475.678 279.747 475.656L280.258 477.915C280.087 477.979 279.85 478.043 279.544 478.107C279.239 478.178 278.852 478.213 278.383 478.213C277.673 478.213 276.977 478.06 276.295 477.755C275.62 477.45 275.059 476.984 274.612 476.359C274.171 475.734 273.951 474.946 273.951 473.994V457.716ZM293.798 484.136C293.372 484.136 292.992 484.101 292.658 484.03C292.325 483.966 292.094 483.902 291.966 483.838L292.605 481.622C293.216 481.778 293.756 481.835 294.225 481.793C294.693 481.75 295.109 481.54 295.471 481.164C295.84 480.795 296.178 480.195 296.483 479.364L296.952 478.085L290.901 461.636H293.628L298.145 474.676H298.315L302.832 461.636H305.56L298.614 480.386C298.301 481.232 297.914 481.931 297.453 482.485C296.991 483.046 296.455 483.462 295.844 483.732C295.24 484.001 294.558 484.136 293.798 484.136ZM314.94 478.341C313.463 478.341 312.167 477.989 311.052 477.286C309.944 476.583 309.077 475.599 308.452 474.335C307.834 473.071 307.525 471.594 307.525 469.903C307.525 468.199 307.834 466.711 308.452 465.44C309.077 464.168 309.944 463.181 311.052 462.478C312.167 461.775 313.463 461.423 314.94 461.423C316.417 461.423 317.71 461.775 318.818 462.478C319.933 463.181 320.799 464.168 321.417 465.44C322.042 466.711 322.355 468.199 322.355 469.903C322.355 471.594 322.042 473.071 321.417 474.335C320.799 475.599 319.933 476.583 318.818 477.286C317.71 477.989 316.417 478.341 314.94 478.341ZM314.94 476.082C316.062 476.082 316.986 475.795 317.71 475.219C318.434 474.644 318.971 473.888 319.319 472.95C319.667 472.013 319.841 470.997 319.841 469.903C319.841 468.81 319.667 467.79 319.319 466.846C318.971 465.901 318.434 465.138 317.71 464.555C316.986 463.973 316.062 463.682 314.94 463.682C313.818 463.682 312.895 463.973 312.17 464.555C311.446 465.138 310.91 465.901 310.562 466.846C310.214 467.79 310.04 468.81 310.04 469.903C310.04 470.997 310.214 472.013 310.562 472.95C310.91 473.888 311.446 474.644 312.17 475.219C312.895 475.795 313.818 476.082 314.94 476.082ZM336.505 471.31V461.636H339.019V478H336.505V475.23H336.335C335.951 476.061 335.355 476.768 334.545 477.35C333.735 477.925 332.713 478.213 331.477 478.213C330.454 478.213 329.545 477.989 328.75 477.542C327.954 477.087 327.329 476.406 326.875 475.496C326.42 474.58 326.193 473.426 326.193 472.034V461.636H328.707V471.864C328.707 473.057 329.041 474.009 329.708 474.719C330.383 475.429 331.242 475.784 332.286 475.784C332.911 475.784 333.547 475.624 334.193 475.305C334.847 474.985 335.394 474.495 335.834 473.835C336.282 473.174 336.505 472.332 336.505 471.31Z" fill="#112442"/>
<mask id="mask0_1424_1070" style="mask-type:alpha" maskUnits="userSpaceOnUse" x="180" y="196" width="90" height="90">
<rect x="180" y="196" width="90" height="90" fill="#D9D9D9"/>
</mask>
<g mask="url(#mask0_1424_1070)">
<path d="M225.001 241C220.876 241 217.345 239.531 214.407 236.593C211.47 233.656 210.001 230.125 210.001 226C210.001 221.875 211.47 218.343 214.407 215.406C217.345 212.468 220.876 211 225.001 211C229.126 211 232.657 212.468 235.595 215.406C238.532 218.343 240.001 221.875 240.001 226C240.001 230.125 238.532 233.656 235.595 236.593C232.657 239.531 229.126 241 225.001 241ZM195.001 263.5V260.5C195.001 258.375 195.548 256.421 196.642 254.64C197.735 252.859 199.188 251.5 201.001 250.562C204.876 248.625 208.813 247.171 212.813 246.203C216.813 245.234 220.876 244.75 225.001 244.75C229.126 244.75 233.188 245.234 237.188 246.203C241.188 247.171 245.126 248.625 249.001 250.562C250.813 251.5 252.267 252.859 253.36 254.64C254.454 256.421 255.001 258.375 255.001 260.5V263.5C255.001 265.562 254.267 267.328 252.798 268.796C251.329 270.265 249.563 271 247.501 271H202.501C200.438 271 198.673 270.265 197.204 268.796C195.735 267.328 195.001 265.562 195.001 263.5Z" fill="#112442"/>
</g>
<mask id="mask1_1424_1070" style="mask-type:alpha" maskUnits="userSpaceOnUse" x="581" y="196" width="90" height="90">
<rect x="581" y="196" width="90" height="90" fill="#D9D9D9"/>
</mask>
<g mask="url(#mask1_1424_1070)">
<path d="M584.75 267.25V256C584.75 253.875 585.484 252.094 586.953 250.656C588.422 249.219 590.187 248.5 592.25 248.5H604.531C605.781 248.5 606.969 248.812 608.094 249.438C609.219 250.063 610.125 250.906 610.812 251.969C612.625 254.406 614.859 256.312 617.516 257.687C620.172 259.062 623 259.75 626 259.75C629.062 259.75 631.922 259.062 634.578 257.687C637.234 256.312 639.437 254.406 641.187 251.969C642 250.906 642.953 250.063 644.047 249.438C645.141 248.812 646.281 248.5 647.469 248.5H659.75C661.875 248.5 663.656 249.219 665.094 250.656C666.531 252.094 667.25 253.875 667.25 256V267.25C667.25 268.312 666.891 269.203 666.172 269.922C665.453 270.641 664.562 271 663.5 271H644.75C643.687 271 642.797 270.641 642.078 269.922C641.359 269.203 641 268.312 641 267.25V262.469C638.812 264.031 636.453 265.219 633.922 266.031C631.391 266.844 628.75 267.25 626 267.25C623.312 267.25 620.687 266.828 618.125 265.984C615.563 265.141 613.187 263.937 611 262.375V267.25C611 268.312 610.641 269.203 609.922 269.922C609.203 270.641 608.312 271 607.25 271H588.5C587.437 271 586.547 270.641 585.828 269.922C585.109 269.203 584.75 268.312 584.75 267.25ZM626 256C623.625 256 621.375 255.453 619.25 254.359C617.125 253.266 615.344 251.75 613.906 249.813C612.844 248.25 611.516 247.016 609.922 246.109C608.328 245.203 606.594 244.75 604.719 244.75C606.094 242.437 609 240.609 613.437 239.266C617.875 237.922 622.062 237.25 626 237.25C629.937 237.25 634.125 237.922 638.562 239.266C643 240.609 645.906 242.437 647.281 244.75C645.469 244.75 643.75 245.203 642.125 246.109C640.5 247.016 639.156 248.25 638.094 249.813C636.719 251.813 634.969 253.344 632.844 254.406C630.719 255.469 628.437 256 626 256ZM596 244.75C592.875 244.75 590.219 243.656 588.031 241.469C585.844 239.281 584.75 236.625 584.75 233.5C584.75 230.312 585.844 227.641 588.031 225.484C590.219 223.328 592.875 222.25 596 222.25C599.187 222.25 601.859 223.328 604.016 225.484C606.172 227.641 607.25 230.312 607.25 233.5C607.25 236.625 606.172 239.281 604.016 241.469C601.859 243.656 599.187 244.75 596 244.75ZM656 244.75C652.875 244.75 650.219 243.656 648.031 241.469C645.844 239.281 644.75 236.625 644.75 233.5C644.75 230.312 645.844 227.641 648.031 225.484C650.219 223.328 652.875 222.25 656 222.25C659.187 222.25 661.859 223.328 664.016 225.484C666.172 227.641 667.25 230.312 667.25 233.5C667.25 236.625 666.172 239.281 664.016 241.469C661.859 243.656 659.187 244.75 656 244.75ZM626 233.5C622.875 233.5 620.219 232.406 618.031 230.219C615.844 228.031 614.75 225.375 614.75 222.25C614.75 219.062 615.844 216.391 618.031 214.234C620.219 212.078 622.875 211 626 211C629.187 211 631.859 212.078 634.016 214.234C636.172 216.391 637.25 219.062 637.25 222.25C637.25 225.375 636.172 228.031 634.016 230.219C631.859 232.406 629.187 233.5 626 233.5Z" fill="#112442"/>
</g>
<rect x="62" y="183" width="326" height="332" rx="8" stroke="#596679" stroke-width="4"/>
<rect x="463" y="183" width="326" height="332" rx="8" stroke="#596679" stroke-width="4"/>
<path d="M493.908 406.136C493.482 406.136 493.102 406.101 492.768 406.03C492.434 405.966 492.203 405.902 492.075 405.838L492.715 403.622C493.325 403.778 493.865 403.835 494.334 403.793C494.803 403.75 495.218 403.54 495.58 403.164C495.95 402.795 496.287 402.195 496.592 401.364L497.061 400.085L491.01 383.636H493.737L498.254 396.676H498.425L502.942 383.636H505.669L498.723 402.386C498.411 403.232 498.024 403.931 497.562 404.485C497.1 405.046 496.564 405.462 495.953 405.732C495.35 406.001 494.668 406.136 493.908 406.136ZM515.049 400.341C513.572 400.341 512.276 399.989 511.161 399.286C510.053 398.583 509.187 397.599 508.562 396.335C507.944 395.071 507.635 393.594 507.635 391.903C507.635 390.199 507.944 388.711 508.562 387.44C509.187 386.168 510.053 385.181 511.161 384.478C512.276 383.775 513.572 383.423 515.049 383.423C516.527 383.423 517.819 383.775 518.927 384.478C520.042 385.181 520.909 386.168 521.527 387.44C522.152 388.711 522.464 390.199 522.464 391.903C522.464 393.594 522.152 395.071 521.527 396.335C520.909 397.599 520.042 398.583 518.927 399.286C517.819 399.989 516.527 400.341 515.049 400.341ZM515.049 398.082C516.172 398.082 517.095 397.795 517.819 397.219C518.544 396.644 519.08 395.888 519.428 394.95C519.776 394.013 519.95 392.997 519.95 391.903C519.95 390.81 519.776 389.79 519.428 388.846C519.08 387.901 518.544 387.138 517.819 386.555C517.095 385.973 516.172 385.682 515.049 385.682C513.927 385.682 513.004 385.973 512.28 386.555C511.555 387.138 511.019 387.901 510.671 388.846C510.323 389.79 510.149 390.81 510.149 391.903C510.149 392.997 510.323 394.013 510.671 394.95C511.019 395.888 511.555 396.644 512.28 397.219C513.004 397.795 513.927 398.082 515.049 398.082ZM536.615 393.31V383.636H539.129V400H536.615V397.23H536.444C536.061 398.061 535.464 398.768 534.654 399.35C533.845 399.925 532.822 400.213 531.586 400.213C530.563 400.213 529.654 399.989 528.859 399.542C528.063 399.087 527.438 398.406 526.984 397.496C526.529 396.58 526.302 395.426 526.302 394.034V383.636H528.816V393.864C528.816 395.057 529.15 396.009 529.818 396.719C530.492 397.429 531.352 397.784 532.396 397.784C533.021 397.784 533.657 397.624 534.303 397.305C534.956 396.985 535.503 396.495 535.943 395.835C536.391 395.174 536.615 394.332 536.615 393.31ZM558.819 400.341C557.285 400.341 555.964 399.979 554.856 399.254C553.748 398.53 552.896 397.532 552.299 396.261C551.703 394.989 551.404 393.537 551.404 391.903C551.404 390.241 551.71 388.775 552.32 387.504C552.938 386.225 553.798 385.227 554.899 384.51C556.006 383.786 557.299 383.423 558.776 383.423C559.927 383.423 560.964 383.636 561.887 384.062C562.81 384.489 563.567 385.085 564.156 385.852C564.746 386.619 565.112 387.514 565.254 388.537H562.739C562.548 387.791 562.122 387.131 561.461 386.555C560.808 385.973 559.927 385.682 558.819 385.682C557.839 385.682 556.979 385.937 556.241 386.449C555.509 386.953 554.938 387.667 554.526 388.59C554.121 389.506 553.918 390.582 553.918 391.818C553.918 393.082 554.117 394.183 554.515 395.121C554.92 396.058 555.488 396.786 556.22 397.305C556.958 397.823 557.825 398.082 558.819 398.082C559.472 398.082 560.065 397.969 560.598 397.741C561.131 397.514 561.582 397.188 561.951 396.761C562.32 396.335 562.583 395.824 562.739 395.227H565.254C565.112 396.193 564.76 397.063 564.199 397.837C563.645 398.604 562.91 399.215 561.994 399.67C561.085 400.117 560.026 400.341 558.819 400.341ZM573.744 400.384C572.707 400.384 571.766 400.188 570.921 399.798C570.076 399.4 569.405 398.828 568.908 398.082C568.411 397.33 568.162 396.42 568.162 395.355C568.162 394.418 568.347 393.658 568.716 393.075C569.085 392.486 569.579 392.024 570.197 391.69C570.815 391.357 571.497 391.108 572.242 390.945C572.995 390.774 573.752 390.639 574.511 390.54C575.506 390.412 576.312 390.316 576.93 390.252C577.555 390.181 578.009 390.064 578.293 389.901C578.585 389.737 578.73 389.453 578.73 389.048V388.963C578.73 387.912 578.443 387.095 577.867 386.513C577.299 385.93 576.436 385.639 575.278 385.639C574.078 385.639 573.137 385.902 572.455 386.428C571.774 386.953 571.294 387.514 571.017 388.111L568.631 387.259C569.057 386.264 569.625 385.49 570.335 384.936C571.053 384.375 571.834 383.984 572.679 383.764C573.531 383.537 574.369 383.423 575.193 383.423C575.719 383.423 576.323 383.487 577.004 383.615C577.693 383.736 578.357 383.988 578.997 384.371C579.643 384.755 580.179 385.334 580.605 386.108C581.031 386.882 581.244 387.919 581.244 389.219V400H578.73V397.784H578.602C578.432 398.139 578.148 398.519 577.75 398.924C577.352 399.329 576.823 399.673 576.163 399.957C575.502 400.241 574.696 400.384 573.744 400.384ZM574.128 398.125C575.122 398.125 575.96 397.93 576.642 397.539C577.331 397.148 577.85 396.644 578.198 396.026C578.553 395.408 578.73 394.759 578.73 394.077V391.776C578.624 391.903 578.389 392.021 578.027 392.127C577.672 392.227 577.26 392.315 576.791 392.393C576.33 392.464 575.879 392.528 575.438 392.585C575.005 392.635 574.653 392.678 574.384 392.713C573.73 392.798 573.119 392.937 572.551 393.129C571.99 393.313 571.536 393.594 571.188 393.97C570.847 394.339 570.676 394.844 570.676 395.483C570.676 396.357 570.999 397.017 571.646 397.464C572.299 397.905 573.127 398.125 574.128 398.125ZM588.348 390.156V400H585.833V383.636H588.262V386.193H588.475C588.859 385.362 589.441 384.695 590.223 384.19C591.004 383.679 592.012 383.423 593.248 383.423C594.356 383.423 595.326 383.651 596.157 384.105C596.987 384.553 597.634 385.234 598.095 386.151C598.557 387.06 598.788 388.21 598.788 389.602V400H596.274V389.773C596.274 388.487 595.94 387.486 595.272 386.768C594.605 386.044 593.688 385.682 592.524 385.682C591.721 385.682 591.004 385.856 590.372 386.204C589.747 386.552 589.253 387.06 588.891 387.727C588.529 388.395 588.348 389.205 588.348 390.156ZM618.467 400.341C616.933 400.341 615.612 399.979 614.504 399.254C613.396 398.53 612.544 397.532 611.948 396.261C611.351 394.989 611.053 393.537 611.053 391.903C611.053 390.241 611.358 388.775 611.969 387.504C612.587 386.225 613.446 385.227 614.547 384.51C615.655 383.786 616.948 383.423 618.425 383.423C619.575 383.423 620.612 383.636 621.536 384.062C622.459 384.489 623.215 385.085 623.805 385.852C624.394 386.619 624.76 387.514 624.902 388.537H622.388C622.196 387.791 621.77 387.131 621.109 386.555C620.456 385.973 619.575 385.682 618.467 385.682C617.487 385.682 616.628 385.937 615.889 386.449C615.158 386.953 614.586 387.667 614.174 388.59C613.769 389.506 613.567 390.582 613.567 391.818C613.567 393.082 613.766 394.183 614.163 395.121C614.568 396.058 615.136 396.786 615.868 397.305C616.607 397.823 617.473 398.082 618.467 398.082C619.121 398.082 619.714 397.969 620.247 397.741C620.779 397.514 621.23 397.188 621.6 396.761C621.969 396.335 622.232 395.824 622.388 395.227H624.902C624.76 396.193 624.408 397.063 623.847 397.837C623.293 398.604 622.558 399.215 621.642 399.67C620.733 400.117 619.675 400.341 618.467 400.341ZM628.578 400V383.636H631.006V386.108H631.177C631.475 385.298 632.015 384.641 632.796 384.137C633.578 383.633 634.458 383.381 635.438 383.381C635.623 383.381 635.854 383.384 636.131 383.391C636.408 383.398 636.617 383.409 636.759 383.423V385.98C636.674 385.959 636.479 385.927 636.173 385.884C635.875 385.835 635.559 385.81 635.225 385.81C634.43 385.81 633.72 385.977 633.095 386.31C632.477 386.637 631.987 387.092 631.624 387.674C631.269 388.249 631.092 388.906 631.092 389.645V400H628.578ZM646.102 400.341C644.526 400.341 643.166 399.993 642.022 399.297C640.886 398.594 640.009 397.614 639.391 396.357C638.78 395.092 638.475 393.622 638.475 391.946C638.475 390.27 638.78 388.793 639.391 387.514C640.009 386.229 640.868 385.227 641.969 384.51C643.077 383.786 644.369 383.423 645.847 383.423C646.699 383.423 647.541 383.565 648.372 383.849C649.203 384.134 649.959 384.595 650.641 385.234C651.323 385.866 651.866 386.705 652.271 387.749C652.676 388.793 652.878 390.078 652.878 391.605V392.67H640.264V390.497H650.321C650.321 389.574 650.136 388.75 649.767 388.026C649.405 387.301 648.886 386.729 648.212 386.31C647.544 385.891 646.756 385.682 645.847 385.682C644.845 385.682 643.979 385.93 643.247 386.428C642.523 386.918 641.965 387.557 641.575 388.345C641.184 389.134 640.989 389.979 640.989 390.881V392.33C640.989 393.565 641.202 394.613 641.628 395.472C642.061 396.325 642.661 396.974 643.428 397.422C644.195 397.862 645.087 398.082 646.102 398.082C646.763 398.082 647.359 397.99 647.892 397.805C648.432 397.614 648.897 397.33 649.288 396.953C649.678 396.57 649.98 396.094 650.193 395.526L652.622 396.207C652.367 397.031 651.937 397.756 651.333 398.381C650.729 398.999 649.984 399.482 649.096 399.83C648.208 400.17 647.21 400.341 646.102 400.341ZM661.518 400.384C660.481 400.384 659.54 400.188 658.695 399.798C657.85 399.4 657.178 398.828 656.681 398.082C656.184 397.33 655.935 396.42 655.935 395.355C655.935 394.418 656.12 393.658 656.489 393.075C656.859 392.486 657.352 392.024 657.97 391.69C658.588 391.357 659.27 391.108 660.016 390.945C660.769 390.774 661.525 390.639 662.285 390.54C663.279 390.412 664.085 390.316 664.703 390.252C665.328 390.181 665.783 390.064 666.067 389.901C666.358 389.737 666.504 389.453 666.504 389.048V388.963C666.504 387.912 666.216 387.095 665.641 386.513C665.073 385.93 664.21 385.639 663.052 385.639C661.852 385.639 660.911 385.902 660.229 386.428C659.547 386.953 659.068 387.514 658.791 388.111L656.404 387.259C656.83 386.264 657.399 385.49 658.109 384.936C658.826 384.375 659.607 383.984 660.453 383.764C661.305 383.537 662.143 383.423 662.967 383.423C663.492 383.423 664.096 383.487 664.778 383.615C665.467 383.736 666.131 383.988 666.77 384.371C667.416 384.755 667.953 385.334 668.379 386.108C668.805 386.882 669.018 387.919 669.018 389.219V400H666.504V397.784H666.376C666.205 398.139 665.921 398.519 665.524 398.924C665.126 399.329 664.597 399.673 663.936 399.957C663.276 400.241 662.47 400.384 661.518 400.384ZM661.901 398.125C662.896 398.125 663.734 397.93 664.416 397.539C665.104 397.148 665.623 396.644 665.971 396.026C666.326 395.408 666.504 394.759 666.504 394.077V391.776C666.397 391.903 666.163 392.021 665.801 392.127C665.445 392.227 665.033 392.315 664.565 392.393C664.103 392.464 663.652 392.528 663.212 392.585C662.778 392.635 662.427 392.678 662.157 392.713C661.504 392.798 660.893 392.937 660.325 393.129C659.764 393.313 659.309 393.594 658.961 393.97C658.62 394.339 658.45 394.844 658.45 395.483C658.45 396.357 658.773 397.017 659.419 397.464C660.073 397.905 660.9 398.125 661.901 398.125ZM680.723 383.636V385.767H672.243V383.636H680.723ZM674.715 379.716H677.229V395.312C677.229 396.023 677.332 396.555 677.538 396.911C677.751 397.259 678.021 397.493 678.348 397.614C678.681 397.727 679.033 397.784 679.402 397.784C679.679 397.784 679.907 397.77 680.084 397.741C680.262 397.706 680.404 397.678 680.51 397.656L681.022 399.915C680.851 399.979 680.613 400.043 680.308 400.107C680.002 400.178 679.615 400.213 679.147 400.213C678.436 400.213 677.74 400.06 677.059 399.755C676.384 399.45 675.823 398.984 675.375 398.359C674.935 397.734 674.715 396.946 674.715 395.994V379.716ZM691.19 400.341C689.614 400.341 688.253 399.993 687.11 399.297C685.974 398.594 685.097 397.614 684.479 396.357C683.868 395.092 683.562 393.622 683.562 391.946C683.562 390.27 683.868 388.793 684.479 387.514C685.097 386.229 685.956 385.227 687.057 384.51C688.165 383.786 689.457 383.423 690.935 383.423C691.787 383.423 692.628 383.565 693.459 383.849C694.29 384.134 695.047 384.595 695.729 385.234C696.41 385.866 696.954 386.705 697.359 387.749C697.763 388.793 697.966 390.078 697.966 391.605V392.67H685.352V390.497H695.409C695.409 389.574 695.224 388.75 694.855 388.026C694.493 387.301 693.974 386.729 693.3 386.31C692.632 385.891 691.844 385.682 690.935 385.682C689.933 385.682 689.067 385.93 688.335 386.428C687.611 386.918 687.053 387.557 686.663 388.345C686.272 389.134 686.077 389.979 686.077 390.881V392.33C686.077 393.565 686.29 394.613 686.716 395.472C687.149 396.325 687.749 396.974 688.516 397.422C689.283 397.862 690.175 398.082 691.19 398.082C691.851 398.082 692.447 397.99 692.98 397.805C693.52 397.614 693.985 397.33 694.376 396.953C694.766 396.57 695.068 396.094 695.281 395.526L697.71 396.207C697.454 397.031 697.025 397.756 696.421 398.381C695.817 398.999 695.072 399.482 694.184 399.83C693.296 400.17 692.298 400.341 691.19 400.341ZM715.043 400.384C714.006 400.384 713.065 400.188 712.22 399.798C711.375 399.4 710.704 398.828 710.207 398.082C709.709 397.33 709.461 396.42 709.461 395.355C709.461 394.418 709.646 393.658 710.015 393.075C710.384 392.486 710.878 392.024 711.496 391.69C712.114 391.357 712.795 391.108 713.541 390.945C714.294 390.774 715.05 390.639 715.81 390.54C716.805 390.412 717.611 390.316 718.229 390.252C718.854 390.181 719.308 390.064 719.592 389.901C719.883 389.737 720.029 389.453 720.029 389.048V388.963C720.029 387.912 719.741 387.095 719.166 386.513C718.598 385.93 717.735 385.639 716.577 385.639C715.377 385.639 714.436 385.902 713.754 386.428C713.072 386.953 712.593 387.514 712.316 388.111L709.93 387.259C710.356 386.264 710.924 385.49 711.634 384.936C712.351 384.375 713.133 383.984 713.978 383.764C714.83 383.537 715.668 383.423 716.492 383.423C717.018 383.423 717.621 383.487 718.303 383.615C718.992 383.736 719.656 383.988 720.295 384.371C720.942 384.755 721.478 385.334 721.904 386.108C722.33 386.882 722.543 387.919 722.543 389.219V400H720.029V397.784H719.901C719.731 398.139 719.447 398.519 719.049 398.924C718.651 399.329 718.122 399.673 717.462 399.957C716.801 400.241 715.995 400.384 715.043 400.384ZM715.427 398.125C716.421 398.125 717.259 397.93 717.941 397.539C718.63 397.148 719.148 396.644 719.496 396.026C719.851 395.408 720.029 394.759 720.029 394.077V391.776C719.922 391.903 719.688 392.021 719.326 392.127C718.971 392.227 718.559 392.315 718.09 392.393C717.628 392.464 717.177 392.528 716.737 392.585C716.304 392.635 715.952 392.678 715.682 392.713C715.029 392.798 714.418 392.937 713.85 393.129C713.289 393.313 712.834 393.594 712.486 393.97C712.146 394.339 711.975 394.844 711.975 395.483C711.975 396.357 712.298 397.017 712.945 397.464C713.598 397.905 714.425 398.125 715.427 398.125ZM729.646 390.156V400H727.132V383.636H729.561V386.193H729.774C730.158 385.362 730.74 384.695 731.521 384.19C732.303 383.679 733.311 383.423 734.547 383.423C735.655 383.423 736.624 383.651 737.455 384.105C738.286 384.553 738.933 385.234 739.394 386.151C739.856 387.06 740.087 388.21 740.087 389.602V400H737.573V389.773C737.573 388.487 737.239 387.486 736.571 386.768C735.903 386.044 734.987 385.682 733.823 385.682C733.02 385.682 732.303 385.856 731.671 386.204C731.046 386.552 730.552 387.06 730.19 387.727C729.828 388.395 729.646 389.205 729.646 390.156ZM750.86 400.341C749.496 400.341 748.293 399.996 747.248 399.308C746.204 398.612 745.388 397.631 744.798 396.367C744.209 395.096 743.914 393.594 743.914 391.861C743.914 390.142 744.209 388.651 744.798 387.386C745.388 386.122 746.208 385.146 747.259 384.457C748.31 383.768 749.525 383.423 750.903 383.423C751.968 383.423 752.81 383.601 753.427 383.956C754.052 384.304 754.528 384.702 754.855 385.149C755.189 385.589 755.448 385.952 755.633 386.236H755.846V378.182H758.36V400H755.931V397.486H755.633C755.448 397.784 755.185 398.161 754.844 398.615C754.503 399.062 754.017 399.464 753.385 399.819C752.753 400.167 751.911 400.341 750.86 400.341ZM751.201 398.082C752.209 398.082 753.062 397.82 753.758 397.294C754.454 396.761 754.983 396.026 755.345 395.089C755.707 394.144 755.888 393.054 755.888 391.818C755.888 390.597 755.711 389.528 755.356 388.612C755.001 387.688 754.475 386.971 753.779 386.46C753.083 385.941 752.224 385.682 751.201 385.682C750.136 385.682 749.248 385.955 748.538 386.502C747.834 387.042 747.305 387.777 746.95 388.707C746.602 389.631 746.428 390.668 746.428 391.818C746.428 392.983 746.606 394.041 746.961 394.993C747.323 395.937 747.856 396.69 748.559 397.251C749.269 397.805 750.15 398.082 751.201 398.082ZM498.924 445.136V422.636H501.353V425.236H501.651C501.836 424.952 502.092 424.589 502.419 424.149C502.752 423.702 503.228 423.304 503.846 422.956C504.471 422.601 505.316 422.423 506.382 422.423C507.759 422.423 508.974 422.768 510.025 423.457C511.076 424.146 511.896 425.122 512.486 426.386C513.075 427.651 513.37 429.142 513.37 430.861C513.37 432.594 513.075 434.096 512.486 435.367C511.896 436.631 511.08 437.612 510.036 438.308C508.992 438.996 507.788 439.341 506.424 439.341C505.373 439.341 504.531 439.167 503.899 438.819C503.267 438.464 502.781 438.062 502.44 437.615C502.099 437.161 501.836 436.784 501.651 436.486H501.438V445.136H498.924ZM501.396 430.818C501.396 432.054 501.577 433.144 501.939 434.089C502.301 435.026 502.83 435.761 503.526 436.294C504.222 436.82 505.075 437.082 506.083 437.082C507.134 437.082 508.012 436.805 508.715 436.251C509.425 435.69 509.958 434.937 510.313 433.993C510.675 433.041 510.856 431.983 510.856 430.818C510.856 429.668 510.678 428.631 510.323 427.707C509.975 426.777 509.446 426.042 508.736 425.502C508.033 424.955 507.149 424.682 506.083 424.682C505.061 424.682 504.201 424.941 503.505 425.46C502.809 425.971 502.284 426.688 501.928 427.612C501.573 428.528 501.396 429.597 501.396 430.818ZM517.205 439V422.636H519.634V425.108H519.805C520.103 424.298 520.643 423.641 521.424 423.137C522.205 422.633 523.086 422.381 524.066 422.381C524.251 422.381 524.482 422.384 524.759 422.391C525.036 422.398 525.245 422.409 525.387 422.423V424.98C525.302 424.959 525.107 424.927 524.801 424.884C524.503 424.835 524.187 424.81 523.853 424.81C523.058 424.81 522.347 424.977 521.722 425.31C521.105 425.637 520.615 426.092 520.252 426.674C519.897 427.249 519.72 427.906 519.72 428.645V439H517.205ZM534.517 439.341C533.04 439.341 531.744 438.989 530.629 438.286C529.521 437.583 528.654 436.599 528.029 435.335C527.411 434.071 527.102 432.594 527.102 430.903C527.102 429.199 527.411 427.711 528.029 426.44C528.654 425.168 529.521 424.181 530.629 423.478C531.744 422.775 533.04 422.423 534.517 422.423C535.994 422.423 537.287 422.775 538.395 423.478C539.51 424.181 540.377 425.168 540.994 426.44C541.619 427.711 541.932 429.199 541.932 430.903C541.932 432.594 541.619 434.071 540.994 435.335C540.377 436.599 539.51 437.583 538.395 438.286C537.287 438.989 535.994 439.341 534.517 439.341ZM534.517 437.082C535.639 437.082 536.563 436.795 537.287 436.219C538.012 435.644 538.548 434.888 538.896 433.95C539.244 433.013 539.418 431.997 539.418 430.903C539.418 429.81 539.244 428.79 538.896 427.846C538.548 426.901 538.012 426.138 537.287 425.555C536.563 424.973 535.639 424.682 534.517 424.682C533.395 424.682 532.472 424.973 531.747 425.555C531.023 426.138 530.487 426.901 530.139 427.846C529.791 428.79 529.617 429.81 529.617 430.903C529.617 431.997 529.791 433.013 530.139 433.95C530.487 434.888 531.023 435.644 531.747 436.219C532.472 436.795 533.395 437.082 534.517 437.082ZM545.77 439V422.636H548.199V425.193H548.412C548.753 424.32 549.303 423.641 550.063 423.158C550.823 422.668 551.736 422.423 552.801 422.423C553.881 422.423 554.779 422.668 555.496 423.158C556.221 423.641 556.786 424.32 557.19 425.193H557.361C557.78 424.348 558.408 423.677 559.246 423.18C560.085 422.675 561.089 422.423 562.261 422.423C563.724 422.423 564.921 422.881 565.852 423.798C566.782 424.707 567.247 426.124 567.247 428.048V439H564.733V428.048C564.733 426.841 564.403 425.978 563.742 425.46C563.082 424.941 562.304 424.682 561.409 424.682C560.259 424.682 559.367 425.03 558.735 425.726C558.103 426.415 557.787 427.288 557.787 428.347V439H555.23V427.793C555.23 426.862 554.928 426.113 554.325 425.545C553.721 424.969 552.943 424.682 551.991 424.682C551.338 424.682 550.727 424.856 550.159 425.204C549.598 425.552 549.143 426.035 548.795 426.653C548.455 427.263 548.284 427.97 548.284 428.773V439H545.77ZM578.492 439.341C577.015 439.341 575.718 438.989 574.603 438.286C573.495 437.583 572.629 436.599 572.004 435.335C571.386 434.071 571.077 432.594 571.077 430.903C571.077 429.199 571.386 427.711 572.004 426.44C572.629 425.168 573.495 424.181 574.603 423.478C575.718 422.775 577.015 422.423 578.492 422.423C579.969 422.423 581.262 422.775 582.37 423.478C583.485 424.181 584.351 425.168 584.969 426.44C585.594 427.711 585.907 429.199 585.907 430.903C585.907 432.594 585.594 434.071 584.969 435.335C584.351 436.599 583.485 437.583 582.37 438.286C581.262 438.989 579.969 439.341 578.492 439.341ZM578.492 437.082C579.614 437.082 580.537 436.795 581.262 436.219C581.986 435.644 582.522 434.888 582.87 433.95C583.218 433.013 583.392 431.997 583.392 430.903C583.392 429.81 583.218 428.79 582.87 427.846C582.522 426.901 581.986 426.138 581.262 425.555C580.537 424.973 579.614 424.682 578.492 424.682C577.37 424.682 576.446 424.973 575.722 425.555C574.998 426.138 574.461 426.901 574.113 427.846C573.765 428.79 573.591 429.81 573.591 430.903C573.591 431.997 573.765 433.013 574.113 433.95C574.461 434.888 574.998 435.644 575.722 436.219C576.446 436.795 577.37 437.082 578.492 437.082ZM596.861 422.636V424.767H588.381V422.636H596.861ZM590.852 418.716H593.367V434.312C593.367 435.023 593.47 435.555 593.676 435.911C593.889 436.259 594.159 436.493 594.485 436.614C594.819 436.727 595.171 436.784 595.54 436.784C595.817 436.784 596.044 436.77 596.222 436.741C596.399 436.706 596.541 436.678 596.648 436.656L597.159 438.915C596.989 438.979 596.751 439.043 596.445 439.107C596.14 439.178 595.753 439.213 595.284 439.213C594.574 439.213 593.878 439.06 593.196 438.755C592.521 438.45 591.96 437.984 591.513 437.359C591.073 436.734 590.852 435.946 590.852 434.994V418.716ZM607.328 439.341C605.751 439.341 604.391 438.993 603.248 438.297C602.111 437.594 601.234 436.614 600.616 435.357C600.006 434.092 599.7 432.622 599.7 430.946C599.7 429.27 600.006 427.793 600.616 426.514C601.234 425.229 602.094 424.227 603.194 423.51C604.302 422.786 605.595 422.423 607.072 422.423C607.925 422.423 608.766 422.565 609.597 422.849C610.428 423.134 611.184 423.595 611.866 424.234C612.548 424.866 613.091 425.705 613.496 426.749C613.901 427.793 614.104 429.078 614.104 430.605V431.67H601.49V429.497H611.547C611.547 428.574 611.362 427.75 610.993 427.026C610.631 426.301 610.112 425.729 609.437 425.31C608.77 424.891 607.981 424.682 607.072 424.682C606.071 424.682 605.204 424.93 604.473 425.428C603.748 425.918 603.191 426.557 602.8 427.345C602.41 428.134 602.214 428.979 602.214 429.881V431.33C602.214 432.565 602.427 433.613 602.854 434.472C603.287 435.325 603.887 435.974 604.654 436.422C605.421 436.862 606.312 437.082 607.328 437.082C607.988 437.082 608.585 436.99 609.118 436.805C609.657 436.614 610.123 436.33 610.513 435.953C610.904 435.57 611.206 435.094 611.419 434.526L613.848 435.207C613.592 436.031 613.162 436.756 612.559 437.381C611.955 437.999 611.209 438.482 610.322 438.83C609.434 439.17 608.436 439.341 607.328 439.341ZM627.985 445.136C627.559 445.136 627.179 445.101 626.845 445.03C626.511 444.966 626.28 444.902 626.153 444.838L626.792 442.622C627.403 442.778 627.942 442.835 628.411 442.793C628.88 442.75 629.295 442.54 629.657 442.164C630.027 441.795 630.364 441.195 630.67 440.364L631.138 439.085L625.087 422.636H627.814L632.331 435.676H632.502L637.019 422.636H639.746L632.8 441.386C632.488 442.232 632.101 442.931 631.639 443.485C631.177 444.046 630.641 444.462 630.03 444.732C629.427 445.001 628.745 445.136 627.985 445.136ZM649.127 439.341C647.649 439.341 646.353 438.989 645.238 438.286C644.13 437.583 643.264 436.599 642.639 435.335C642.021 434.071 641.712 432.594 641.712 430.903C641.712 429.199 642.021 427.711 642.639 426.44C643.264 425.168 644.13 424.181 645.238 423.478C646.353 422.775 647.649 422.423 649.127 422.423C650.604 422.423 651.896 422.775 653.004 423.478C654.119 424.181 654.986 425.168 655.604 426.44C656.229 427.711 656.541 429.199 656.541 430.903C656.541 432.594 656.229 434.071 655.604 435.335C654.986 436.599 654.119 437.583 653.004 438.286C651.896 438.989 650.604 439.341 649.127 439.341ZM649.127 437.082C650.249 437.082 651.172 436.795 651.896 436.219C652.621 435.644 653.157 434.888 653.505 433.95C653.853 433.013 654.027 431.997 654.027 430.903C654.027 429.81 653.853 428.79 653.505 427.846C653.157 426.901 652.621 426.138 651.896 425.555C651.172 424.973 650.249 424.682 649.127 424.682C648.004 424.682 647.081 424.973 646.357 425.555C645.632 426.138 645.096 426.901 644.748 427.846C644.4 428.79 644.226 429.81 644.226 430.903C644.226 431.997 644.4 433.013 644.748 433.95C645.096 434.888 645.632 435.644 646.357 436.219C647.081 436.795 648.004 437.082 649.127 437.082ZM670.692 432.31V422.636H673.206V439H670.692V436.23H670.521C670.138 437.061 669.541 437.768 668.732 438.35C667.922 438.925 666.899 439.213 665.663 439.213C664.641 439.213 663.732 438.989 662.936 438.542C662.141 438.087 661.516 437.406 661.061 436.496C660.607 435.58 660.379 434.426 660.379 433.034V422.636H662.893V432.864C662.893 434.057 663.227 435.009 663.895 435.719C664.57 436.429 665.429 436.784 666.473 436.784C667.098 436.784 667.734 436.624 668.38 436.305C669.033 435.985 669.58 435.495 670.021 434.835C670.468 434.174 670.692 433.332 670.692 432.31ZM677.811 439V422.636H680.24V425.108H680.41C680.709 424.298 681.248 423.641 682.03 423.137C682.811 422.633 683.692 422.381 684.672 422.381C684.856 422.381 685.087 422.384 685.364 422.391C685.641 422.398 685.851 422.409 685.993 422.423V424.98C685.907 424.959 685.712 424.927 685.407 424.884C685.108 424.835 684.792 424.81 684.459 424.81C683.663 424.81 682.953 424.977 682.328 425.31C681.71 425.637 681.22 426.092 680.858 426.674C680.503 427.249 680.325 427.906 680.325 428.645V439H677.811ZM704.058 439.341C702.581 439.341 701.285 438.989 700.17 438.286C699.062 437.583 698.195 436.599 697.57 435.335C696.952 434.071 696.643 432.594 696.643 430.903C696.643 429.199 696.952 427.711 697.57 426.44C698.195 425.168 699.062 424.181 700.17 423.478C701.285 422.775 702.581 422.423 704.058 422.423C705.536 422.423 706.828 422.775 707.936 423.478C709.051 424.181 709.918 425.168 710.536 426.44C711.161 427.711 711.473 429.199 711.473 430.903C711.473 432.594 711.161 434.071 710.536 435.335C709.918 436.599 709.051 437.583 707.936 438.286C706.828 438.989 705.536 439.341 704.058 439.341ZM704.058 437.082C705.18 437.082 706.104 436.795 706.828 436.219C707.553 435.644 708.089 434.888 708.437 433.95C708.785 433.013 708.959 431.997 708.959 430.903C708.959 429.81 708.785 428.79 708.437 427.846C708.089 426.901 707.553 426.138 706.828 425.555C706.104 424.973 705.18 424.682 704.058 424.682C702.936 424.682 702.013 424.973 701.288 425.555C700.564 426.138 700.028 426.901 699.68 427.846C699.332 428.79 699.158 429.81 699.158 430.903C699.158 431.997 699.332 433.013 699.68 433.95C700.028 434.888 700.564 435.644 701.288 436.219C702.013 436.795 702.936 437.082 704.058 437.082ZM718.462 439L713.476 422.636H716.118L719.655 435.165H719.825L723.32 422.636H726.004L729.456 435.122H729.626L733.163 422.636H735.805L730.82 439H728.348L724.768 426.429H724.513L720.933 439H718.462ZM741.643 429.156V439H739.129V422.636H741.558V425.193H741.771C742.155 424.362 742.737 423.695 743.518 423.19C744.3 422.679 745.308 422.423 746.544 422.423C747.652 422.423 748.621 422.651 749.452 423.105C750.283 423.553 750.93 424.234 751.391 425.151C751.853 426.06 752.084 427.21 752.084 428.602V439H749.57V428.773C749.57 427.487 749.236 426.486 748.568 425.768C747.901 425.044 746.984 424.682 745.82 424.682C745.017 424.682 744.3 424.856 743.668 425.204C743.043 425.552 742.549 426.06 742.187 426.727C741.825 427.395 741.643 428.205 741.643 429.156ZM587.479 478.341C585.903 478.341 584.543 477.993 583.399 477.297C582.263 476.594 581.386 475.614 580.768 474.357C580.157 473.092 579.851 471.622 579.851 469.946C579.851 468.27 580.157 466.793 580.768 465.514C581.386 464.229 582.245 463.227 583.346 462.51C584.454 461.786 585.746 461.423 587.224 461.423C588.076 461.423 588.918 461.565 589.748 461.849C590.579 462.134 591.336 462.595 592.018 463.234C592.699 463.866 593.243 464.705 593.648 465.749C594.052 466.793 594.255 468.078 594.255 469.605V470.67H581.641V468.497H591.698C591.698 467.574 591.513 466.75 591.144 466.026C590.782 465.301 590.263 464.729 589.589 464.31C588.921 463.891 588.133 463.682 587.224 463.682C586.222 463.682 585.356 463.93 584.624 464.428C583.9 464.918 583.342 465.557 582.952 466.345C582.561 467.134 582.366 467.979 582.366 468.881V470.33C582.366 471.565 582.579 472.613 583.005 473.472C583.438 474.325 584.038 474.974 584.805 475.422C585.572 475.862 586.464 476.082 587.479 476.082C588.14 476.082 588.736 475.99 589.269 475.805C589.809 475.614 590.274 475.33 590.665 474.953C591.055 474.57 591.357 474.094 591.57 473.526L593.999 474.207C593.744 475.031 593.314 475.756 592.71 476.381C592.106 476.999 591.361 477.482 590.473 477.83C589.585 478.17 588.587 478.341 587.479 478.341ZM610.962 461.636L604.911 478H602.354L596.303 461.636H599.03L603.547 474.676H603.718L608.235 461.636H610.962ZM620.555 478.341C618.979 478.341 617.619 477.993 616.475 477.297C615.339 476.594 614.462 475.614 613.844 474.357C613.233 473.092 612.928 471.622 612.928 469.946C612.928 468.27 613.233 466.793 613.844 465.514C614.462 464.229 615.321 463.227 616.422 462.51C617.53 461.786 618.823 461.423 620.3 461.423C621.152 461.423 621.994 461.565 622.825 461.849C623.656 462.134 624.412 462.595 625.094 463.234C625.776 463.866 626.319 464.705 626.724 465.749C627.129 466.793 627.331 468.078 627.331 469.605V470.67H614.717V468.497H624.774C624.774 467.574 624.59 466.75 624.22 466.026C623.858 465.301 623.34 464.729 622.665 464.31C621.997 463.891 621.209 463.682 620.3 463.682C619.298 463.682 618.432 463.93 617.7 464.428C616.976 464.918 616.418 465.557 616.028 466.345C615.637 467.134 615.442 467.979 615.442 468.881V470.33C615.442 471.565 615.655 472.613 616.081 473.472C616.514 474.325 617.114 474.974 617.881 475.422C618.649 475.862 619.54 476.082 620.555 476.082C621.216 476.082 621.813 475.99 622.345 475.805C622.885 475.614 623.35 475.33 623.741 474.953C624.131 474.57 624.433 474.094 624.646 473.526L627.075 474.207C626.82 475.031 626.39 475.756 625.786 476.381C625.183 476.999 624.437 477.482 623.549 477.83C622.661 478.17 621.663 478.341 620.555 478.341ZM633.67 468.156V478H631.156V461.636H633.585V464.193H633.798C634.181 463.362 634.764 462.695 635.545 462.19C636.326 461.679 637.335 461.423 638.57 461.423C639.678 461.423 640.648 461.651 641.479 462.105C642.31 462.553 642.956 463.234 643.418 464.151C643.879 465.06 644.11 466.21 644.11 467.602V478H641.596V467.773C641.596 466.487 641.262 465.486 640.595 464.768C639.927 464.044 639.011 463.682 637.846 463.682C637.043 463.682 636.326 463.856 635.694 464.204C635.069 464.552 634.575 465.06 634.213 465.727C633.851 466.395 633.67 467.205 633.67 468.156ZM655.821 461.636V463.767H647.341V461.636H655.821ZM649.812 457.716H652.327V473.312C652.327 474.023 652.43 474.555 652.636 474.911C652.849 475.259 653.119 475.493 653.445 475.614C653.779 475.727 654.131 475.784 654.5 475.784C654.777 475.784 655.004 475.77 655.182 475.741C655.359 475.706 655.501 475.678 655.608 475.656L656.119 477.915C655.949 477.979 655.711 478.043 655.405 478.107C655.1 478.178 654.713 478.213 654.244 478.213C653.534 478.213 652.838 478.06 652.156 477.755C651.481 477.45 650.92 476.984 650.473 476.359C650.033 475.734 649.812 474.946 649.812 473.994V457.716ZM670.901 465.301L668.642 465.94C668.5 465.564 668.291 465.198 668.014 464.843C667.744 464.481 667.375 464.183 666.906 463.948C666.437 463.714 665.837 463.597 665.105 463.597C664.104 463.597 663.269 463.827 662.602 464.289C661.941 464.744 661.611 465.322 661.611 466.026C661.611 466.651 661.838 467.144 662.293 467.506C662.747 467.869 663.458 468.17 664.424 468.412L666.853 469.009C668.316 469.364 669.406 469.907 670.123 470.638C670.84 471.363 671.199 472.297 671.199 473.44C671.199 474.378 670.929 475.216 670.389 475.955C669.857 476.693 669.111 477.276 668.152 477.702C667.193 478.128 666.078 478.341 664.807 478.341C663.138 478.341 661.757 477.979 660.663 477.254C659.569 476.53 658.877 475.472 658.585 474.08L660.972 473.483C661.199 474.364 661.629 475.024 662.261 475.464C662.9 475.905 663.735 476.125 664.764 476.125C665.936 476.125 666.867 475.876 667.556 475.379C668.252 474.875 668.6 474.271 668.6 473.568C668.6 473 668.401 472.524 668.003 472.141C667.605 471.75 666.995 471.459 666.171 471.267L663.443 470.628C661.945 470.273 660.844 469.722 660.141 468.977C659.445 468.224 659.097 467.283 659.097 466.153C659.097 465.23 659.356 464.413 659.875 463.703C660.4 462.993 661.114 462.435 662.016 462.031C662.925 461.626 663.955 461.423 665.105 461.423C666.725 461.423 667.996 461.778 668.919 462.489C669.85 463.199 670.51 464.136 670.901 465.301Z" fill="#112442"/>
</svg>
