<svg width="25" height="25" viewBox="0 0 25 25" fill="none" xmlns="http://www.w3.org/2000/svg">
<g id="near_me">
<mask id="mask0_1747_1104" style="mask-type:alpha" maskUnits="userSpaceOnUse" x="0" y="0" width="25" height="25">
<rect id="Bounding box" width="25" height="25" fill="#D9D9D9"/>
</mask>
<g mask="url(#mask0_1747_1104)">
<path id="near_me_2" d="M10.4691 14.5314L3.72428 11.797C3.49859 11.7102 3.33366 11.5757 3.22949 11.3934C3.12533 11.2111 3.07324 11.0245 3.07324 10.8335C3.07324 10.6425 3.12967 10.4559 3.24251 10.2736C3.35536 10.0913 3.52463 9.95676 3.75033 9.86996L19.7399 3.93245C19.9482 3.84565 20.1479 3.82829 20.3389 3.88037C20.5298 3.93245 20.6948 4.02794 20.8337 4.16683C20.9725 4.30572 21.068 4.47065 21.1201 4.66162C21.1722 4.85259 21.1548 5.05225 21.068 5.26058L15.1305 21.2502C15.0437 21.4759 14.9092 21.6451 14.7269 21.758C14.5446 21.8708 14.358 21.9272 14.167 21.9272C13.976 21.9272 13.7894 21.8752 13.6071 21.771C13.4248 21.6668 13.2903 21.5019 13.2035 21.2762L10.4691 14.5314Z" fill="#112442"/>
</g>
</g>
</svg>
