<svg width="35" height="35" viewBox="0 0 35 35" fill="none" xmlns="http://www.w3.org/2000/svg">
<g id="Group 67">
<g id="notifications">
<mask id="mask0_8_52" style="mask-type:alpha" maskUnits="userSpaceOnUse" x="0" y="0" width="35" height="35">
<rect id="Bounding box" width="35" height="35" fill="#D9D9D9"/>
</mask>
<g mask="url(#mask0_8_52)">
<path id="notifications_2" d="M7.29134 27.7087C6.87815 27.7087 6.53179 27.5689 6.25228 27.2894C5.97276 27.0099 5.83301 26.6635 5.83301 26.2503C5.83301 25.8371 5.97276 25.4908 6.25228 25.2113C6.53179 24.9317 6.87815 24.792 7.29134 24.792H8.74967V14.5837C8.74967 12.5663 9.35731 10.7738 10.5726 9.20605C11.7879 7.63835 13.3677 6.61144 15.3122 6.12533V5.10449C15.3122 4.49685 15.5248 3.98036 15.9502 3.55501C16.3755 3.12967 16.892 2.91699 17.4997 2.91699C18.1073 2.91699 18.6238 3.12967 19.0492 3.55501C19.4745 3.98036 19.6872 4.49685 19.6872 5.10449V6.12533C21.6316 6.61144 23.2115 7.63835 24.4268 9.20605C25.642 10.7738 26.2497 12.5663 26.2497 14.5837V24.792H27.708C28.1212 24.792 28.4676 24.9317 28.7471 25.2113C29.0266 25.4908 29.1663 25.8371 29.1663 26.2503C29.1663 26.6635 29.0266 27.0099 28.7471 27.2894C28.4676 27.5689 28.1212 27.7087 27.708 27.7087H7.29134ZM17.4997 32.0837C16.6976 32.0837 16.011 31.7981 15.4398 31.2269C14.8686 30.6557 14.583 29.9691 14.583 29.167H20.4163C20.4163 29.9691 20.1308 30.6557 19.5596 31.2269C18.9884 31.7981 18.3018 32.0837 17.4997 32.0837Z" fill="#FFFEF9"/>
</g>
</g>
<rect id="Rectangle 183" x="19" y="1" width="10" height="10" rx="5" fill="#C11E1E"/>
</g>
</svg>
