<svg width="25" height="25" viewBox="0 0 25 25" fill="none" xmlns="http://www.w3.org/2000/svg">
<mask id="mask0_829_1297" style="mask-type:alpha" maskUnits="userSpaceOnUse" x="0" y="0" width="25" height="25">
<rect width="25" height="25" fill="#D9D9D9"/>
</mask>
<g mask="url(#mask0_829_1297)">
<path d="M12.5293 12.4998C11.3809 12.4998 10.3977 12.0919 9.57983 11.2759C8.76198 10.4599 8.35305 9.479 8.35305 8.33317C8.35305 7.18734 8.76198 6.20643 9.57983 5.39046C10.3977 4.57449 11.3809 4.1665 12.5293 4.1665C13.6778 4.1665 14.661 4.57449 15.4788 5.39046C16.2967 6.20643 16.7056 7.18734 16.7056 8.33317C16.7056 9.479 16.2967 10.4599 15.4788 11.2759C14.661 12.0919 13.6778 12.4998 12.5293 12.4998ZM4.17676 18.7498V17.9165C4.17676 17.3262 4.32902 16.7837 4.63354 16.2889C4.93806 15.7941 5.34264 15.4165 5.84727 15.1561C6.92615 14.6179 8.02242 14.2142 9.1361 13.9451C10.2498 13.6761 11.3809 13.5415 12.5293 13.5415C13.6778 13.5415 14.8089 13.6761 15.9226 13.9451C17.0362 14.2142 18.1325 14.6179 19.2114 15.1561C19.716 15.4165 20.1206 15.7941 20.4251 16.2889C20.7297 16.7837 20.8819 17.3262 20.8819 17.9165V18.7498C20.8819 19.3228 20.6775 19.8132 20.2685 20.2212C19.8596 20.6292 19.368 20.8332 18.7938 20.8332H6.2649C5.69066 20.8332 5.19908 20.6292 4.79015 20.2212C4.38122 19.8132 4.17676 19.3228 4.17676 18.7498Z" fill="#112442"/>
</g>
</svg>
