<svg width="25" height="25" viewBox="0 0 25 25" fill="none" xmlns="http://www.w3.org/2000/svg">
<mask id="mask0_832_1824" style="mask-type:alpha" maskUnits="userSpaceOnUse" x="0" y="0" width="25" height="25">
<rect width="25" height="25" fill="#D9D9D9"/>
</mask>
<g mask="url(#mask0_832_1824)">
<path d="M12.4993 12.5003C11.3535 12.5003 10.3726 12.0923 9.55664 11.2764C8.74067 10.4604 8.33268 9.47949 8.33268 8.33366C8.33268 7.18783 8.74067 6.20692 9.55664 5.39095C10.3726 4.57498 11.3535 4.16699 12.4993 4.16699C13.6452 4.16699 14.6261 4.57498 15.4421 5.39095C16.258 6.20692 16.666 7.18783 16.666 8.33366C16.666 9.47949 16.258 10.4604 15.4421 11.2764C14.6261 12.0923 13.6452 12.5003 12.4993 12.5003ZM4.16602 18.7503V17.917C4.16602 17.3267 4.31793 16.7842 4.62174 16.2894C4.92556 15.7946 5.32921 15.417 5.83268 15.1566C6.90907 14.6184 8.00282 14.2147 9.11393 13.9456C10.225 13.6765 11.3535 13.542 12.4993 13.542C13.6452 13.542 14.7737 13.6765 15.8848 13.9456C16.9959 14.2147 18.0896 14.6184 19.166 15.1566C19.6695 15.417 20.0731 15.7946 20.377 16.2894C20.6808 16.7842 20.8327 17.3267 20.8327 17.917V18.7503C20.8327 19.3232 20.6287 19.8137 20.2207 20.2217C19.8127 20.6297 19.3223 20.8337 18.7493 20.8337H6.24935C5.67643 20.8337 5.18598 20.6297 4.77799 20.2217C4.37001 19.8137 4.16602 19.3232 4.16602 18.7503Z" fill="#88919E"/>
</g>
</svg>
