<svg width="25" height="25" viewBox="0 0 25 25" fill="none" xmlns="http://www.w3.org/2000/svg">
<mask id="mask0_832_1871" style="mask-type:alpha" maskUnits="userSpaceOnUse" x="0" y="0" width="25" height="25">
<rect width="25" height="25" fill="#D9D9D9"/>
</mask>
<g mask="url(#mask0_832_1871)">
<path d="M20.625 23.5415L16.25 19.2186C15.6424 19.4096 15.026 19.5528 14.401 19.6483C13.776 19.7438 13.1424 19.7915 12.5 19.7915C10.1736 19.7915 8.04688 19.1665 6.11979 17.9165C4.19271 16.6665 2.68229 15.0172 1.58854 12.9686C1.50174 12.8123 1.43663 12.6517 1.39323 12.4868C1.34983 12.3219 1.32812 12.1526 1.32812 11.979C1.32812 11.8054 1.34983 11.6361 1.39323 11.4712C1.43663 11.3063 1.50174 11.1457 1.58854 10.9894C1.97049 10.3123 2.37847 9.65262 2.8125 9.01025C3.24653 8.36789 3.75 7.79498 4.32292 7.2915L1.45833 4.37484L2.91667 2.9165L22.0833 22.0832L20.625 23.5415ZM12.5 16.6665C12.691 16.6665 12.8733 16.6578 13.0469 16.6405C13.2205 16.6231 13.3941 16.5884 13.5677 16.5363L7.94271 10.9113C7.89063 11.0849 7.8559 11.2585 7.83854 11.4321C7.82118 11.6057 7.8125 11.788 7.8125 11.979C7.8125 13.2811 8.26823 14.3879 9.17969 15.2993C10.0911 16.2108 11.1979 16.6665 12.5 16.6665ZM20.1042 17.1353L16.7969 13.854C16.9184 13.5589 17.0139 13.255 17.0833 12.9425C17.1528 12.63 17.1875 12.3089 17.1875 11.979C17.1875 10.6769 16.7318 9.57015 15.8203 8.65869C14.9089 7.74723 13.8021 7.2915 12.5 7.2915C12.1701 7.2915 11.849 7.32623 11.5365 7.39567C11.224 7.46512 10.9201 7.56928 10.625 7.70817L7.96875 5.05192C8.69792 4.75678 9.4401 4.53543 10.1953 4.38786C10.9505 4.24029 11.7188 4.1665 12.5 4.1665C14.8264 4.1665 16.9575 4.79584 18.8932 6.05453C20.829 7.31321 22.3438 8.96685 23.4375 11.0155C23.5243 11.1544 23.5894 11.3063 23.6328 11.4712C23.6762 11.6361 23.6979 11.8054 23.6979 11.979C23.6979 12.1526 23.6806 12.3219 23.6458 12.4868C23.6111 12.6517 23.5503 12.8037 23.4635 12.9425C23.0469 13.7585 22.5651 14.5224 22.0182 15.2342C21.4714 15.946 20.8333 16.5797 20.1042 17.1353ZM15.2865 12.3436L12.1615 9.21859C12.6128 9.13178 13.0512 9.1665 13.4766 9.32275C13.9019 9.479 14.2622 9.72206 14.5573 10.0519C14.8524 10.3644 15.0651 10.7203 15.1953 11.1196C15.3255 11.5189 15.3559 11.9269 15.2865 12.3436Z" fill="#112442"/>
</g>
</svg>
