<svg width="1366" height="794" viewBox="0 0 1366 794" fill="none" xmlns="http://www.w3.org/2000/svg">
<mask id="mask0_916_998" style="mask-type:luminance" maskUnits="userSpaceOnUse" x="0" y="0" width="1366" height="794">
<path d="M1366 0H0V794H1366V0Z" fill="white"/>
</mask>
<g mask="url(#mask0_916_998)">
<path d="M1366 0H0V794H1366V0Z" fill="#FFFEF9"/>
<path d="M0 0H732L441.582 794H0V0Z" fill="#112442"/>
<path d="M327.145 795.482L367.441 810.149L374.774 790.001C375.779 787.24 376.209 784.455 376.066 781.646C375.875 778.821 375.199 776.164 374.038 773.674C372.877 771.184 371.267 768.982 369.209 767.066C367.12 765.087 364.695 763.595 361.934 762.59C359.172 761.585 356.379 761.178 353.554 761.369C350.698 761.495 348.026 762.139 345.536 763.3C343.047 764.461 340.844 766.071 338.929 768.13C336.967 770.172 335.483 772.573 334.478 775.335L327.145 795.482ZM407.666 824.79L400.333 844.938L299.664 808.297L314.33 768.001C315.676 764.304 317.462 760.926 319.688 757.867C321.868 754.791 324.383 752.103 327.235 749.802C330.057 747.437 333.151 745.489 336.517 743.958C339.853 742.363 343.334 741.245 346.96 740.604C350.603 739.916 354.302 739.725 358.06 740.033C361.834 740.293 365.57 741.096 369.267 742.442C372.73 743.703 375.938 745.374 378.89 747.455C381.86 749.49 384.521 751.863 386.873 754.574C389.242 757.239 391.241 760.192 392.87 763.435C394.499 766.678 395.698 770.083 396.467 773.649L426.855 772.068L419.062 793.48L395.58 794.871L387.518 817.457L407.666 824.79ZM420.456 634.348C425.229 636.085 429.609 638.395 433.596 641.277C437.552 644.095 441.064 647.334 444.13 650.994C447.15 654.638 449.673 658.63 451.697 662.971C453.721 667.311 455.181 671.818 456.078 676.49C456.927 681.146 457.151 685.918 456.75 690.807C456.395 695.713 455.349 700.553 453.612 705.326C451.874 710.1 449.565 714.48 446.683 718.466C443.865 722.423 440.626 725.934 436.965 729.001C433.275 732.004 429.26 734.518 424.919 736.542C420.578 738.566 416.072 740.026 411.399 740.923C406.697 741.755 401.916 742.003 397.057 741.665C392.168 741.264 387.337 740.194 382.563 738.457C377.789 736.719 373.401 734.433 369.398 731.598C365.412 728.716 361.908 725.454 358.888 721.81C355.885 718.12 353.372 714.105 351.348 709.764C349.323 705.423 347.887 700.925 347.037 696.27C346.204 691.568 345.98 686.796 346.365 681.953C346.719 677.047 347.765 672.208 349.503 667.434C351.24 662.66 353.55 658.28 356.432 654.294C359.267 650.291 362.506 646.779 366.149 643.759C369.793 640.739 373.785 638.217 378.125 636.193C382.466 634.169 386.964 632.732 391.62 631.882C396.275 631.032 401.047 630.808 405.936 631.21C410.842 631.564 415.682 632.61 420.456 634.348ZM413.174 654.355C408.774 652.754 404.326 652.089 399.828 652.36C395.284 652.614 391.056 653.672 387.145 655.535C383.204 657.334 379.676 659.892 376.56 663.21C373.461 666.481 371.111 670.317 369.51 674.716C367.892 679.162 367.218 683.634 367.489 688.132C367.76 692.629 368.819 696.857 370.664 700.815C372.463 704.756 375.021 708.284 378.339 711.4C381.611 714.498 385.446 716.848 389.845 718.449C394.245 720.051 398.693 720.716 403.191 720.445C407.642 720.157 411.846 719.09 415.804 717.244C419.762 715.399 423.29 712.84 426.389 709.569C429.487 706.298 431.846 702.439 433.464 697.993C435.065 693.594 435.73 689.145 435.459 684.648C435.205 680.103 434.147 675.875 432.284 671.964C430.439 668.007 427.904 664.487 424.679 661.405C421.408 658.307 417.573 655.957 413.174 654.355ZM482.531 619.099L475.198 639.247L374.529 602.606L381.862 582.458L432.197 600.779L395.507 544.971L403.836 522.085L434.734 569.345L504.506 558.726L496.176 581.611L447.41 588.905L462.384 611.766L482.531 619.099ZM449.382 459.638L489.678 474.304L497.011 454.156C498.016 451.395 498.447 448.61 498.303 445.802C498.112 442.976 497.437 440.319 496.276 437.829C495.115 435.34 493.505 433.137 491.446 431.222C489.357 429.243 486.932 427.75 484.171 426.745C481.41 425.74 478.616 425.333 475.791 425.524C472.936 425.651 470.263 426.295 467.774 427.455C465.284 428.616 463.082 430.226 461.166 432.285C459.204 434.327 457.721 436.729 456.716 439.49L449.382 459.638ZM529.904 488.945L522.57 509.093L421.901 472.452L436.568 432.157C437.913 428.459 439.699 425.081 441.926 422.023C444.105 418.947 446.621 416.258 449.472 413.957C452.294 411.592 455.388 409.644 458.754 408.113C462.091 406.519 465.572 405.401 469.197 404.759C472.84 404.071 476.54 403.88 480.297 404.188C484.071 404.449 487.807 405.252 491.504 406.598C494.968 407.858 498.175 409.529 501.128 411.611C504.097 413.646 506.758 416.019 509.11 418.73C511.48 421.394 513.479 424.348 515.108 427.591C516.736 430.834 517.935 434.238 518.704 437.804L549.093 436.224L541.299 457.635L517.817 459.026L509.756 481.612L529.904 488.945ZM542.693 298.503C547.467 300.241 551.847 302.55 555.833 305.432C559.789 308.25 563.301 311.49 566.368 315.15C569.388 318.793 571.91 322.785 573.934 327.126C575.958 331.467 577.419 335.973 578.315 340.646C579.165 345.301 579.389 350.073 578.987 354.962C578.633 359.868 577.587 364.708 575.849 369.482C574.112 374.255 571.802 378.635 568.92 382.622C566.102 386.578 562.863 390.09 559.203 393.156C555.513 396.159 551.497 398.673 547.156 400.697C542.816 402.721 538.309 404.182 533.637 405.078C528.935 405.911 524.154 406.158 519.295 405.821C514.406 405.419 509.574 404.35 504.801 402.612C500.027 400.875 495.638 398.589 491.635 395.753C487.649 392.872 484.146 389.609 481.126 385.966C478.123 382.276 475.609 378.26 473.585 373.919C471.561 369.579 470.124 365.081 469.274 360.425C468.442 355.723 468.218 350.951 468.602 346.109C468.957 341.203 470.003 336.363 471.74 331.589C473.478 326.815 475.787 322.435 478.669 318.449C481.504 314.446 484.744 310.934 488.387 307.914C492.03 304.894 496.022 302.372 500.363 300.348C504.704 298.324 509.202 296.887 513.857 296.037C518.512 295.188 523.285 294.964 528.174 295.365C533.08 295.72 537.919 296.766 542.693 298.503ZM535.411 318.511C531.012 316.91 526.563 316.244 522.065 316.515C517.521 316.769 513.293 317.828 509.382 319.69C505.441 321.489 501.913 324.047 498.798 327.365C495.699 330.637 493.349 334.472 491.748 338.871C490.129 343.317 489.456 347.789 489.727 352.287C489.998 356.785 491.056 361.012 492.902 364.97C494.7 368.911 497.259 372.439 500.577 375.555C503.848 378.654 507.683 381.004 512.083 382.605C516.482 384.206 520.93 384.871 525.428 384.6C529.879 384.312 534.083 383.245 538.041 381.4C541.999 379.554 545.527 376.996 548.626 373.725C551.725 370.453 554.083 366.595 555.701 362.149C557.303 357.749 557.968 353.301 557.697 348.803C557.443 344.258 556.384 340.031 554.522 336.12C552.676 332.162 550.141 328.642 546.917 325.561C543.646 322.462 539.81 320.112 535.411 318.511ZM604.769 283.254L597.436 303.402L496.767 266.762L504.1 246.614L554.434 264.934L517.744 209.126L526.074 186.24L556.971 233.5L626.743 222.881L618.413 245.767L569.648 253.06L584.621 275.921L604.769 283.254ZM571.62 123.793L611.916 138.459L619.249 118.312C620.254 115.55 620.684 112.766 620.541 109.957C620.35 107.132 619.674 104.474 618.513 101.985C617.352 99.495 615.742 97.2925 613.683 95.3771C611.595 93.3979 609.17 91.9057 606.409 90.9007C603.647 89.8957 600.854 89.4885 598.028 89.6792C595.173 89.806 592.501 90.4498 590.011 91.6108C587.522 92.7717 585.319 94.3816 583.404 96.4405C581.442 98.4823 579.958 100.884 578.953 103.645L571.62 123.793ZM652.141 153.1L644.808 173.248L544.139 136.608L558.805 96.3119C560.151 92.6147 561.937 89.2366 564.163 86.1779C566.343 83.1021 568.858 80.4136 571.71 78.1124C574.532 75.7474 577.626 73.7995 580.992 72.2687C584.328 70.674 587.809 69.5559 591.435 68.9145C595.078 68.2262 598.777 68.0358 602.535 68.3433C606.309 68.604 610.044 69.4072 613.742 70.7529C617.205 72.0134 620.413 73.6845 623.365 75.7661C626.335 77.8009 628.996 80.1739 631.348 82.8851C633.717 85.5495 635.716 88.5031 637.345 91.746C638.974 94.9888 640.173 98.3933 640.942 101.959L671.33 100.379L663.537 121.79L640.055 123.181L631.993 145.767L652.141 153.1ZM664.931 -37.3414C669.704 -35.6039 674.084 -33.2942 678.07 -30.4124C682.027 -27.5943 685.538 -24.3552 688.605 -20.6949C691.625 -17.0516 694.147 -13.0596 696.172 -8.71878C698.196 -4.37798 699.656 0.128601 700.553 4.80096C701.402 9.4563 701.626 14.2285 701.225 19.1175C700.87 24.0235 699.824 28.8634 698.087 33.6371C696.349 38.4108 694.04 42.7907 691.158 46.7769C688.34 50.7333 685.1 54.245 681.44 57.3118C677.75 60.3148 673.735 62.8284 669.394 64.8525C665.053 66.8767 660.546 68.337 655.874 69.2334C651.172 70.0661 646.391 70.3136 641.532 69.976C636.643 69.5746 631.812 68.5051 627.038 66.7676C622.264 65.0301 617.876 62.7438 613.873 59.9088C609.886 57.0269 606.383 53.7643 603.363 50.1211C600.36 46.431 597.847 42.4156 595.823 38.0748C593.798 33.734 592.361 29.2359 591.512 24.5806C590.679 19.8784 590.455 15.1063 590.84 10.2641C591.194 5.35806 592.24 0.518188 593.978 -4.25552C595.715 -9.02924 598.025 -13.4092 600.907 -17.3954C603.742 -21.3986 606.981 -24.9102 610.624 -27.9303C614.267 -30.9503 618.26 -33.4724 622.6 -35.4966C626.941 -37.5207 631.439 -38.9576 636.095 -39.8072C640.75 -40.6569 645.522 -40.881 650.411 -40.4796C655.317 -40.125 660.157 -39.0789 664.931 -37.3414ZM657.648 -17.334C653.249 -18.9352 648.801 -19.6003 644.303 -19.3293C639.758 -19.0753 635.531 -18.017 631.62 -16.1545C627.679 -14.3557 624.151 -11.7973 621.035 -8.47925C617.936 -5.20799 615.586 -1.37271 613.985 3.0266C612.367 7.4727 611.693 11.9446 611.964 16.4423C612.235 20.9401 613.294 25.1678 615.139 29.1256C616.938 33.0664 619.496 36.5946 622.814 39.7103C626.086 42.809 629.921 45.1589 634.32 46.7601C638.719 48.3614 643.168 49.0265 647.666 48.7555C652.117 48.4674 656.321 47.4006 660.279 45.5551C664.237 43.7096 667.765 41.1511 670.863 37.8799C673.962 34.6086 676.321 30.7499 677.939 26.3038C679.54 21.9045 680.205 17.456 679.934 12.9583C679.68 8.41377 678.622 4.18602 676.759 0.27504C674.914 -3.68275 672.379 -7.20247 669.154 -10.2841C665.883 -13.3828 662.048 -15.7327 657.648 -17.334ZM727.006 -52.5904L719.673 -32.4426L619.004 -69.0831L626.337 -89.231L676.672 -70.9107L639.982 -126.719L648.311 -149.604L679.209 -102.345L748.981 -112.964L740.651 -90.0781L691.885 -82.7843L706.859 -59.9237L727.006 -52.5904Z" fill="#FFFEF9"/>
<path d="M33.4993 760.149C39.0686 762.176 43.927 765.137 48.0746 769.031C52.1754 772.909 55.3867 777.337 57.7085 782.317C60.0006 787.232 61.3054 792.53 61.6228 798.21C61.9574 803.844 61.111 809.446 59.0839 815.015C57.8574 818.385 56.2098 821.601 54.1409 824.664L32.5188 816.795C33.9531 815.621 35.2195 814.253 36.3177 812.692C37.4159 811.13 38.2887 809.46 38.9361 807.682C39.941 804.921 40.3716 802.136 40.2278 799.328C40.0542 796.455 39.3869 793.774 38.226 791.285C37.0651 788.795 35.4552 786.593 33.3963 784.677C31.3544 782.715 28.9528 781.232 26.1916 780.226L-34.252 758.227L-26.9444 738.149L33.4993 760.149ZM68.7856 663.2C74.3549 665.227 79.2134 668.188 83.361 672.083C87.4617 675.961 90.673 680.389 92.9949 685.368C95.2699 690.33 96.5661 695.652 96.8836 701.332C97.2181 706.966 96.3719 712.568 94.3448 718.137C92.3177 723.706 89.3568 728.565 85.4621 732.712C81.5845 736.813 77.1796 740.033 72.2472 742.372C67.2851 744.647 61.9871 745.952 56.3532 746.286C50.6726 746.604 45.0476 745.749 39.4783 743.722L-20.9654 721.722L-13.6577 701.644L46.7859 723.644C49.5472 724.649 52.332 725.08 55.1404 724.936C57.9659 724.745 60.6234 724.069 63.113 722.908C65.6026 721.747 67.8285 720.146 69.7906 718.104C71.7232 715.999 73.1918 713.565 74.1968 710.804C75.2019 708.043 75.6324 705.258 75.4886 702.449C75.315 699.577 74.6477 696.896 73.4868 694.407C72.326 691.917 70.716 689.714 68.6572 687.799C66.6152 685.837 64.2137 684.353 61.4524 683.348L1.00882 661.349L8.34205 641.201L68.7856 663.2ZM42.7448 640.604C38.5795 639.088 34.9612 636.87 31.8897 633.951C28.8184 631.031 26.4195 627.719 24.693 624.017C22.9368 620.251 21.9274 616.253 21.6648 612.023C21.4022 607.793 22.029 603.596 23.545 599.431L40.3578 553.238L60.5057 560.571L43.6929 606.764C43.1819 608.168 42.9623 609.572 43.0342 610.976C43.1062 612.38 43.4398 613.721 44.0351 614.998C44.6007 616.211 45.3982 617.296 46.4277 618.254C47.4572 619.211 48.6739 619.946 50.0779 620.457C51.4819 620.968 52.9094 621.196 54.3605 621.141C55.7647 621.069 57.0966 620.759 58.3563 620.21C59.5862 619.598 60.68 618.777 61.6377 617.747C62.5954 616.718 63.3298 615.501 63.8409 614.097L71.174 593.949C72.69 589.784 74.9081 586.166 77.8279 583.094C80.7181 579.959 84.0378 577.537 87.787 575.827C91.5065 574.054 95.4959 573.068 99.7553 572.869C103.985 572.607 108.183 573.234 112.348 574.75C116.513 576.266 120.131 578.484 123.203 581.404C126.291 584.277 128.713 587.596 130.47 591.363C132.196 595.065 133.182 599.055 133.428 603.331C133.69 607.561 133.064 611.758 131.548 615.923L115.271 660.642L95.1234 653.309L111.4 608.59C111.911 607.186 112.13 605.782 112.058 604.378C111.986 602.974 111.668 601.665 111.102 600.452C110.507 599.176 109.694 598.058 108.665 597.101C107.635 596.143 106.419 595.409 105.015 594.898C103.611 594.386 102.206 594.167 100.802 594.239C99.398 594.311 98.0809 594.653 96.851 595.265C95.5913 595.814 94.4827 596.603 93.525 597.632C92.5673 598.662 91.8329 599.878 91.3219 601.283L83.9886 621.43C82.4726 625.596 80.2546 629.214 77.3347 632.285C74.4148 635.357 71.0951 637.779 67.3756 639.552C63.6264 641.262 59.6369 642.248 55.4073 642.51C51.1309 642.756 46.91 642.121 42.7448 640.604ZM162.235 531.611L154.927 551.689L74.4056 522.382L63.3931 552.638L43.2451 545.305L72.5524 464.784L92.7003 472.117L81.7132 502.304L162.235 531.611ZM118.584 401.003L158.88 415.669L166.213 395.521C167.218 392.76 167.648 389.975 167.505 387.167C167.314 384.342 166.638 381.684 165.477 379.194C164.316 376.705 162.706 374.502 160.648 372.587C158.559 370.608 156.134 369.116 153.373 368.111C150.611 367.106 147.818 366.698 144.993 366.889C142.137 367.016 139.465 367.66 136.975 368.821C134.486 369.982 132.283 371.591 130.368 373.65C128.406 375.692 126.922 378.094 125.917 380.855L118.584 401.003ZM199.105 430.31L191.772 450.458L91.1027 413.818L105.769 373.522C107.115 369.825 108.901 366.446 111.127 363.388C113.307 360.312 115.822 357.623 118.674 355.322C121.496 352.957 124.59 351.009 127.956 349.479C131.293 347.884 134.774 346.766 138.399 346.124C142.042 345.436 145.741 345.246 149.499 345.553C153.273 345.814 157.009 346.617 160.706 347.963C164.169 349.223 167.377 350.894 170.329 352.976C173.299 355.011 175.96 357.384 178.312 360.095C180.681 362.759 182.68 365.713 184.309 368.956C185.938 372.199 187.137 375.603 187.906 379.169L218.294 377.589L210.501 399L187.019 400.391L178.957 422.977L199.105 430.31ZM211.895 239.868C216.668 241.606 221.048 243.916 225.035 246.797C228.991 249.616 232.503 252.855 235.569 256.515C238.589 260.158 241.112 264.15 243.136 268.491C245.16 272.832 246.62 277.338 247.517 282.011C248.366 286.666 248.59 291.438 248.189 296.327C247.834 301.233 246.788 306.073 245.051 310.847C243.313 315.621 241.004 320.001 238.122 323.987C235.304 327.943 232.065 331.455 228.404 334.522C224.714 337.525 220.699 340.038 216.358 342.062C212.017 344.087 207.511 345.547 202.838 346.443C198.136 347.276 193.355 347.523 188.496 347.186C183.607 346.784 178.776 345.715 174.002 343.977C169.228 342.24 164.84 339.954 160.837 337.119C156.851 334.237 153.347 330.974 150.327 327.331C147.324 323.641 144.811 319.625 142.787 315.285C140.762 310.944 139.326 306.446 138.476 301.79C137.643 297.088 137.419 292.316 137.804 287.474C138.158 282.568 139.204 277.728 140.942 272.954C142.679 268.181 144.989 263.801 147.871 259.814C150.706 255.811 153.945 252.3 157.588 249.28C161.232 246.26 165.224 243.737 169.564 241.713C173.905 239.689 178.403 238.252 183.059 237.403C187.714 236.553 192.486 236.329 197.375 236.73C202.281 237.085 207.121 238.131 211.895 239.868ZM204.613 259.876C200.213 258.275 195.765 257.61 191.267 257.881C186.723 258.135 182.495 259.193 178.584 261.055C174.643 262.854 171.115 265.413 167.999 268.731C164.9 272.002 162.55 275.837 160.949 280.236C159.331 284.683 158.657 289.154 158.928 293.652C159.199 298.15 160.258 302.378 162.103 306.335C163.902 310.276 166.46 313.804 169.778 316.92C173.05 320.019 176.885 322.369 181.284 323.97C185.684 325.571 190.132 326.236 194.63 325.965C199.081 325.677 203.285 324.611 207.243 322.765C211.201 320.919 214.729 318.361 217.828 315.09C220.926 311.818 223.285 307.96 224.903 303.514C226.504 299.114 227.169 294.666 226.898 290.168C226.644 285.624 225.586 281.396 223.723 277.485C221.878 273.527 219.343 270.007 216.118 266.926C212.847 263.827 209.012 261.477 204.613 259.876ZM273.971 224.619L266.637 244.767L165.968 208.127L173.301 187.979L223.636 206.299L186.946 150.491L195.275 127.605L226.173 174.865L295.945 164.246L287.615 187.132L238.849 194.426L253.823 217.286L273.971 224.619ZM321.343 94.4653L314.009 114.613L213.34 77.9726L220.673 57.8247L321.343 94.4653ZM343.547 33.46L336.239 53.5377L255.718 24.2304L244.705 54.4873L224.557 47.1541L253.865 -33.3672L274.012 -26.034L263.025 4.15271L343.547 33.46Z" fill="#FFFEF9"/>
<path d="M112.104 903.736L152.4 918.403L159.733 898.255C160.738 895.494 161.168 892.709 161.025 889.9C160.834 887.075 160.158 884.417 158.997 881.928C157.836 879.438 156.226 877.236 154.168 875.32C152.079 873.341 149.654 871.849 146.893 870.844C144.131 869.839 141.338 869.432 138.513 869.622C135.657 869.749 132.985 870.393 130.495 871.554C128.006 872.715 125.803 874.325 123.888 876.384C121.926 878.426 120.442 880.827 119.437 883.588L112.104 903.736ZM192.625 933.044L185.292 953.192L84.623 916.551L99.2895 876.255C100.635 872.558 102.421 869.18 104.647 866.121C106.827 863.045 109.342 860.357 112.194 858.056C115.016 855.691 118.11 853.743 121.476 852.212C124.812 850.617 128.293 849.499 131.919 848.858C135.562 848.169 139.261 847.979 143.019 848.287C146.793 848.547 150.529 849.35 154.226 850.696C157.689 851.957 160.897 853.628 163.849 855.709C166.819 857.744 169.48 860.117 171.832 862.828C174.201 865.493 176.2 868.446 177.829 871.689C179.458 874.932 180.657 878.337 181.426 881.903L211.814 880.322L204.021 901.734L180.539 903.125L172.477 925.71L192.625 933.044ZM205.415 742.602C210.188 744.339 214.568 746.649 218.555 749.531C222.511 752.349 226.023 755.588 229.089 759.248C232.109 762.892 234.632 766.884 236.656 771.224C238.68 775.565 240.14 780.072 241.037 784.744C241.886 789.4 242.11 794.172 241.709 799.061C241.354 803.967 240.308 808.807 238.571 813.58C236.833 818.354 234.524 822.734 231.642 826.72C228.824 830.677 225.585 834.188 221.924 837.255C218.234 840.258 214.219 842.772 209.878 844.796C205.537 846.82 201.031 848.28 196.358 849.177C191.656 850.009 186.875 850.257 182.016 849.919C177.127 849.518 172.296 848.448 167.522 846.711C162.748 844.973 158.36 842.687 154.357 839.852C150.371 836.97 146.867 833.708 143.847 830.064C140.844 826.374 138.331 822.359 136.307 818.018C134.282 813.677 132.846 809.179 131.996 804.524C131.163 799.822 130.939 795.05 131.324 790.207C131.678 785.301 132.724 780.461 134.462 775.688C136.199 770.914 138.509 766.534 141.391 762.548C144.226 758.545 147.465 755.033 151.108 752.013C154.752 748.993 158.744 746.471 163.084 744.447C167.425 742.423 171.923 740.986 176.579 740.136C181.234 739.286 186.006 739.062 190.895 739.464C195.801 739.818 200.641 740.864 205.415 742.602ZM198.133 762.609C193.733 761.008 189.285 760.343 184.787 760.614C180.242 760.868 176.015 761.926 172.104 763.789C168.163 765.588 164.635 768.146 161.519 771.464C158.42 774.735 156.07 778.571 154.469 782.97C152.851 787.416 152.177 791.888 152.448 796.386C152.719 800.883 153.778 805.111 155.623 809.069C157.422 813.01 159.98 816.538 163.298 819.654C166.57 822.752 170.405 825.102 174.804 826.703C179.204 828.305 183.652 828.97 188.15 828.699C192.601 828.411 196.805 827.344 200.763 825.498C204.721 823.653 208.249 821.094 211.348 817.823C214.446 814.552 216.805 810.693 218.423 806.247C220.024 801.848 220.689 797.399 220.418 792.902C220.164 788.357 219.106 784.129 217.243 780.218C215.398 776.261 212.863 772.741 209.638 769.659C206.367 766.56 202.532 764.211 198.133 762.609ZM267.49 727.353L260.157 747.501L159.488 710.86L166.821 690.712L217.156 709.033L180.466 653.225L188.795 630.339L219.693 677.599L289.465 666.979L281.135 689.865L232.369 697.159L247.343 720.02L267.49 727.353ZM234.341 567.892L274.637 582.558L281.97 562.41C282.975 559.649 283.406 556.864 283.262 554.056C283.071 551.23 282.396 548.573 281.235 546.083C280.074 543.594 278.464 541.391 276.405 539.476C274.316 537.496 271.891 536.004 269.13 534.999C266.369 533.994 263.575 533.587 260.75 533.778C257.895 533.905 255.222 534.548 252.733 535.709C250.243 536.87 248.041 538.48 246.125 540.539C244.163 542.581 242.68 544.982 241.675 547.744L234.341 567.892ZM314.863 597.199L307.529 617.347L206.86 580.706L221.527 540.411C222.872 536.713 224.658 533.335 226.885 530.276C229.064 527.201 231.58 524.512 234.431 522.211C237.253 519.846 240.347 517.898 243.713 516.367C247.05 514.773 250.531 513.654 254.156 513.013C257.799 512.325 261.499 512.134 265.256 512.442C269.03 512.703 272.766 513.506 276.463 514.851C279.927 516.112 283.134 517.783 286.087 519.865C289.056 521.899 291.717 524.272 294.069 526.984C296.439 529.648 298.438 532.602 300.067 535.845C301.695 539.087 302.894 542.492 303.663 546.058L334.052 544.478L326.258 565.889L302.776 567.28L294.715 589.866L314.863 597.199ZM327.652 406.757C332.426 408.495 336.806 410.804 340.792 413.686C344.748 416.504 348.26 419.743 351.327 423.404C354.347 427.047 356.869 431.039 358.893 435.38C360.917 439.721 362.378 444.227 363.274 448.9C364.124 453.555 364.348 458.327 363.946 463.216C363.592 468.122 362.546 472.962 360.808 477.736C359.071 482.509 356.761 486.889 353.879 490.875C351.061 494.832 347.822 498.344 344.162 501.41C340.472 504.413 336.456 506.927 332.115 508.951C327.775 510.975 323.268 512.436 318.596 513.332C313.894 514.165 309.113 514.412 304.254 514.075C299.365 513.673 294.533 512.604 289.76 510.866C284.986 509.129 280.597 506.842 276.594 504.007C272.608 501.125 269.105 497.863 266.085 494.22C263.082 490.53 260.568 486.514 258.544 482.173C256.52 477.833 255.083 473.334 254.233 468.679C253.401 463.977 253.177 459.205 253.561 454.363C253.916 449.457 254.962 444.617 256.699 439.843C258.437 435.069 260.746 430.689 263.628 426.703C266.463 422.7 269.702 419.188 273.346 416.168C276.989 413.148 280.981 410.626 285.322 408.602C289.663 406.578 294.161 405.141 298.816 404.291C303.471 403.442 308.244 403.218 313.133 403.619C318.039 403.974 322.878 405.02 327.652 406.757ZM320.37 426.765C315.971 425.163 311.522 424.498 307.024 424.769C302.48 425.023 298.252 426.082 294.341 427.944C290.4 429.743 286.872 432.301 283.757 435.619C280.658 438.891 278.308 442.726 276.707 447.125C275.088 451.571 274.415 456.043 274.686 460.541C274.957 465.039 276.015 469.266 277.861 473.224C279.659 477.165 282.218 480.693 285.536 483.809C288.807 486.908 292.642 489.258 297.042 490.859C301.441 492.46 305.889 493.125 310.387 492.854C314.838 492.566 319.042 491.499 323 489.654C326.958 487.808 330.486 485.25 333.585 481.978C336.684 478.707 339.042 474.849 340.66 470.402C342.262 466.003 342.927 461.555 342.656 457.057C342.402 452.512 341.343 448.285 339.481 444.374C337.635 440.416 335.1 436.896 331.876 433.814C328.605 430.716 324.769 428.366 320.37 426.765ZM389.728 391.508L382.395 411.656L281.726 375.015L289.059 354.868L339.393 373.188L302.703 317.38L311.033 294.494L341.93 341.754L411.702 331.135L403.372 354.02L354.607 361.314L369.58 384.175L389.728 391.508ZM356.579 232.047L396.875 246.713L404.208 226.566C405.213 223.804 405.643 221.019 405.499 218.211C405.309 215.386 404.633 212.728 403.472 210.238C402.311 207.749 400.701 205.546 398.642 203.631C396.554 201.652 394.129 200.16 391.368 199.155C388.606 198.15 385.813 197.742 382.987 197.933C380.132 198.06 377.46 198.704 374.97 199.865C372.481 201.026 370.278 202.635 368.363 204.694C366.401 206.736 364.917 209.138 363.912 211.899L356.579 232.047ZM437.1 261.354L429.767 281.502L329.098 244.862L343.764 204.566C345.11 200.869 346.896 197.491 349.122 194.432C351.302 191.356 353.817 188.668 356.669 186.366C359.491 184.001 362.585 182.053 365.951 180.523C369.287 178.928 372.768 177.81 376.394 177.168C380.037 176.48 383.736 176.29 387.494 176.597C391.268 176.858 395.003 177.661 398.701 179.007C402.164 180.267 405.372 181.938 408.324 184.02C411.294 186.055 413.955 188.428 416.307 191.139C418.676 193.803 420.675 196.757 422.304 200C423.933 203.243 425.132 206.647 425.901 210.213L456.289 208.633L448.496 230.044L425.014 231.435L416.952 254.021L437.1 261.354ZM449.89 70.9124C454.663 72.6499 459.043 74.9596 463.029 77.8414C466.986 80.6595 470.497 83.8986 473.564 87.5589C476.584 91.2022 479.106 95.1942 481.131 99.535C483.155 103.876 484.615 108.383 485.512 113.055C486.361 117.71 486.585 122.482 486.184 127.371C485.829 132.277 484.783 137.117 483.046 141.891C481.308 146.665 478.999 151.045 476.117 155.031C473.299 158.987 470.059 162.499 466.399 165.566C462.709 168.569 458.694 171.082 454.353 173.106C450.012 175.131 445.505 176.591 440.833 177.487C436.131 178.32 431.35 178.567 426.491 178.23C421.602 177.828 416.771 176.759 411.997 175.022C407.223 173.284 402.835 170.998 398.832 168.163C394.845 165.281 391.342 162.018 388.322 158.375C385.319 154.685 382.806 150.669 380.782 146.329C378.757 141.988 377.32 137.49 376.471 132.834C375.638 128.132 375.414 123.36 375.798 118.518C376.153 113.612 377.199 108.772 378.937 103.998C380.674 99.2246 382.984 94.8446 385.866 90.8584C388.701 86.8552 391.94 83.3436 395.583 80.3236C399.226 77.3035 403.218 74.7814 407.559 72.7573C411.9 70.7331 416.398 69.2962 421.053 68.4466C425.709 67.5969 430.481 67.3728 435.37 67.7742C440.276 68.1288 445.116 69.1749 449.89 70.9124ZM442.607 90.9199C438.208 89.3186 433.76 88.6535 429.262 88.9245C424.717 89.1785 420.49 90.2368 416.579 92.0994C412.638 93.8981 409.11 96.4565 405.994 99.7746C402.895 103.046 400.545 106.881 398.944 111.281C397.326 115.727 396.652 120.199 396.923 124.696C397.194 129.194 398.253 133.422 400.098 137.38C401.897 141.32 404.455 144.849 407.773 147.964C411.045 151.063 414.88 153.413 419.279 155.014C423.678 156.615 428.127 157.28 432.625 157.009C437.076 156.721 441.28 155.655 445.238 153.809C449.196 151.963 452.724 149.405 455.822 146.134C458.921 142.863 461.28 139.004 462.898 134.558C464.499 130.158 465.164 125.71 464.893 121.212C464.639 116.668 463.581 112.44 461.718 108.529C459.873 104.571 457.338 101.051 454.113 97.9697C450.842 94.871 447.007 92.5211 442.607 90.9199ZM511.965 55.6634L504.632 75.8113L403.963 39.1707L411.296 19.0228L461.631 37.3431L424.941 -18.4649L433.27 -41.3506L464.168 5.90929L533.94 -4.71002L525.61 18.1757L476.844 25.4695L491.818 48.3302L511.965 55.6634Z" fill="#FFFEF9"/>
<path d="M-142.896 638.736L-102.6 653.403L-95.2672 633.255C-94.2622 630.494 -93.8316 627.709 -93.9754 624.9C-94.1661 622.075 -94.8418 619.417 -96.0028 616.928C-97.1637 614.438 -98.7736 612.236 -100.832 610.32C-102.921 608.341 -105.346 606.849 -108.107 605.844C-110.869 604.839 -113.662 604.432 -116.487 604.622C-119.343 604.749 -122.015 605.393 -124.505 606.554C-126.994 607.715 -129.197 609.325 -131.112 611.384C-133.074 613.426 -134.558 615.827 -135.563 618.588L-142.896 638.736ZM-62.3749 668.044L-69.7081 688.192L-170.377 651.551L-155.711 611.255C-154.365 607.558 -152.579 604.18 -150.353 601.121C-148.173 598.045 -145.658 595.357 -142.806 593.056C-139.984 590.691 -136.89 588.743 -133.524 587.212C-130.188 585.617 -126.707 584.499 -123.081 583.858C-119.438 583.169 -115.739 582.979 -111.981 583.287C-108.207 583.547 -104.471 584.35 -100.774 585.696C-97.3109 586.957 -94.103 588.628 -91.1506 590.709C-88.1811 592.744 -85.5203 595.117 -83.168 597.828C-80.7987 600.493 -78.7997 603.446 -77.1709 606.689C-75.5422 609.932 -74.3431 613.337 -73.5741 616.903L-43.1858 615.322L-50.979 636.734L-74.4612 638.125L-82.5227 660.71L-62.3749 668.044ZM-49.5853 477.602C-44.8116 479.339 -40.4317 481.649 -36.4454 484.531C-32.489 487.349 -28.9774 490.588 -25.9106 494.248C-22.8905 497.892 -20.3683 501.884 -18.3443 506.224C-16.3201 510.565 -14.8597 515.072 -13.9633 519.744C-13.1138 524.4 -12.8895 529.172 -13.291 534.061C-13.6456 538.967 -14.6917 543.807 -16.4292 548.58C-18.1667 553.354 -20.4763 557.734 -23.3582 561.72C-26.1762 565.677 -29.4155 569.188 -33.0758 572.255C-36.7658 575.258 -40.7812 577.772 -45.1221 579.796C-49.4629 581.82 -53.9695 583.28 -58.6418 584.177C-63.344 585.009 -68.1246 585.257 -72.9839 584.919C-77.8729 584.518 -82.7042 583.448 -87.4779 581.711C-92.2515 579.973 -96.6401 577.687 -100.643 574.852C-104.629 571.97 -108.133 568.708 -111.153 565.064C-114.156 561.374 -116.669 557.359 -118.693 553.018C-120.718 548.677 -122.154 544.179 -123.004 539.524C-123.837 534.822 -124.061 530.05 -123.676 525.207C-123.322 520.301 -122.276 515.461 -120.538 510.688C-118.801 505.914 -116.491 501.534 -113.609 497.548C-110.774 493.545 -107.535 490.033 -103.892 487.013C-100.248 483.993 -96.2564 481.471 -91.9156 479.447C-87.5748 477.423 -83.0768 475.986 -78.4214 475.136C-73.7661 474.286 -68.9939 474.062 -64.1049 474.464C-59.1989 474.818 -54.3589 475.864 -49.5853 477.602ZM-56.8674 497.609C-61.2668 496.008 -65.7152 495.343 -70.213 495.614C-74.7575 495.868 -78.9853 496.926 -82.8963 498.789C-86.837 500.588 -90.3652 503.146 -93.481 506.464C-96.5796 509.735 -98.9296 513.571 -100.531 517.97C-102.149 522.416 -102.823 526.888 -102.552 531.386C-102.281 535.883 -101.222 540.111 -99.3768 544.069C-97.5781 548.01 -95.0197 551.538 -91.7016 554.654C-88.4304 557.752 -84.5951 560.102 -80.1958 561.703C-75.7965 563.305 -71.348 563.97 -66.8503 563.699C-62.3993 563.411 -58.195 562.344 -54.2372 560.498C-50.2794 558.653 -46.7512 556.094 -43.6525 552.823C-40.5538 549.552 -38.1953 545.693 -36.5771 541.247C-34.9759 536.848 -34.3108 532.399 -34.5818 527.902C-34.8357 523.357 -35.894 519.129 -37.7566 515.218C-39.6021 511.261 -42.1371 507.741 -45.3616 504.659C-48.6329 501.56 -52.4681 499.211 -56.8674 497.609ZM12.4905 462.353L5.15729 482.501L-95.5119 445.86L-88.1787 425.712L-37.8441 444.033L-74.5343 388.225L-66.2046 365.339L-35.3073 412.599L34.4646 401.979L26.1349 424.865L-22.6308 432.159L-7.65736 455.02L12.4905 462.353ZM-20.6587 302.892L19.637 317.558L26.9704 297.41C27.9754 294.649 28.4059 291.864 28.262 289.056C28.0714 286.23 27.3956 283.573 26.2347 281.083C25.0738 278.594 23.4639 276.391 21.405 274.476C19.3163 272.496 16.8913 271.004 14.1301 269.999C11.3688 268.994 8.57552 268.587 5.75006 268.778C2.89485 268.905 0.222458 269.548 -2.26712 270.709C-4.75668 271.87 -6.95918 273.48 -8.87459 275.539C-10.8367 277.581 -12.3204 279.982 -13.3255 282.744L-20.6587 302.892ZM59.8626 332.199L52.5294 352.347L-48.1398 315.706L-33.4733 275.411C-32.1275 271.713 -30.3416 268.335 -28.1152 265.276C-25.9357 262.201 -23.4202 259.512 -20.5686 257.211C-17.7468 254.846 -14.6528 252.898 -11.2865 251.367C-7.95003 249.773 -4.46901 248.654 -0.843475 248.013C2.79909 247.325 6.49896 247.134 10.2561 247.442C14.0303 247.703 17.7661 248.506 21.4633 249.851C24.9267 251.112 28.1344 252.783 31.0869 254.865C34.0564 256.899 36.7173 259.272 39.0695 261.984C41.4388 264.648 43.4379 267.602 45.0665 270.845C46.6953 274.087 47.8942 277.492 48.6633 281.058L79.0516 279.478L71.2585 300.889L47.7763 302.28L39.7148 324.866L59.8626 332.199ZM72.6521 141.757C77.4258 143.495 81.8058 145.804 85.7921 148.686C89.7484 151.504 93.26 154.743 96.3269 158.404C99.3469 162.047 101.869 166.039 103.893 170.38C105.917 174.721 107.378 179.227 108.274 183.9C109.124 188.555 109.348 193.327 108.946 198.216C108.592 203.122 107.546 207.962 105.808 212.736C104.071 217.509 101.761 221.889 98.8792 225.875C96.0612 229.832 92.8221 233.344 89.1617 236.41C85.4716 239.413 81.4563 241.927 77.1154 243.951C72.7746 245.975 68.268 247.436 63.5956 248.332C58.8935 249.165 54.1129 249.412 49.2536 249.075C44.3647 248.673 39.5334 247.604 34.7596 245.866C29.9859 244.129 25.5974 241.842 21.5942 239.007C17.608 236.125 14.1049 232.863 11.0848 229.22C8.08183 225.53 5.56825 221.514 3.54411 217.173C1.51996 212.833 0.0830688 208.334 -0.766586 203.679C-1.5992 198.977 -1.8233 194.205 -1.43892 189.363C-1.0843 184.457 -0.0382538 179.617 1.69923 174.843C3.43672 170.069 5.74641 165.689 8.6283 161.703C11.4633 157.7 14.7025 154.188 18.3457 151.168C21.989 148.148 25.981 145.626 30.3218 143.602C34.6626 141.578 39.1607 140.141 43.816 139.291C48.4714 138.442 53.2435 138.218 58.1325 138.619C63.0386 138.974 67.8784 140.02 72.6521 141.757ZM65.3701 161.765C60.9707 160.163 56.5222 159.498 52.0246 159.769C47.4799 160.023 43.2522 161.082 39.3412 162.944C35.4005 164.743 31.8723 167.301 28.7565 170.619C25.6579 173.891 23.3079 177.726 21.7067 182.125C20.0884 186.571 19.4149 191.043 19.6859 195.541C19.9568 200.039 21.0151 204.266 22.8606 208.224C24.6594 212.165 27.2178 215.693 30.5358 218.809C33.8071 221.908 37.6424 224.258 42.0417 225.859C46.4411 227.46 50.8895 228.125 55.3872 227.854C59.8381 227.566 64.0425 226.499 68.0003 224.654C71.9581 222.808 75.4864 220.25 78.5851 216.978C81.6837 213.707 84.0422 209.849 85.6605 205.402C87.2617 201.003 87.9268 196.555 87.6558 192.057C87.4018 187.512 86.3434 183.285 84.481 179.374C82.6354 175.416 80.1003 171.896 76.8759 168.814C73.6046 165.716 69.7694 163.366 65.3701 161.765ZM134.728 126.508L127.395 146.656L26.7255 110.015L34.0588 89.8676L84.3933 108.188L47.7032 52.3799L56.0329 29.4941L86.9301 76.7539L156.702 66.1346L148.372 89.0204L99.6068 96.3141L114.58 119.175L134.728 126.508ZM101.579 -32.9531L141.875 -18.2867L149.208 -38.4346C150.213 -41.1958 150.643 -43.9807 150.499 -46.7891C150.309 -49.6145 149.633 -52.272 148.472 -54.7616C147.311 -57.2512 145.701 -59.4537 143.642 -61.3691C141.554 -63.3483 139.129 -64.8404 136.368 -65.8455C133.606 -66.8505 130.813 -67.2577 127.987 -67.067C125.132 -66.9402 122.46 -66.2964 119.97 -65.1354C117.481 -63.9745 115.278 -62.3646 113.363 -60.3057C111.401 -58.2639 109.917 -55.8623 108.912 -53.101L101.579 -32.9531ZM182.1 -3.64575L174.767 16.5021L74.0977 -20.1385L88.7642 -60.4342C90.1099 -64.1315 91.8958 -67.5096 94.1221 -70.5683C96.3017 -73.6441 98.8172 -76.3326 101.669 -78.6338C104.491 -80.9988 107.585 -82.9467 110.951 -84.4775C114.287 -86.0722 117.768 -87.1903 121.394 -87.8317C125.037 -88.52 128.736 -88.7104 132.494 -88.4029C136.268 -88.1422 140.003 -87.339 143.701 -85.9933C147.164 -84.7328 150.372 -83.0617 153.324 -80.9801C156.294 -78.9453 158.955 -76.5723 161.307 -73.8611C163.676 -71.1967 165.675 -68.2431 167.304 -65.0002C168.933 -61.7572 170.132 -58.3529 170.901 -54.7869L201.289 -56.3672L193.496 -34.9557L170.014 -33.5648L161.952 -10.979L182.1 -3.64575ZM194.89 -194.088C199.663 -192.35 204.043 -190.04 208.029 -187.158C211.986 -184.34 215.497 -181.101 218.564 -177.441C221.584 -173.798 224.106 -169.806 226.131 -165.465C228.155 -161.124 229.615 -156.617 230.512 -151.945C231.361 -147.29 231.585 -142.518 231.184 -137.629C230.829 -132.723 229.783 -127.883 228.046 -123.109C226.308 -118.335 223.999 -113.955 221.117 -109.969C218.299 -106.013 215.059 -102.501 211.399 -99.4344C207.709 -96.4314 203.694 -93.9178 199.353 -91.8936C195.012 -89.8695 190.505 -88.4091 185.833 -87.5128C181.131 -86.6801 176.35 -86.4326 171.491 -86.7702C166.602 -87.1716 161.771 -88.2411 156.997 -89.9786C152.223 -91.7161 147.835 -94.0023 143.832 -96.8374C139.845 -99.7193 136.342 -102.982 133.322 -106.625C130.319 -110.315 127.806 -114.331 125.782 -118.671C123.757 -123.012 122.32 -127.51 121.471 -132.166C120.638 -136.868 120.414 -141.64 120.798 -146.482C121.153 -151.388 122.199 -156.228 123.937 -161.002C125.674 -165.775 127.984 -170.155 130.866 -174.141C133.701 -178.145 136.94 -181.656 140.583 -184.676C144.226 -187.696 148.218 -190.218 152.559 -192.243C156.9 -194.267 161.398 -195.704 166.053 -196.553C170.709 -197.403 175.481 -197.627 180.37 -197.226C185.276 -196.871 190.116 -195.825 194.89 -194.088ZM187.607 -174.08C183.208 -175.681 178.76 -176.346 174.262 -176.075C169.717 -175.821 165.49 -174.763 161.579 -172.901C157.638 -171.102 154.11 -168.543 150.994 -165.225C147.895 -161.954 145.545 -158.119 143.944 -153.719C142.326 -149.273 141.652 -144.801 141.923 -140.304C142.194 -135.806 143.253 -131.578 145.098 -127.62C146.897 -123.68 149.455 -120.151 152.773 -117.036C156.045 -113.937 159.88 -111.587 164.279 -109.986C168.678 -108.385 173.127 -107.72 177.625 -107.991C182.076 -108.279 186.28 -109.345 190.238 -111.191C194.196 -113.037 197.724 -115.595 200.822 -118.866C203.921 -122.137 206.28 -125.996 207.898 -130.442C209.499 -134.842 210.164 -139.29 209.893 -143.788C209.639 -148.332 208.581 -152.56 206.718 -156.471C204.873 -160.429 202.338 -163.949 199.113 -167.03C195.842 -170.129 192.007 -172.479 187.607 -174.08ZM256.965 -209.337L249.632 -189.189L148.963 -225.829L156.296 -245.977L206.631 -227.657L169.941 -283.465L178.27 -306.351L209.168 -259.091L278.94 -269.71L270.61 -246.824L221.844 -239.53L236.818 -216.67L256.965 -209.337Z" fill="#FFFEF9"/>
</g>
</svg>
